%TF.GenerationSoftware,KiCad,Pcbnew,7.0.9*%
%TF.CreationDate,2024-11-13T11:23:37-07:00*%
%TF.ProjectId,fullOptBattleCartV1,66756c6c-4f70-4744-9261-74746c654361,rev?*%
%TF.SameCoordinates,Original*%
%TF.FileFunction,Copper,L1,Top*%
%TF.FilePolarity,Positive*%
%FSLAX46Y46*%
G04 Gerber Fmt 4.6, Leading zero omitted, Abs format (unit mm)*
G04 Created by KiCad (PCBNEW 7.0.9) date 2024-11-13 11:23:37*
%MOMM*%
%LPD*%
G01*
G04 APERTURE LIST*
G04 Aperture macros list*
%AMRoundRect*
0 Rectangle with rounded corners*
0 $1 Rounding radius*
0 $2 $3 $4 $5 $6 $7 $8 $9 X,Y pos of 4 corners*
0 Add a 4 corners polygon primitive as box body*
4,1,4,$2,$3,$4,$5,$6,$7,$8,$9,$2,$3,0*
0 Add four circle primitives for the rounded corners*
1,1,$1+$1,$2,$3*
1,1,$1+$1,$4,$5*
1,1,$1+$1,$6,$7*
1,1,$1+$1,$8,$9*
0 Add four rect primitives between the rounded corners*
20,1,$1+$1,$2,$3,$4,$5,0*
20,1,$1+$1,$4,$5,$6,$7,0*
20,1,$1+$1,$6,$7,$8,$9,0*
20,1,$1+$1,$8,$9,$2,$3,0*%
G04 Aperture macros list end*
%TA.AperFunction,ComponentPad*%
%ADD10C,1.600000*%
%TD*%
%TA.AperFunction,ComponentPad*%
%ADD11RoundRect,0.250000X-0.750000X0.600000X-0.750000X-0.600000X0.750000X-0.600000X0.750000X0.600000X0*%
%TD*%
%TA.AperFunction,ComponentPad*%
%ADD12O,2.000000X1.700000*%
%TD*%
%TA.AperFunction,ComponentPad*%
%ADD13R,1.600000X1.600000*%
%TD*%
%TA.AperFunction,ComponentPad*%
%ADD14C,1.524000*%
%TD*%
%TA.AperFunction,ComponentPad*%
%ADD15RoundRect,0.250000X0.750000X-0.600000X0.750000X0.600000X-0.750000X0.600000X-0.750000X-0.600000X0*%
%TD*%
%TA.AperFunction,ComponentPad*%
%ADD16O,1.600000X1.600000*%
%TD*%
%TA.AperFunction,ComponentPad*%
%ADD17R,1.905000X2.000000*%
%TD*%
%TA.AperFunction,ComponentPad*%
%ADD18O,1.905000X2.000000*%
%TD*%
%TA.AperFunction,ComponentPad*%
%ADD19RoundRect,0.250000X-0.600000X-0.750000X0.600000X-0.750000X0.600000X0.750000X-0.600000X0.750000X0*%
%TD*%
%TA.AperFunction,ComponentPad*%
%ADD20O,1.700000X2.000000*%
%TD*%
%TA.AperFunction,ViaPad*%
%ADD21C,0.800000*%
%TD*%
%TA.AperFunction,Conductor*%
%ADD22C,0.250000*%
%TD*%
G04 APERTURE END LIST*
D10*
%TO.P,C1,1*%
%TO.N,Net-(M1-+)*%
X50165000Y-78125000D03*
%TO.P,C1,2*%
%TO.N,Net-(M1--)*%
X50165000Y-80625000D03*
%TD*%
D11*
%TO.P,M1,1,+*%
%TO.N,Net-(M1-+)*%
X56515000Y-78105000D03*
D12*
%TO.P,M1,2,-*%
%TO.N,Net-(M1--)*%
X56515000Y-80605000D03*
%TD*%
D10*
%TO.P,C2,1*%
%TO.N,Net-(M2-+)*%
X50165000Y-86995000D03*
%TO.P,C2,2*%
%TO.N,Net-(M2--)*%
X50165000Y-89495000D03*
%TD*%
D13*
%TO.P,C5,1*%
%TO.N,Net-(BT1-+)*%
X62865000Y-98385000D03*
D10*
%TO.P,C5,2*%
%TO.N,Net-(BT1--)*%
X62865000Y-95885000D03*
%TD*%
D14*
%TO.P,U1,1,RST*%
%TO.N,unconnected-(U1-RST-Pad1)*%
X64135000Y-41275000D03*
%TO.P,U1,2,3V3*%
%TO.N,Net-(U1-3V3)*%
X64135000Y-43815000D03*
%TO.P,U1,3,MD*%
%TO.N,unconnected-(U1-MD-Pad3)*%
X64135000Y-46355000D03*
%TO.P,U1,4,GND*%
%TO.N,Net-(BT1--)*%
X64135000Y-48895000D03*
%TO.P,U1,5,A0*%
%TO.N,unconnected-(U1-A0-Pad5)*%
X64135000Y-51435000D03*
%TO.P,U1,6,A1*%
%TO.N,unconnected-(U1-A1-Pad6)*%
X64135000Y-53975000D03*
%TO.P,U1,7,A2*%
%TO.N,unconnected-(U1-A2-Pad7)*%
X64135000Y-56515000D03*
%TO.P,U1,8,A3*%
%TO.N,unconnected-(U1-A3-Pad8)*%
X64135000Y-59055000D03*
%TO.P,U1,9,A4*%
%TO.N,unconnected-(U1-A4-Pad9)*%
X64135000Y-61595000D03*
%TO.P,U1,10,A5*%
%TO.N,unconnected-(U1-A5-Pad10)*%
X64135000Y-64135000D03*
%TO.P,U1,11,SCK*%
%TO.N,unconnected-(U1-SCK-Pad11)*%
X64135000Y-66675000D03*
%TO.P,U1,12,MO*%
%TO.N,unconnected-(U1-MO-Pad12)*%
X64135000Y-69215000D03*
%TO.P,U1,13,MI*%
%TO.N,unconnected-(U1-MI-Pad13)*%
X64135000Y-71755000D03*
%TO.P,U1,14,RX*%
%TO.N,unconnected-(U1-RX-Pad14)*%
X64135000Y-74295000D03*
%TO.P,U1,15,TX*%
%TO.N,unconnected-(U1-TX-Pad15)*%
X64135000Y-76835000D03*
%TO.P,U1,16,NC*%
%TO.N,unconnected-(U1-NC-Pad16)*%
X64135000Y-79375000D03*
%TO.P,U1,17,SDA*%
%TO.N,unconnected-(U1-SDA-Pad17)*%
X84455000Y-79375000D03*
%TO.P,U1,18,SCL*%
%TO.N,Net-(U1-SCL)*%
X84455000Y-76835000D03*
%TO.P,U1,19,D2*%
%TO.N,Net-(U1-D2)*%
X84455000Y-74295000D03*
%TO.P,U1,20,D3*%
%TO.N,Net-(U1-D3)*%
X84455000Y-71755000D03*
%TO.P,U1,21,D4*%
%TO.N,Net-(U1-D4)*%
X84455000Y-69215000D03*
%TO.P,U1,22,D5*%
%TO.N,Net-(U1-D5)*%
X84455000Y-66675000D03*
%TO.P,U1,23,D6*%
%TO.N,Net-(U1-D6)*%
X84455000Y-64135000D03*
%TO.P,U1,24,D7*%
%TO.N,Net-(U1-D7)*%
X84455000Y-61595000D03*
%TO.P,U1,25,D8*%
%TO.N,Net-(U1-D8)*%
X84455000Y-59055000D03*
%TO.P,U1,26,USB*%
%TO.N,Net-(U1-USB)*%
X84455000Y-56515000D03*
%TO.P,U1,27,EN*%
%TO.N,unconnected-(U1-EN-Pad27)*%
X84455000Y-53975000D03*
%TO.P,U1,28,Li+*%
%TO.N,unconnected-(U1-Li+-Pad28)*%
X84455000Y-51435000D03*
%TD*%
D15*
%TO.P,M4,1,+*%
%TO.N,Net-(M4-+)*%
X90170000Y-88860000D03*
D12*
%TO.P,M4,2,-*%
%TO.N,Net-(M4--)*%
X90170000Y-86360000D03*
%TD*%
D10*
%TO.P,C3,1*%
%TO.N,Net-(M3-+)*%
X98425000Y-80010000D03*
%TO.P,C3,2*%
%TO.N,Net-(M3--)*%
X98425000Y-77510000D03*
%TD*%
%TO.P,C4,1*%
%TO.N,Net-(M4-+)*%
X98425000Y-88880000D03*
%TO.P,C4,2*%
%TO.N,Net-(M4--)*%
X98425000Y-86380000D03*
%TD*%
D13*
%TO.P,U4,1,EN1\u002C2*%
%TO.N,Net-(U1-USB)*%
X50800000Y-54610000D03*
D16*
%TO.P,U4,2,1A*%
%TO.N,Net-(U2-HV1)*%
X50800000Y-57150000D03*
%TO.P,U4,3,1Y*%
%TO.N,Net-(M1-+)*%
X50800000Y-59690000D03*
%TO.P,U4,4,GND*%
%TO.N,Net-(BT1--)*%
X50800000Y-62230000D03*
%TO.P,U4,5,GND*%
X50800000Y-64770000D03*
%TO.P,U4,6,2Y*%
%TO.N,Net-(M1--)*%
X50800000Y-67310000D03*
%TO.P,U4,7,2A*%
%TO.N,Net-(U2-HV2)*%
X50800000Y-69850000D03*
%TO.P,U4,8,VCC2*%
%TO.N,Net-(BT1-+)*%
X50800000Y-72390000D03*
%TO.P,U4,9,EN3\u002C4*%
%TO.N,Net-(U1-USB)*%
X58420000Y-72390000D03*
%TO.P,U4,10,3A*%
%TO.N,Net-(U2-HV3)*%
X58420000Y-69850000D03*
%TO.P,U4,11,3Y*%
%TO.N,Net-(M2-+)*%
X58420000Y-67310000D03*
%TO.P,U4,12,GND*%
%TO.N,Net-(BT1--)*%
X58420000Y-64770000D03*
%TO.P,U4,13,GND*%
X58420000Y-62230000D03*
%TO.P,U4,14,4Y*%
%TO.N,Net-(M2--)*%
X58420000Y-59690000D03*
%TO.P,U4,15,4A*%
%TO.N,Net-(U2-HV4)*%
X58420000Y-57150000D03*
%TO.P,U4,16,VCC1*%
%TO.N,Net-(U1-USB)*%
X58420000Y-54610000D03*
%TD*%
D17*
%TO.P,U6,1,GND*%
%TO.N,Net-(BT1--)*%
X71120000Y-91115000D03*
D18*
%TO.P,U6,2,VI*%
%TO.N,Net-(BT1-+)*%
X73660000Y-91115000D03*
%TO.P,U6,3,VO*%
%TO.N,Net-(U1-USB)*%
X76200000Y-91115000D03*
%TD*%
D14*
%TO.P,U3,1,LV1*%
%TO.N,Net-(U1-D5)*%
X88265000Y-36195000D03*
%TO.P,U3,2,LV2*%
%TO.N,Net-(U1-D6)*%
X88265000Y-38735000D03*
%TO.P,U3,3,LV*%
%TO.N,Net-(U1-3V3)*%
X88265000Y-41275000D03*
%TO.P,U3,4,GND*%
%TO.N,Net-(BT1--)*%
X88265000Y-43815000D03*
%TO.P,U3,5,LV3*%
%TO.N,Net-(U1-D7)*%
X88265000Y-46355000D03*
%TO.P,U3,6,LV4*%
%TO.N,Net-(U1-D8)*%
X88265000Y-48895000D03*
%TO.P,U3,7,HV4*%
%TO.N,Net-(U3-HV4)*%
X98425000Y-48895000D03*
%TO.P,U3,8,HV3*%
%TO.N,Net-(U3-HV3)*%
X98425000Y-46355000D03*
%TO.P,U3,9,GND*%
%TO.N,Net-(BT1--)*%
X98425000Y-43815000D03*
%TO.P,U3,10,HV*%
%TO.N,Net-(U1-USB)*%
X98425000Y-41275000D03*
%TO.P,U3,11,HV2*%
%TO.N,Net-(U3-HV2)*%
X98425000Y-38735000D03*
%TO.P,U3,12,HV1*%
%TO.N,Net-(U3-HV1)*%
X98425000Y-36195000D03*
%TD*%
%TO.P,U2,1,LV1*%
%TO.N,Net-(U1-SCL)*%
X60325000Y-49530000D03*
%TO.P,U2,2,LV2*%
%TO.N,Net-(U1-D2)*%
X60325000Y-46990000D03*
%TO.P,U2,3,LV*%
%TO.N,Net-(U1-3V3)*%
X60325000Y-44450000D03*
%TO.P,U2,4,GND*%
%TO.N,Net-(BT1--)*%
X60325000Y-41910000D03*
%TO.P,U2,5,LV3*%
%TO.N,Net-(U1-D3)*%
X60325000Y-39370000D03*
%TO.P,U2,6,LV4*%
%TO.N,Net-(U1-D4)*%
X60325000Y-36830000D03*
%TO.P,U2,7,HV4*%
%TO.N,Net-(U2-HV4)*%
X50165000Y-36830000D03*
%TO.P,U2,8,HV3*%
%TO.N,Net-(U2-HV3)*%
X50165000Y-39370000D03*
%TO.P,U2,9,GND*%
%TO.N,Net-(BT1--)*%
X50165000Y-41910000D03*
%TO.P,U2,10,HV*%
%TO.N,Net-(U1-USB)*%
X50165000Y-44450000D03*
%TO.P,U2,11,HV2*%
%TO.N,Net-(U2-HV2)*%
X50165000Y-46990000D03*
%TO.P,U2,12,HV1*%
%TO.N,Net-(U2-HV1)*%
X50165000Y-49530000D03*
%TD*%
D15*
%TO.P,M3,1,+*%
%TO.N,Net-(M3-+)*%
X90210000Y-80010000D03*
D12*
%TO.P,M3,2,-*%
%TO.N,Net-(M3--)*%
X90210000Y-77510000D03*
%TD*%
D13*
%TO.P,C6,1*%
%TO.N,Net-(U1-USB)*%
X83185000Y-95885000D03*
D10*
%TO.P,C6,2*%
%TO.N,Net-(BT1--)*%
X83185000Y-98385000D03*
%TD*%
D19*
%TO.P,BT1,1,+*%
%TO.N,Net-(BT1-+)*%
X72410000Y-100330000D03*
D20*
%TO.P,BT1,2,-*%
%TO.N,Net-(BT1--)*%
X74910000Y-100330000D03*
%TD*%
D11*
%TO.P,M2,1,+*%
%TO.N,Net-(M2-+)*%
X56515000Y-86995000D03*
D12*
%TO.P,M2,2,-*%
%TO.N,Net-(M2--)*%
X56515000Y-89495000D03*
%TD*%
D13*
%TO.P,U5,1,EN1\u002C2*%
%TO.N,Net-(U1-USB)*%
X88900000Y-53975000D03*
D16*
%TO.P,U5,2,1A*%
%TO.N,Net-(U3-HV1)*%
X88900000Y-56515000D03*
%TO.P,U5,3,1Y*%
%TO.N,Net-(M3-+)*%
X88900000Y-59055000D03*
%TO.P,U5,4,GND*%
%TO.N,Net-(BT1--)*%
X88900000Y-61595000D03*
%TO.P,U5,5,GND*%
X88900000Y-64135000D03*
%TO.P,U5,6,2Y*%
%TO.N,Net-(M3--)*%
X88900000Y-66675000D03*
%TO.P,U5,7,2A*%
%TO.N,Net-(U3-HV2)*%
X88900000Y-69215000D03*
%TO.P,U5,8,VCC2*%
%TO.N,Net-(BT1-+)*%
X88900000Y-71755000D03*
%TO.P,U5,9,EN3\u002C4*%
%TO.N,Net-(U1-USB)*%
X96520000Y-71755000D03*
%TO.P,U5,10,3A*%
%TO.N,Net-(U3-HV3)*%
X96520000Y-69215000D03*
%TO.P,U5,11,3Y*%
%TO.N,Net-(M4-+)*%
X96520000Y-66675000D03*
%TO.P,U5,12,GND*%
%TO.N,Net-(BT1--)*%
X96520000Y-64135000D03*
%TO.P,U5,13,GND*%
X96520000Y-61595000D03*
%TO.P,U5,14,4Y*%
%TO.N,Net-(M4--)*%
X96520000Y-59055000D03*
%TO.P,U5,15,4A*%
%TO.N,Net-(U3-HV4)*%
X96520000Y-56515000D03*
%TO.P,U5,16,VCC1*%
%TO.N,Net-(U1-USB)*%
X96520000Y-53975000D03*
%TD*%
D21*
%TO.N,Net-(M2--)*%
X53340000Y-71120000D03*
%TO.N,Net-(M4--)*%
X93255500Y-62865000D03*
%TO.N,Net-(U1-3V3)*%
X82550000Y-43815000D03*
%TO.N,Net-(U3-HV3)*%
X93980000Y-51435000D03*
%TD*%
D22*
%TO.N,Net-(BT1-+)*%
X70445000Y-98385000D02*
X70465000Y-98385000D01*
X50800000Y-72390000D02*
X48260000Y-74930000D01*
X54570000Y-98385000D02*
X62865000Y-98385000D01*
X73660000Y-91115000D02*
X73660000Y-95170000D01*
X48260000Y-92075000D02*
X54570000Y-98385000D01*
X73660000Y-95170000D02*
X70445000Y-98385000D01*
X62865000Y-98385000D02*
X70445000Y-98385000D01*
X70465000Y-98385000D02*
X72410000Y-100330000D01*
X48260000Y-74930000D02*
X48260000Y-92075000D01*
%TO.N,Net-(BT1--)*%
X50800000Y-62230000D02*
X50800000Y-64770000D01*
X76855000Y-98385000D02*
X74910000Y-100330000D01*
X62865000Y-95885000D02*
X66350000Y-95885000D01*
X58420000Y-62230000D02*
X58420000Y-64770000D01*
X96520000Y-64135000D02*
X88900000Y-64135000D01*
X66350000Y-95885000D02*
X71120000Y-91115000D01*
X88900000Y-64135000D02*
X88900000Y-61595000D01*
X96520000Y-64135000D02*
X96520000Y-61595000D01*
X97788604Y-43815000D02*
X98106802Y-44133198D01*
X83185000Y-98385000D02*
X76855000Y-98385000D01*
X88265000Y-43815000D02*
X97788604Y-43815000D01*
%TO.N,Net-(M1-+)*%
X50800000Y-59690000D02*
X51925000Y-60815000D01*
X56495000Y-78125000D02*
X56515000Y-78105000D01*
X51925000Y-60815000D02*
X51925000Y-76365000D01*
X50165000Y-78125000D02*
X56495000Y-78125000D01*
X51925000Y-76365000D02*
X50165000Y-78125000D01*
%TO.N,Net-(M1--)*%
X50165000Y-80625000D02*
X56495000Y-80625000D01*
X56495000Y-80625000D02*
X56515000Y-80605000D01*
%TO.N,Net-(M2-+)*%
X50165000Y-86995000D02*
X56515000Y-86995000D01*
%TO.N,Net-(M2--)*%
X53340000Y-69215000D02*
X53340000Y-71120000D01*
X53340000Y-64770000D02*
X53340000Y-69215000D01*
X50165000Y-89495000D02*
X56515000Y-89495000D01*
X58420000Y-59690000D02*
X53340000Y-64770000D01*
%TO.N,Net-(M3-+)*%
X86995000Y-60960000D02*
X86995000Y-76200000D01*
X88900000Y-59055000D02*
X86995000Y-60960000D01*
X90210000Y-79415000D02*
X90210000Y-80010000D01*
X98425000Y-80010000D02*
X90210000Y-80010000D01*
X86995000Y-76200000D02*
X90210000Y-79415000D01*
%TO.N,Net-(M3--)*%
X90210000Y-76795000D02*
X90210000Y-77510000D01*
X88900000Y-66675000D02*
X91440000Y-69215000D01*
X91440000Y-75565000D02*
X90210000Y-76795000D01*
X98425000Y-77510000D02*
X90210000Y-77510000D01*
X91440000Y-69215000D02*
X91440000Y-75565000D01*
%TO.N,Net-(M4-+)*%
X98425000Y-88880000D02*
X90190000Y-88880000D01*
X90190000Y-88880000D02*
X90170000Y-88860000D01*
%TO.N,Net-(M4--)*%
X98425000Y-86380000D02*
X90190000Y-86380000D01*
X96520000Y-59055000D02*
X93255500Y-62319500D01*
X93255500Y-62319500D02*
X93255500Y-62865000D01*
X90190000Y-86380000D02*
X90170000Y-86360000D01*
%TO.N,Net-(U1-USB)*%
X50165000Y-44450000D02*
X51252000Y-45537000D01*
X99060000Y-69215000D02*
X99060000Y-56515000D01*
X58420000Y-72390000D02*
X61412000Y-75382000D01*
X51252000Y-45537000D02*
X51252000Y-54158000D01*
X76200000Y-85725000D02*
X76200000Y-91115000D01*
X96520000Y-53975000D02*
X88900000Y-53975000D01*
X80970000Y-95885000D02*
X76200000Y-91115000D01*
X65857000Y-75382000D02*
X76200000Y-85725000D01*
X83185000Y-95885000D02*
X80970000Y-95885000D01*
X61412000Y-75382000D02*
X65857000Y-75382000D01*
X99060000Y-56515000D02*
X96520000Y-53975000D01*
X51252000Y-54158000D02*
X50800000Y-54610000D01*
X96520000Y-71755000D02*
X99060000Y-69215000D01*
%TO.N,Net-(U1-3V3)*%
X83820000Y-42728000D02*
X85090000Y-42728000D01*
X97338000Y-42728000D02*
X98425000Y-43815000D01*
X85090000Y-42728000D02*
X97338000Y-42728000D01*
X60325000Y-44450000D02*
X63500000Y-44450000D01*
X63500000Y-44450000D02*
X64135000Y-43815000D01*
X86543000Y-41275000D02*
X85090000Y-42728000D01*
X83637000Y-42728000D02*
X83820000Y-42728000D01*
X82550000Y-43815000D02*
X83637000Y-42728000D01*
X88265000Y-41275000D02*
X86543000Y-41275000D01*
%TO.N,Net-(U1-SCL)*%
X69215000Y-65405000D02*
X69215000Y-60057749D01*
X63317000Y-55062000D02*
X60325000Y-52070000D01*
X69215000Y-60057749D02*
X64219251Y-55062000D01*
X80645000Y-76835000D02*
X69215000Y-65405000D01*
X64219251Y-55062000D02*
X63317000Y-55062000D01*
X84455000Y-76835000D02*
X80645000Y-76835000D01*
X60325000Y-52070000D02*
X60325000Y-49530000D01*
%TO.N,Net-(U1-D2)*%
X81280000Y-74295000D02*
X71120000Y-64135000D01*
X84455000Y-74295000D02*
X81280000Y-74295000D01*
X71120000Y-56882749D02*
X64402251Y-50165000D01*
X63500000Y-50165000D02*
X60325000Y-46990000D01*
X71120000Y-64135000D02*
X71120000Y-56882749D01*
X64402251Y-50165000D02*
X63500000Y-50165000D01*
%TO.N,Net-(U1-D3)*%
X67945000Y-39370000D02*
X60325000Y-39370000D01*
X84455000Y-71755000D02*
X83185000Y-71755000D01*
X83185000Y-71755000D02*
X73660000Y-62230000D01*
X73660000Y-62230000D02*
X73660000Y-45085000D01*
X73660000Y-45085000D02*
X67945000Y-39370000D01*
%TO.N,Net-(U1-D4)*%
X84455000Y-69215000D02*
X75565000Y-60325000D01*
X75565000Y-43815000D02*
X68580000Y-36830000D01*
X75565000Y-60325000D02*
X75565000Y-43815000D01*
X68580000Y-36830000D02*
X60325000Y-36830000D01*
%TO.N,Net-(U1-D5)*%
X83820000Y-36195000D02*
X76835000Y-43180000D01*
X76835000Y-43180000D02*
X76835000Y-59055000D01*
X76835000Y-59055000D02*
X84455000Y-66675000D01*
X88265000Y-36195000D02*
X83820000Y-36195000D01*
%TO.N,Net-(U1-D6)*%
X78105000Y-57785000D02*
X84455000Y-64135000D01*
X78105000Y-45085000D02*
X78105000Y-57785000D01*
X88265000Y-38735000D02*
X84455000Y-38735000D01*
X84455000Y-38735000D02*
X78105000Y-45085000D01*
%TO.N,Net-(U1-D7)*%
X80645000Y-57785000D02*
X84455000Y-61595000D01*
X88265000Y-46355000D02*
X85725000Y-46355000D01*
X85725000Y-46355000D02*
X80645000Y-51435000D01*
X80645000Y-51435000D02*
X80645000Y-57785000D01*
%TO.N,Net-(U1-D8)*%
X86360000Y-57150000D02*
X84455000Y-59055000D01*
X88265000Y-51435000D02*
X86360000Y-53340000D01*
X86360000Y-53340000D02*
X86360000Y-57150000D01*
X88265000Y-48895000D02*
X88265000Y-51435000D01*
%TO.N,Net-(U2-HV4)*%
X59545000Y-53830000D02*
X59545000Y-56025000D01*
X59238000Y-45903000D02*
X59238000Y-53523000D01*
X59545000Y-56025000D02*
X58420000Y-57150000D01*
X59238000Y-53523000D02*
X59545000Y-53830000D01*
X50165000Y-36830000D02*
X59238000Y-45903000D01*
%TO.N,Net-(U2-HV3)*%
X59545000Y-58910000D02*
X59545000Y-68725000D01*
X50165000Y-39370000D02*
X57295000Y-46500000D01*
X59545000Y-68725000D02*
X58420000Y-69850000D01*
X57295000Y-57615991D02*
X58099009Y-58420000D01*
X58099009Y-58420000D02*
X59055000Y-58420000D01*
X57295000Y-46500000D02*
X57295000Y-57615991D01*
X59055000Y-58420000D02*
X59545000Y-58910000D01*
%TO.N,Net-(U2-HV2)*%
X48260000Y-48895000D02*
X48260000Y-67310000D01*
X50165000Y-46990000D02*
X48260000Y-48895000D01*
X48260000Y-67310000D02*
X50800000Y-69850000D01*
%TO.N,Net-(U2-HV1)*%
X50165000Y-49530000D02*
X48895000Y-50800000D01*
X48895000Y-50800000D02*
X48895000Y-55245000D01*
X48895000Y-55245000D02*
X50800000Y-57150000D01*
%TO.N,Net-(U3-HV3)*%
X98425000Y-46355000D02*
X97155000Y-46355000D01*
X97155000Y-46355000D02*
X93980000Y-49530000D01*
X93980000Y-49530000D02*
X93980000Y-51435000D01*
%TD*%
%TA.AperFunction,Conductor*%
%TO.N,Net-(BT1--)*%
G36*
X57117221Y-61979881D02*
G01*
X57117382Y-61980000D01*
X58104314Y-61980000D01*
X58092359Y-61991955D01*
X58034835Y-62104852D01*
X58015014Y-62230000D01*
X58034835Y-62355148D01*
X58092359Y-62468045D01*
X58104314Y-62480000D01*
X57141128Y-62480000D01*
X57193730Y-62676317D01*
X57193734Y-62676326D01*
X57289865Y-62882482D01*
X57420342Y-63068820D01*
X57581179Y-63229657D01*
X57767517Y-63360134D01*
X57826457Y-63387618D01*
X57878896Y-63433790D01*
X57898048Y-63500984D01*
X57877832Y-63567865D01*
X57826457Y-63612382D01*
X57767517Y-63639865D01*
X57581179Y-63770342D01*
X57420342Y-63931179D01*
X57289865Y-64117517D01*
X57193734Y-64323673D01*
X57193730Y-64323682D01*
X57141127Y-64519999D01*
X57141128Y-64520000D01*
X58104314Y-64520000D01*
X58092359Y-64531955D01*
X58034835Y-64644852D01*
X58015014Y-64770000D01*
X58034835Y-64895148D01*
X58092359Y-65008045D01*
X58104314Y-65020000D01*
X57141128Y-65020000D01*
X57193730Y-65216317D01*
X57193734Y-65216326D01*
X57289865Y-65422482D01*
X57420342Y-65608820D01*
X57581179Y-65769657D01*
X57767518Y-65900134D01*
X57767520Y-65900135D01*
X57825865Y-65927342D01*
X57878305Y-65973514D01*
X57897457Y-66040707D01*
X57877242Y-66107589D01*
X57825867Y-66152105D01*
X57767266Y-66179432D01*
X57767264Y-66179433D01*
X57580858Y-66309954D01*
X57419954Y-66470858D01*
X57289432Y-66657265D01*
X57289431Y-66657267D01*
X57193261Y-66863502D01*
X57193258Y-66863511D01*
X57134366Y-67083302D01*
X57134364Y-67083313D01*
X57114532Y-67309998D01*
X57114532Y-67310001D01*
X57134364Y-67536686D01*
X57134366Y-67536697D01*
X57193258Y-67756488D01*
X57193261Y-67756497D01*
X57289431Y-67962732D01*
X57289432Y-67962734D01*
X57419954Y-68149141D01*
X57580858Y-68310045D01*
X57580861Y-68310047D01*
X57767266Y-68440568D01*
X57825275Y-68467618D01*
X57877714Y-68513791D01*
X57896866Y-68580984D01*
X57876650Y-68647865D01*
X57825275Y-68692381D01*
X57818573Y-68695507D01*
X57767267Y-68719431D01*
X57767265Y-68719432D01*
X57580858Y-68849954D01*
X57419954Y-69010858D01*
X57289432Y-69197265D01*
X57289431Y-69197267D01*
X57193261Y-69403502D01*
X57193258Y-69403511D01*
X57134366Y-69623302D01*
X57134364Y-69623313D01*
X57114532Y-69849998D01*
X57114532Y-69850001D01*
X57134364Y-70076686D01*
X57134366Y-70076697D01*
X57193258Y-70296488D01*
X57193261Y-70296497D01*
X57289431Y-70502732D01*
X57289432Y-70502734D01*
X57419954Y-70689141D01*
X57580858Y-70850045D01*
X57580861Y-70850047D01*
X57767266Y-70980568D01*
X57819562Y-71004954D01*
X57825275Y-71007618D01*
X57877714Y-71053791D01*
X57896866Y-71120984D01*
X57876650Y-71187865D01*
X57825275Y-71232382D01*
X57767267Y-71259431D01*
X57767265Y-71259432D01*
X57580858Y-71389954D01*
X57419954Y-71550858D01*
X57289432Y-71737265D01*
X57289431Y-71737267D01*
X57193261Y-71943502D01*
X57193258Y-71943511D01*
X57134366Y-72163302D01*
X57134364Y-72163313D01*
X57114532Y-72389998D01*
X57114532Y-72390001D01*
X57134364Y-72616686D01*
X57134366Y-72616697D01*
X57193258Y-72836488D01*
X57193261Y-72836497D01*
X57289431Y-73042732D01*
X57289432Y-73042734D01*
X57419954Y-73229141D01*
X57580858Y-73390045D01*
X57580861Y-73390047D01*
X57767266Y-73520568D01*
X57973504Y-73616739D01*
X58193308Y-73675635D01*
X58350780Y-73689412D01*
X58419998Y-73695468D01*
X58420000Y-73695468D01*
X58420002Y-73695468D01*
X58476673Y-73690509D01*
X58646692Y-73675635D01*
X58715048Y-73657319D01*
X58784897Y-73658982D01*
X58834822Y-73689413D01*
X60911197Y-75765788D01*
X60921022Y-75778051D01*
X60921243Y-75777869D01*
X60926214Y-75783878D01*
X60952217Y-75808295D01*
X60976635Y-75831226D01*
X60997529Y-75852120D01*
X61003011Y-75856373D01*
X61007443Y-75860157D01*
X61041418Y-75892062D01*
X61058976Y-75901714D01*
X61075233Y-75912393D01*
X61091064Y-75924673D01*
X61110737Y-75933186D01*
X61133833Y-75943182D01*
X61139077Y-75945750D01*
X61179908Y-75968197D01*
X61192523Y-75971435D01*
X61199305Y-75973177D01*
X61217719Y-75979481D01*
X61236104Y-75987438D01*
X61282157Y-75994732D01*
X61287826Y-75995906D01*
X61332981Y-76007500D01*
X61353016Y-76007500D01*
X61372413Y-76009026D01*
X61392196Y-76012160D01*
X61438584Y-76007775D01*
X61444422Y-76007500D01*
X62934992Y-76007500D01*
X63002031Y-76027185D01*
X63047786Y-76079989D01*
X63057730Y-76149147D01*
X63039162Y-76196070D01*
X63040172Y-76196653D01*
X63037465Y-76201340D01*
X62944107Y-76401548D01*
X62944104Y-76401554D01*
X62886930Y-76614929D01*
X62886929Y-76614937D01*
X62867677Y-76834997D01*
X62867677Y-76835002D01*
X62886929Y-77055062D01*
X62886930Y-77055070D01*
X62944104Y-77268445D01*
X62944105Y-77268447D01*
X62944106Y-77268450D01*
X63031091Y-77454991D01*
X63037466Y-77468662D01*
X63037468Y-77468666D01*
X63164170Y-77649615D01*
X63164175Y-77649621D01*
X63320378Y-77805824D01*
X63320384Y-77805829D01*
X63501333Y-77932531D01*
X63501335Y-77932532D01*
X63501338Y-77932534D01*
X63620748Y-77988215D01*
X63630189Y-77992618D01*
X63682628Y-78038790D01*
X63701780Y-78105984D01*
X63681564Y-78172865D01*
X63630189Y-78217382D01*
X63501340Y-78277465D01*
X63501338Y-78277466D01*
X63320377Y-78404175D01*
X63164175Y-78560377D01*
X63037466Y-78741338D01*
X63037465Y-78741340D01*
X62944107Y-78941548D01*
X62944104Y-78941554D01*
X62886930Y-79154929D01*
X62886929Y-79154937D01*
X62867677Y-79374997D01*
X62867677Y-79375002D01*
X62886929Y-79595062D01*
X62886930Y-79595070D01*
X62944104Y-79808445D01*
X62944105Y-79808447D01*
X62944106Y-79808450D01*
X63024259Y-79980340D01*
X63037466Y-80008662D01*
X63037468Y-80008666D01*
X63164170Y-80189615D01*
X63164175Y-80189621D01*
X63320378Y-80345824D01*
X63320384Y-80345829D01*
X63501333Y-80472531D01*
X63501335Y-80472532D01*
X63501338Y-80472534D01*
X63701550Y-80565894D01*
X63914932Y-80623070D01*
X64057011Y-80635500D01*
X64134998Y-80642323D01*
X64135000Y-80642323D01*
X64135002Y-80642323D01*
X64190017Y-80637509D01*
X64355068Y-80623070D01*
X64568450Y-80565894D01*
X64768662Y-80472534D01*
X64949620Y-80345826D01*
X65105826Y-80189620D01*
X65232534Y-80008662D01*
X65325894Y-79808450D01*
X65383070Y-79595068D01*
X65402323Y-79375000D01*
X65400771Y-79357265D01*
X65384708Y-79173656D01*
X65383070Y-79154932D01*
X65325894Y-78941550D01*
X65232534Y-78741339D01*
X65134205Y-78600910D01*
X65105827Y-78560381D01*
X65055491Y-78510045D01*
X64949620Y-78404174D01*
X64949616Y-78404171D01*
X64949615Y-78404170D01*
X64768666Y-78277468D01*
X64768658Y-78277464D01*
X64639811Y-78217382D01*
X64587371Y-78171210D01*
X64568219Y-78104017D01*
X64588435Y-78037135D01*
X64639811Y-77992618D01*
X64645802Y-77989824D01*
X64768662Y-77932534D01*
X64949620Y-77805826D01*
X65105826Y-77649620D01*
X65232534Y-77468662D01*
X65325894Y-77268450D01*
X65383070Y-77055068D01*
X65400487Y-76855986D01*
X65402323Y-76835002D01*
X65402323Y-76834997D01*
X65391341Y-76709474D01*
X65383070Y-76614932D01*
X65325894Y-76401550D01*
X65232534Y-76201339D01*
X65232530Y-76201334D01*
X65229828Y-76196653D01*
X65231158Y-76195884D01*
X65211105Y-76136408D01*
X65228121Y-76068642D01*
X65279072Y-76020833D01*
X65335008Y-76007500D01*
X65546548Y-76007500D01*
X65613587Y-76027185D01*
X65634229Y-76043819D01*
X75538181Y-85947771D01*
X75571666Y-86009094D01*
X75574500Y-86035452D01*
X75574500Y-89679990D01*
X75554815Y-89747029D01*
X75509518Y-89789044D01*
X75402567Y-89846923D01*
X75402558Y-89846929D01*
X75268456Y-89951305D01*
X75212537Y-89994829D01*
X75212534Y-89994831D01*
X75212534Y-89994832D01*
X75198049Y-90010567D01*
X75049449Y-90171990D01*
X75033808Y-90195931D01*
X74980661Y-90241287D01*
X74911430Y-90250710D01*
X74848094Y-90221207D01*
X74826192Y-90195931D01*
X74810551Y-90171990D01*
X74647463Y-89994829D01*
X74508253Y-89886478D01*
X74457441Y-89846929D01*
X74245665Y-89732321D01*
X74245656Y-89732318D01*
X74017916Y-89654134D01*
X73821766Y-89621403D01*
X73780399Y-89614500D01*
X73539601Y-89614500D01*
X73498234Y-89621403D01*
X73302083Y-89654134D01*
X73074343Y-89732318D01*
X73074334Y-89732321D01*
X72862559Y-89846929D01*
X72719656Y-89958155D01*
X72654662Y-89983797D01*
X72586122Y-89970230D01*
X72535797Y-89921762D01*
X72527312Y-89903633D01*
X72515855Y-89872915D01*
X72515850Y-89872906D01*
X72429690Y-89757812D01*
X72429687Y-89757809D01*
X72314593Y-89671649D01*
X72314586Y-89671645D01*
X72179879Y-89621403D01*
X72179872Y-89621401D01*
X72120344Y-89615000D01*
X71370000Y-89615000D01*
X71370000Y-90623316D01*
X71341181Y-90605791D01*
X71195596Y-90565000D01*
X71082378Y-90565000D01*
X70970217Y-90580416D01*
X70870000Y-90623946D01*
X70870000Y-89615000D01*
X70119655Y-89615000D01*
X70060127Y-89621401D01*
X70060120Y-89621403D01*
X69925413Y-89671645D01*
X69925406Y-89671649D01*
X69810312Y-89757809D01*
X69810309Y-89757812D01*
X69724149Y-89872906D01*
X69724145Y-89872913D01*
X69673903Y-90007620D01*
X69673901Y-90007627D01*
X69667500Y-90067155D01*
X69667500Y-90865000D01*
X70625148Y-90865000D01*
X70576441Y-91002047D01*
X70566123Y-91152886D01*
X70596884Y-91300915D01*
X70630090Y-91365000D01*
X69667500Y-91365000D01*
X69667500Y-92162844D01*
X69673901Y-92222372D01*
X69673903Y-92222379D01*
X69724145Y-92357086D01*
X69724149Y-92357093D01*
X69810309Y-92472187D01*
X69810312Y-92472190D01*
X69925406Y-92558350D01*
X69925413Y-92558354D01*
X70060120Y-92608596D01*
X70060127Y-92608598D01*
X70119655Y-92614999D01*
X70119672Y-92615000D01*
X70870000Y-92615000D01*
X70870000Y-91606683D01*
X70898819Y-91624209D01*
X71044404Y-91665000D01*
X71157622Y-91665000D01*
X71269783Y-91649584D01*
X71370000Y-91606053D01*
X71370000Y-92615000D01*
X72120328Y-92615000D01*
X72120344Y-92614999D01*
X72179872Y-92608598D01*
X72179879Y-92608596D01*
X72314586Y-92558354D01*
X72314593Y-92558350D01*
X72429687Y-92472190D01*
X72429690Y-92472187D01*
X72515850Y-92357093D01*
X72515855Y-92357084D01*
X72527312Y-92326367D01*
X72569182Y-92270433D01*
X72634646Y-92246015D01*
X72702920Y-92260866D01*
X72719655Y-92271844D01*
X72862558Y-92383070D01*
X72862560Y-92383071D01*
X72862562Y-92383073D01*
X72969517Y-92440953D01*
X73019108Y-92490172D01*
X73034500Y-92550008D01*
X73034500Y-94859547D01*
X73014815Y-94926586D01*
X72998181Y-94947228D01*
X70222228Y-97723181D01*
X70160905Y-97756666D01*
X70134547Y-97759500D01*
X64289499Y-97759500D01*
X64222460Y-97739815D01*
X64176705Y-97687011D01*
X64165499Y-97635500D01*
X64165499Y-97537129D01*
X64165498Y-97537123D01*
X64165497Y-97537116D01*
X64159091Y-97477517D01*
X64108796Y-97342669D01*
X64108795Y-97342668D01*
X64108793Y-97342664D01*
X64022547Y-97227455D01*
X64022544Y-97227452D01*
X63907335Y-97141206D01*
X63907328Y-97141202D01*
X63772482Y-97090908D01*
X63772483Y-97090908D01*
X63712883Y-97084501D01*
X63712881Y-97084500D01*
X63712873Y-97084500D01*
X63712864Y-97084500D01*
X63709548Y-97084322D01*
X63709627Y-97082847D01*
X63648215Y-97064815D01*
X63602460Y-97012011D01*
X63594969Y-96968522D01*
X62909401Y-96282953D01*
X62990148Y-96270165D01*
X63103045Y-96212641D01*
X63192641Y-96123045D01*
X63250165Y-96010148D01*
X63262953Y-95929400D01*
X63944025Y-96610472D01*
X63995136Y-96537478D01*
X64091264Y-96331331D01*
X64091269Y-96331317D01*
X64150139Y-96111610D01*
X64150141Y-96111599D01*
X64169966Y-95885002D01*
X64169966Y-95884997D01*
X64150141Y-95658400D01*
X64150139Y-95658389D01*
X64091269Y-95438682D01*
X64091265Y-95438673D01*
X63995133Y-95232516D01*
X63995131Y-95232512D01*
X63944026Y-95159526D01*
X63944025Y-95159526D01*
X63262953Y-95840598D01*
X63250165Y-95759852D01*
X63192641Y-95646955D01*
X63103045Y-95557359D01*
X62990148Y-95499835D01*
X62909400Y-95487046D01*
X63590472Y-94805974D01*
X63590471Y-94805973D01*
X63517483Y-94754866D01*
X63517481Y-94754865D01*
X63311326Y-94658734D01*
X63311317Y-94658730D01*
X63091610Y-94599860D01*
X63091599Y-94599858D01*
X62865002Y-94580034D01*
X62864998Y-94580034D01*
X62638400Y-94599858D01*
X62638389Y-94599860D01*
X62418682Y-94658730D01*
X62418673Y-94658734D01*
X62212513Y-94754868D01*
X62139527Y-94805972D01*
X62139526Y-94805973D01*
X62820600Y-95487046D01*
X62739852Y-95499835D01*
X62626955Y-95557359D01*
X62537359Y-95646955D01*
X62479835Y-95759852D01*
X62467046Y-95840599D01*
X61785973Y-95159526D01*
X61785972Y-95159527D01*
X61734868Y-95232513D01*
X61638734Y-95438673D01*
X61638730Y-95438682D01*
X61579860Y-95658389D01*
X61579858Y-95658400D01*
X61560034Y-95884997D01*
X61560034Y-95885002D01*
X61579858Y-96111599D01*
X61579860Y-96111610D01*
X61638730Y-96331317D01*
X61638734Y-96331326D01*
X61734865Y-96537481D01*
X61734866Y-96537483D01*
X61785973Y-96610471D01*
X61785974Y-96610472D01*
X62467046Y-95929399D01*
X62479835Y-96010148D01*
X62537359Y-96123045D01*
X62626955Y-96212641D01*
X62739852Y-96270165D01*
X62820599Y-96282953D01*
X62134351Y-96969200D01*
X62124505Y-97018194D01*
X62075889Y-97068376D01*
X62020367Y-97083048D01*
X62020423Y-97084099D01*
X62020429Y-97084146D01*
X62020426Y-97084146D01*
X62020436Y-97084324D01*
X62017123Y-97084501D01*
X61957516Y-97090908D01*
X61822671Y-97141202D01*
X61822664Y-97141206D01*
X61707455Y-97227452D01*
X61707452Y-97227455D01*
X61621206Y-97342664D01*
X61621202Y-97342671D01*
X61570908Y-97477517D01*
X61564501Y-97537116D01*
X61564501Y-97537123D01*
X61564500Y-97537135D01*
X61564500Y-97635500D01*
X61544815Y-97702539D01*
X61492011Y-97748294D01*
X61440500Y-97759500D01*
X54880452Y-97759500D01*
X54813413Y-97739815D01*
X54792771Y-97723181D01*
X48921819Y-91852228D01*
X48888334Y-91790905D01*
X48885500Y-91764547D01*
X48885500Y-90328315D01*
X48905185Y-90261276D01*
X48957989Y-90215521D01*
X49027147Y-90205577D01*
X49090703Y-90234602D01*
X49111072Y-90257189D01*
X49144424Y-90304820D01*
X49164955Y-90334142D01*
X49325858Y-90495045D01*
X49325861Y-90495047D01*
X49512266Y-90625568D01*
X49718504Y-90721739D01*
X49938308Y-90780635D01*
X50100230Y-90794801D01*
X50164998Y-90800468D01*
X50165000Y-90800468D01*
X50165002Y-90800468D01*
X50221673Y-90795509D01*
X50391692Y-90780635D01*
X50611496Y-90721739D01*
X50817734Y-90625568D01*
X51004139Y-90495047D01*
X51165047Y-90334139D01*
X51258973Y-90199998D01*
X51277613Y-90173377D01*
X51332189Y-90129752D01*
X51379188Y-90120500D01*
X55089773Y-90120500D01*
X55156812Y-90140185D01*
X55191348Y-90173377D01*
X55326505Y-90366402D01*
X55493597Y-90533494D01*
X55687169Y-90669034D01*
X55687171Y-90669035D01*
X55901337Y-90768903D01*
X56129592Y-90830063D01*
X56306034Y-90845500D01*
X56723966Y-90845500D01*
X56900408Y-90830063D01*
X57128663Y-90768903D01*
X57342829Y-90669035D01*
X57536401Y-90533495D01*
X57703495Y-90366401D01*
X57839035Y-90172830D01*
X57938903Y-89958663D01*
X58000063Y-89730408D01*
X58020659Y-89495000D01*
X58000063Y-89259592D01*
X57938903Y-89031337D01*
X57839035Y-88817171D01*
X57839034Y-88817169D01*
X57703494Y-88623597D01*
X57556295Y-88476398D01*
X57522810Y-88415075D01*
X57527794Y-88345383D01*
X57569666Y-88289450D01*
X57578880Y-88283178D01*
X57584334Y-88279814D01*
X57733656Y-88187712D01*
X57857712Y-88063656D01*
X57949814Y-87914334D01*
X58004999Y-87747797D01*
X58015500Y-87645009D01*
X58015499Y-86344992D01*
X58004999Y-86242203D01*
X57949814Y-86075666D01*
X57857712Y-85926344D01*
X57733656Y-85802288D01*
X57586722Y-85711659D01*
X57584336Y-85710187D01*
X57584331Y-85710185D01*
X57581853Y-85709364D01*
X57417797Y-85655001D01*
X57417795Y-85655000D01*
X57315010Y-85644500D01*
X55714998Y-85644500D01*
X55714981Y-85644501D01*
X55612203Y-85655000D01*
X55612199Y-85655001D01*
X55512783Y-85687945D01*
X55442954Y-85690347D01*
X55382913Y-85654615D01*
X55351720Y-85592094D01*
X55351413Y-85550177D01*
X55352941Y-85540861D01*
X55369260Y-85441317D01*
X55359245Y-85256593D01*
X55357257Y-85249432D01*
X55309755Y-85078343D01*
X55309752Y-85078337D01*
X55223101Y-84914897D01*
X55103337Y-84773900D01*
X55024449Y-84713931D01*
X54956064Y-84661946D01*
X54788167Y-84584268D01*
X54788163Y-84584266D01*
X54607497Y-84544500D01*
X54468887Y-84544500D01*
X54468883Y-84544500D01*
X54331088Y-84559486D01*
X54155776Y-84618557D01*
X54155774Y-84618558D01*
X53997262Y-84713931D01*
X53997261Y-84713932D01*
X53862959Y-84841149D01*
X53759138Y-84994276D01*
X53690669Y-85166122D01*
X53677011Y-85249432D01*
X53662397Y-85338580D01*
X53660740Y-85348685D01*
X53670755Y-85533406D01*
X53670755Y-85533411D01*
X53720244Y-85711656D01*
X53720247Y-85711662D01*
X53806898Y-85875102D01*
X53908701Y-85994954D01*
X53926663Y-86016100D01*
X54073936Y-86128054D01*
X54084543Y-86132961D01*
X54137120Y-86178975D01*
X54156474Y-86246111D01*
X54136460Y-86313053D01*
X54083431Y-86358547D01*
X54032476Y-86369500D01*
X51379188Y-86369500D01*
X51312149Y-86349815D01*
X51277613Y-86316623D01*
X51165045Y-86155858D01*
X51004141Y-85994954D01*
X50817734Y-85864432D01*
X50817732Y-85864431D01*
X50611497Y-85768261D01*
X50611488Y-85768258D01*
X50391697Y-85709366D01*
X50391693Y-85709365D01*
X50391692Y-85709365D01*
X50391691Y-85709364D01*
X50391686Y-85709364D01*
X50165002Y-85689532D01*
X50164998Y-85689532D01*
X49938313Y-85709364D01*
X49938302Y-85709366D01*
X49718511Y-85768258D01*
X49718502Y-85768261D01*
X49512267Y-85864431D01*
X49512265Y-85864432D01*
X49325858Y-85994954D01*
X49164954Y-86155858D01*
X49111075Y-86232807D01*
X49056499Y-86276432D01*
X48987000Y-86283626D01*
X48924645Y-86252103D01*
X48889231Y-86191874D01*
X48885500Y-86161684D01*
X48885500Y-81458315D01*
X48905185Y-81391276D01*
X48957989Y-81345521D01*
X49027147Y-81335577D01*
X49090703Y-81364602D01*
X49111072Y-81387189D01*
X49158007Y-81454219D01*
X49164955Y-81464142D01*
X49325858Y-81625045D01*
X49325861Y-81625047D01*
X49512266Y-81755568D01*
X49718504Y-81851739D01*
X49938308Y-81910635D01*
X50100230Y-81924801D01*
X50164998Y-81930468D01*
X50165000Y-81930468D01*
X50165002Y-81930468D01*
X50221673Y-81925509D01*
X50391692Y-81910635D01*
X50611496Y-81851739D01*
X50817734Y-81755568D01*
X51004139Y-81625047D01*
X51165047Y-81464139D01*
X51277613Y-81303377D01*
X51332189Y-81259752D01*
X51379188Y-81250500D01*
X55103778Y-81250500D01*
X55170817Y-81270185D01*
X55205353Y-81303377D01*
X55326506Y-81476403D01*
X55493597Y-81643494D01*
X55687169Y-81779034D01*
X55687171Y-81779035D01*
X55901337Y-81878903D01*
X56129592Y-81940063D01*
X56306034Y-81955500D01*
X56723966Y-81955500D01*
X56900408Y-81940063D01*
X57128663Y-81878903D01*
X57342829Y-81779035D01*
X57536401Y-81643495D01*
X57703495Y-81476401D01*
X57839035Y-81282830D01*
X57938903Y-81068663D01*
X58000063Y-80840408D01*
X58020659Y-80605000D01*
X58000063Y-80369592D01*
X57938903Y-80141337D01*
X57839035Y-79927171D01*
X57839034Y-79927169D01*
X57703494Y-79733597D01*
X57556295Y-79586398D01*
X57522810Y-79525075D01*
X57527794Y-79455383D01*
X57569666Y-79399450D01*
X57578880Y-79393178D01*
X57592949Y-79384500D01*
X57733656Y-79297712D01*
X57857712Y-79173656D01*
X57949814Y-79024334D01*
X58004999Y-78857797D01*
X58015500Y-78755009D01*
X58015499Y-77454992D01*
X58014279Y-77443053D01*
X58004999Y-77352203D01*
X58004998Y-77352200D01*
X57992062Y-77313161D01*
X57949814Y-77185666D01*
X57857712Y-77036344D01*
X57733656Y-76912288D01*
X57608355Y-76835002D01*
X57584336Y-76820187D01*
X57584331Y-76820185D01*
X57524515Y-76800364D01*
X57417797Y-76765001D01*
X57417795Y-76765000D01*
X57315010Y-76754500D01*
X55714998Y-76754500D01*
X55714981Y-76754501D01*
X55612203Y-76765000D01*
X55612199Y-76765001D01*
X55512783Y-76797945D01*
X55442954Y-76800347D01*
X55382913Y-76764615D01*
X55351720Y-76702094D01*
X55351413Y-76660177D01*
X55354163Y-76643407D01*
X55369260Y-76551317D01*
X55359245Y-76366593D01*
X55356524Y-76356791D01*
X55309755Y-76188343D01*
X55309752Y-76188337D01*
X55223101Y-76024897D01*
X55103337Y-75883900D01*
X55077388Y-75864174D01*
X54956064Y-75771946D01*
X54788167Y-75694268D01*
X54788163Y-75694266D01*
X54607497Y-75654500D01*
X54468887Y-75654500D01*
X54468883Y-75654500D01*
X54331088Y-75669486D01*
X54155776Y-75728557D01*
X54155774Y-75728558D01*
X53997262Y-75823931D01*
X53997261Y-75823932D01*
X53862959Y-75951149D01*
X53759138Y-76104276D01*
X53690669Y-76276122D01*
X53680702Y-76336918D01*
X53668029Y-76414226D01*
X53660740Y-76458685D01*
X53670755Y-76643406D01*
X53670755Y-76643411D01*
X53720244Y-76821656D01*
X53720247Y-76821662D01*
X53806898Y-76985102D01*
X53926662Y-77126099D01*
X53926663Y-77126100D01*
X54073936Y-77238054D01*
X54127772Y-77262961D01*
X54180349Y-77308975D01*
X54199703Y-77376111D01*
X54179689Y-77443053D01*
X54126660Y-77488547D01*
X54075705Y-77499500D01*
X51974453Y-77499500D01*
X51907414Y-77479815D01*
X51861659Y-77427011D01*
X51851715Y-77357853D01*
X51880740Y-77294297D01*
X51886772Y-77287819D01*
X52196341Y-76978249D01*
X52308788Y-76865801D01*
X52321042Y-76855986D01*
X52320859Y-76855764D01*
X52326866Y-76850792D01*
X52326877Y-76850786D01*
X52357775Y-76817882D01*
X52374227Y-76800364D01*
X52384671Y-76789918D01*
X52395120Y-76779471D01*
X52399379Y-76773978D01*
X52403152Y-76769561D01*
X52435062Y-76735582D01*
X52444715Y-76718020D01*
X52455389Y-76701770D01*
X52467673Y-76685936D01*
X52486180Y-76643167D01*
X52488749Y-76637924D01*
X52511196Y-76597093D01*
X52511197Y-76597092D01*
X52516177Y-76577691D01*
X52522478Y-76559288D01*
X52530438Y-76540896D01*
X52537730Y-76494849D01*
X52538911Y-76489152D01*
X52539951Y-76485103D01*
X52550500Y-76444019D01*
X52550500Y-76423983D01*
X52552027Y-76404582D01*
X52555160Y-76384804D01*
X52550775Y-76338415D01*
X52550500Y-76332577D01*
X52550500Y-71902837D01*
X52570185Y-71835798D01*
X52622989Y-71790043D01*
X52692147Y-71780099D01*
X52747385Y-71802519D01*
X52887265Y-71904148D01*
X52887270Y-71904151D01*
X53060192Y-71981142D01*
X53060197Y-71981144D01*
X53245354Y-72020500D01*
X53245355Y-72020500D01*
X53434644Y-72020500D01*
X53434646Y-72020500D01*
X53619803Y-71981144D01*
X53792730Y-71904151D01*
X53945871Y-71792888D01*
X54072533Y-71652216D01*
X54167179Y-71488284D01*
X54225674Y-71308256D01*
X54245460Y-71120000D01*
X54225674Y-70931744D01*
X54167179Y-70751716D01*
X54072533Y-70587784D01*
X54039602Y-70551210D01*
X53997350Y-70504284D01*
X53967120Y-70441292D01*
X53965500Y-70421312D01*
X53965500Y-65080451D01*
X53985185Y-65013412D01*
X54001814Y-64992775D01*
X56986210Y-62008379D01*
X57047529Y-61974897D01*
X57117221Y-61979881D01*
G37*
%TD.AperFunction*%
%TA.AperFunction,Conductor*%
G36*
X67701587Y-40015185D02*
G01*
X67722229Y-40031819D01*
X72998181Y-45307771D01*
X73031666Y-45369094D01*
X73034500Y-45395452D01*
X73034500Y-62147255D01*
X73032775Y-62162872D01*
X73033061Y-62162899D01*
X73032326Y-62170665D01*
X73034500Y-62239814D01*
X73034500Y-62269343D01*
X73034501Y-62269360D01*
X73035368Y-62276231D01*
X73035826Y-62282050D01*
X73037290Y-62328624D01*
X73037291Y-62328627D01*
X73042880Y-62347867D01*
X73046824Y-62366911D01*
X73049336Y-62386792D01*
X73066490Y-62430119D01*
X73068382Y-62435647D01*
X73081268Y-62480000D01*
X73081382Y-62480390D01*
X73091040Y-62496722D01*
X73091580Y-62497634D01*
X73100136Y-62515100D01*
X73107514Y-62533732D01*
X73130831Y-62565826D01*
X73134898Y-62571423D01*
X73138106Y-62576307D01*
X73161827Y-62616416D01*
X73161833Y-62616424D01*
X73175990Y-62630580D01*
X73188628Y-62645376D01*
X73200405Y-62661586D01*
X73200406Y-62661587D01*
X73236309Y-62691288D01*
X73240620Y-62695210D01*
X80394071Y-69848662D01*
X82684197Y-72138788D01*
X82694022Y-72151051D01*
X82694243Y-72150869D01*
X82699214Y-72156878D01*
X82725217Y-72181295D01*
X82749635Y-72204226D01*
X82770529Y-72225120D01*
X82776011Y-72229373D01*
X82780443Y-72233157D01*
X82814418Y-72265062D01*
X82831976Y-72274714D01*
X82848235Y-72285395D01*
X82864064Y-72297673D01*
X82906838Y-72316182D01*
X82912056Y-72318738D01*
X82952908Y-72341197D01*
X82972316Y-72346180D01*
X82990717Y-72352480D01*
X83009104Y-72360437D01*
X83052488Y-72367308D01*
X83055119Y-72367725D01*
X83060839Y-72368909D01*
X83105981Y-72380500D01*
X83126016Y-72380500D01*
X83145414Y-72382026D01*
X83165194Y-72385159D01*
X83165195Y-72385160D01*
X83165195Y-72385159D01*
X83165196Y-72385160D01*
X83211584Y-72380775D01*
X83217422Y-72380500D01*
X83287200Y-72380500D01*
X83354239Y-72400185D01*
X83388775Y-72433376D01*
X83484174Y-72569620D01*
X83484175Y-72569621D01*
X83640378Y-72725824D01*
X83640384Y-72725829D01*
X83821333Y-72852531D01*
X83821335Y-72852532D01*
X83821338Y-72852534D01*
X83892178Y-72885567D01*
X83950189Y-72912618D01*
X84002628Y-72958790D01*
X84021780Y-73025984D01*
X84001564Y-73092865D01*
X83950189Y-73137382D01*
X83821340Y-73197465D01*
X83821338Y-73197466D01*
X83640377Y-73324175D01*
X83484175Y-73480377D01*
X83388776Y-73616623D01*
X83334199Y-73660248D01*
X83287201Y-73669500D01*
X81590452Y-73669500D01*
X81523413Y-73649815D01*
X81502771Y-73633181D01*
X71781819Y-63912228D01*
X71748334Y-63850905D01*
X71745500Y-63824547D01*
X71745500Y-56965491D01*
X71747224Y-56949871D01*
X71746939Y-56949844D01*
X71747673Y-56942082D01*
X71745500Y-56872921D01*
X71745500Y-56843405D01*
X71745500Y-56843399D01*
X71744631Y-56836528D01*
X71744173Y-56830701D01*
X71743180Y-56799094D01*
X71742710Y-56784122D01*
X71737119Y-56764879D01*
X71733173Y-56745827D01*
X71730664Y-56725957D01*
X71713504Y-56682616D01*
X71711624Y-56677128D01*
X71698618Y-56632359D01*
X71688422Y-56615119D01*
X71679861Y-56597643D01*
X71672487Y-56579019D01*
X71672486Y-56579017D01*
X71645079Y-56541294D01*
X71641888Y-56536435D01*
X71635602Y-56525806D01*
X71625975Y-56509526D01*
X71618172Y-56496332D01*
X71618165Y-56496323D01*
X71604006Y-56482164D01*
X71591368Y-56467368D01*
X71590277Y-56465866D01*
X71579594Y-56451162D01*
X71543688Y-56421458D01*
X71539376Y-56417535D01*
X64903054Y-49781212D01*
X64893231Y-49768950D01*
X64893010Y-49769134D01*
X64888037Y-49763123D01*
X64874135Y-49750068D01*
X64837615Y-49715773D01*
X64827170Y-49705328D01*
X64816726Y-49694883D01*
X64811237Y-49690625D01*
X64806812Y-49686847D01*
X64772833Y-49654938D01*
X64772831Y-49654936D01*
X64772828Y-49654935D01*
X64755280Y-49645288D01*
X64739014Y-49634604D01*
X64723184Y-49622325D01*
X64680419Y-49603818D01*
X64675173Y-49601248D01*
X64634344Y-49578803D01*
X64634343Y-49578802D01*
X64614944Y-49573822D01*
X64596532Y-49567518D01*
X64578149Y-49559562D01*
X64578143Y-49559560D01*
X64532125Y-49552272D01*
X64526403Y-49551087D01*
X64481272Y-49539500D01*
X64481270Y-49539500D01*
X64477308Y-49539500D01*
X64474318Y-49538622D01*
X64473533Y-49538523D01*
X64473549Y-49538396D01*
X64410269Y-49519815D01*
X64389627Y-49503181D01*
X64162447Y-49276000D01*
X64166569Y-49276000D01*
X64260421Y-49260339D01*
X64372251Y-49199820D01*
X64458371Y-49106269D01*
X64509448Y-48989823D01*
X64515105Y-48921552D01*
X65186740Y-49593187D01*
X65186742Y-49593186D01*
X65232093Y-49528420D01*
X65232100Y-49528408D01*
X65325419Y-49328284D01*
X65325424Y-49328270D01*
X65382573Y-49114986D01*
X65382575Y-49114976D01*
X65401821Y-48895000D01*
X65401821Y-48894999D01*
X65382575Y-48675023D01*
X65382573Y-48675013D01*
X65325424Y-48461729D01*
X65325420Y-48461720D01*
X65232098Y-48261590D01*
X65186740Y-48196811D01*
X64519903Y-48863648D01*
X64519949Y-48863102D01*
X64488734Y-48739838D01*
X64419187Y-48633388D01*
X64318843Y-48555287D01*
X64198578Y-48514000D01*
X64162447Y-48514000D01*
X64833187Y-47843258D01*
X64768409Y-47797900D01*
X64768407Y-47797899D01*
X64639219Y-47737658D01*
X64586779Y-47691486D01*
X64567627Y-47624293D01*
X64587843Y-47557411D01*
X64639219Y-47512894D01*
X64639811Y-47512618D01*
X64768662Y-47452534D01*
X64949620Y-47325826D01*
X65105826Y-47169620D01*
X65232534Y-46988662D01*
X65325894Y-46788450D01*
X65383070Y-46575068D01*
X65402323Y-46355000D01*
X65401291Y-46343209D01*
X65393102Y-46249606D01*
X65383070Y-46134932D01*
X65325894Y-45921550D01*
X65232534Y-45721339D01*
X65145005Y-45596334D01*
X65105827Y-45540381D01*
X65050391Y-45484945D01*
X64949620Y-45384174D01*
X64949616Y-45384171D01*
X64949615Y-45384170D01*
X64768666Y-45257468D01*
X64768658Y-45257464D01*
X64639811Y-45197382D01*
X64587371Y-45151210D01*
X64568219Y-45084017D01*
X64588435Y-45017135D01*
X64639811Y-44972618D01*
X64651571Y-44967134D01*
X64768662Y-44912534D01*
X64949620Y-44785826D01*
X65105826Y-44629620D01*
X65232534Y-44448662D01*
X65325894Y-44248450D01*
X65383070Y-44035068D01*
X65402323Y-43815000D01*
X65399532Y-43783102D01*
X65388606Y-43658208D01*
X65383070Y-43594932D01*
X65325894Y-43381550D01*
X65232534Y-43181339D01*
X65152713Y-43067342D01*
X65105827Y-43000381D01*
X65053352Y-42947906D01*
X64949620Y-42844174D01*
X64949616Y-42844171D01*
X64949615Y-42844170D01*
X64768666Y-42717468D01*
X64768658Y-42717464D01*
X64639811Y-42657382D01*
X64587371Y-42611210D01*
X64568219Y-42544017D01*
X64588435Y-42477135D01*
X64639811Y-42432618D01*
X64645802Y-42429824D01*
X64768662Y-42372534D01*
X64949620Y-42245826D01*
X65105826Y-42089620D01*
X65232534Y-41908662D01*
X65325894Y-41708450D01*
X65383070Y-41495068D01*
X65402323Y-41275000D01*
X65383070Y-41054932D01*
X65325894Y-40841550D01*
X65232534Y-40641339D01*
X65169180Y-40550859D01*
X65105827Y-40460381D01*
X65105823Y-40460377D01*
X64949620Y-40304174D01*
X64830941Y-40221074D01*
X64787318Y-40166498D01*
X64780125Y-40096999D01*
X64811647Y-40034645D01*
X64871877Y-39999231D01*
X64902066Y-39995500D01*
X67634548Y-39995500D01*
X67701587Y-40015185D01*
G37*
%TD.AperFunction*%
%TA.AperFunction,Conductor*%
G36*
X98017862Y-56359655D02*
G01*
X98032818Y-56372409D01*
X98398181Y-56737771D01*
X98431666Y-56799094D01*
X98434500Y-56825452D01*
X98434500Y-68904546D01*
X98414815Y-68971585D01*
X98398181Y-68992227D01*
X98032818Y-69357589D01*
X97971495Y-69391074D01*
X97901803Y-69386090D01*
X97845870Y-69344218D01*
X97821453Y-69278754D01*
X97821608Y-69259109D01*
X97825468Y-69215000D01*
X97823916Y-69197266D01*
X97813489Y-69078084D01*
X97805635Y-68988308D01*
X97756254Y-68804016D01*
X97746741Y-68768511D01*
X97746738Y-68768502D01*
X97739842Y-68753713D01*
X97650568Y-68562266D01*
X97520047Y-68375861D01*
X97520045Y-68375858D01*
X97359141Y-68214954D01*
X97172734Y-68084432D01*
X97172728Y-68084429D01*
X97114725Y-68057382D01*
X97062285Y-68011210D01*
X97043133Y-67944017D01*
X97063348Y-67877135D01*
X97114725Y-67832618D01*
X97172734Y-67805568D01*
X97359139Y-67675047D01*
X97520047Y-67514139D01*
X97650568Y-67327734D01*
X97746739Y-67121496D01*
X97805635Y-66901692D01*
X97825468Y-66675000D01*
X97823916Y-66657266D01*
X97807608Y-66470861D01*
X97805635Y-66448308D01*
X97746739Y-66228504D01*
X97650568Y-66022266D01*
X97520047Y-65835861D01*
X97520045Y-65835858D01*
X97359141Y-65674954D01*
X97172734Y-65544432D01*
X97172732Y-65544431D01*
X97146573Y-65532233D01*
X97114132Y-65517105D01*
X97061694Y-65470934D01*
X97042542Y-65403740D01*
X97062758Y-65336859D01*
X97114134Y-65292341D01*
X97172484Y-65265132D01*
X97358820Y-65134657D01*
X97519657Y-64973820D01*
X97650134Y-64787482D01*
X97746265Y-64581326D01*
X97746269Y-64581317D01*
X97798872Y-64385000D01*
X96835686Y-64385000D01*
X96847641Y-64373045D01*
X96905165Y-64260148D01*
X96924986Y-64135000D01*
X96905165Y-64009852D01*
X96847641Y-63896955D01*
X96835686Y-63885000D01*
X97798872Y-63885000D01*
X97798872Y-63884999D01*
X97746269Y-63688682D01*
X97746265Y-63688673D01*
X97650134Y-63482517D01*
X97519657Y-63296179D01*
X97358820Y-63135342D01*
X97172481Y-63004865D01*
X97172479Y-63004864D01*
X97113543Y-62977382D01*
X97061103Y-62931210D01*
X97041951Y-62864017D01*
X97062166Y-62797136D01*
X97113543Y-62752618D01*
X97172479Y-62725135D01*
X97172481Y-62725134D01*
X97358820Y-62594657D01*
X97519657Y-62433820D01*
X97650134Y-62247482D01*
X97746265Y-62041326D01*
X97746269Y-62041317D01*
X97798872Y-61845000D01*
X96835686Y-61845000D01*
X96847641Y-61833045D01*
X96905165Y-61720148D01*
X96924986Y-61595000D01*
X96905165Y-61469852D01*
X96847641Y-61356955D01*
X96835686Y-61345000D01*
X97798872Y-61345000D01*
X97798872Y-61344999D01*
X97746269Y-61148682D01*
X97746265Y-61148673D01*
X97650134Y-60942517D01*
X97519657Y-60756179D01*
X97358820Y-60595342D01*
X97172482Y-60464865D01*
X97114133Y-60437657D01*
X97061694Y-60391484D01*
X97042542Y-60324291D01*
X97062758Y-60257410D01*
X97114129Y-60212895D01*
X97172734Y-60185568D01*
X97359139Y-60055047D01*
X97520047Y-59894139D01*
X97650568Y-59707734D01*
X97746739Y-59501496D01*
X97805635Y-59281692D01*
X97825468Y-59055000D01*
X97823916Y-59037266D01*
X97808484Y-58860876D01*
X97805635Y-58828308D01*
X97746739Y-58608504D01*
X97650568Y-58402266D01*
X97520047Y-58215861D01*
X97520045Y-58215858D01*
X97359141Y-58054954D01*
X97172734Y-57924432D01*
X97172728Y-57924429D01*
X97145038Y-57911517D01*
X97114724Y-57897381D01*
X97062285Y-57851210D01*
X97043133Y-57784017D01*
X97063348Y-57717135D01*
X97114725Y-57672618D01*
X97172734Y-57645568D01*
X97359139Y-57515047D01*
X97520047Y-57354139D01*
X97650568Y-57167734D01*
X97746739Y-56961496D01*
X97805635Y-56741692D01*
X97825468Y-56515000D01*
X97821609Y-56470896D01*
X97835375Y-56402399D01*
X97883989Y-56352215D01*
X97952018Y-56336281D01*
X98017862Y-56359655D01*
G37*
%TD.AperFunction*%
%TA.AperFunction,Conductor*%
G36*
X49090703Y-56325739D02*
G01*
X49097176Y-56331766D01*
X49301844Y-56536435D01*
X49500586Y-56735177D01*
X49534071Y-56796500D01*
X49532680Y-56854949D01*
X49514367Y-56923296D01*
X49514364Y-56923313D01*
X49494532Y-57149999D01*
X49494532Y-57150001D01*
X49514364Y-57376686D01*
X49514366Y-57376697D01*
X49573258Y-57596488D01*
X49573261Y-57596497D01*
X49669431Y-57802732D01*
X49669432Y-57802734D01*
X49799954Y-57989141D01*
X49960858Y-58150045D01*
X49960861Y-58150047D01*
X50147266Y-58280568D01*
X50205275Y-58307618D01*
X50257714Y-58353791D01*
X50276866Y-58420984D01*
X50256650Y-58487865D01*
X50205275Y-58532382D01*
X50147267Y-58559431D01*
X50147265Y-58559432D01*
X49960858Y-58689954D01*
X49799954Y-58850858D01*
X49669432Y-59037265D01*
X49669431Y-59037267D01*
X49573261Y-59243502D01*
X49573258Y-59243511D01*
X49514366Y-59463302D01*
X49514364Y-59463313D01*
X49494532Y-59689998D01*
X49494532Y-59690001D01*
X49514364Y-59916686D01*
X49514366Y-59916697D01*
X49573258Y-60136488D01*
X49573261Y-60136497D01*
X49669431Y-60342732D01*
X49669432Y-60342734D01*
X49799954Y-60529141D01*
X49960858Y-60690045D01*
X49960861Y-60690047D01*
X50147266Y-60820568D01*
X50205865Y-60847893D01*
X50258305Y-60894065D01*
X50277457Y-60961258D01*
X50257242Y-61028139D01*
X50205867Y-61072657D01*
X50147515Y-61099867D01*
X49961179Y-61230342D01*
X49800342Y-61391179D01*
X49669865Y-61577517D01*
X49573734Y-61783673D01*
X49573730Y-61783682D01*
X49521127Y-61979999D01*
X49521128Y-61980000D01*
X50484314Y-61980000D01*
X50472359Y-61991955D01*
X50414835Y-62104852D01*
X50395014Y-62230000D01*
X50414835Y-62355148D01*
X50472359Y-62468045D01*
X50484314Y-62480000D01*
X49521128Y-62480000D01*
X49573730Y-62676317D01*
X49573734Y-62676326D01*
X49669865Y-62882482D01*
X49800342Y-63068820D01*
X49961179Y-63229657D01*
X50147517Y-63360134D01*
X50206457Y-63387618D01*
X50258896Y-63433790D01*
X50278048Y-63500984D01*
X50257832Y-63567865D01*
X50206457Y-63612382D01*
X50147517Y-63639865D01*
X49961179Y-63770342D01*
X49800342Y-63931179D01*
X49669865Y-64117517D01*
X49573734Y-64323673D01*
X49573730Y-64323682D01*
X49521127Y-64519999D01*
X49521128Y-64520000D01*
X50484314Y-64520000D01*
X50472359Y-64531955D01*
X50414835Y-64644852D01*
X50395014Y-64770000D01*
X50414835Y-64895148D01*
X50472359Y-65008045D01*
X50484314Y-65020000D01*
X49521128Y-65020000D01*
X49573730Y-65216317D01*
X49573734Y-65216326D01*
X49669865Y-65422482D01*
X49800342Y-65608820D01*
X49961179Y-65769657D01*
X50147518Y-65900134D01*
X50147520Y-65900135D01*
X50205865Y-65927342D01*
X50258305Y-65973514D01*
X50277457Y-66040707D01*
X50257242Y-66107589D01*
X50205867Y-66152105D01*
X50147266Y-66179432D01*
X50147264Y-66179433D01*
X49960858Y-66309954D01*
X49799954Y-66470858D01*
X49669432Y-66657265D01*
X49669431Y-66657267D01*
X49573261Y-66863502D01*
X49573258Y-66863511D01*
X49514366Y-67083302D01*
X49514364Y-67083313D01*
X49494532Y-67309998D01*
X49494532Y-67310002D01*
X49498390Y-67354102D01*
X49484623Y-67422602D01*
X49436008Y-67472785D01*
X49367979Y-67488718D01*
X49302135Y-67465342D01*
X49287181Y-67452590D01*
X48921819Y-67087228D01*
X48888334Y-67025905D01*
X48885500Y-66999547D01*
X48885500Y-56419452D01*
X48905185Y-56352413D01*
X48957989Y-56306658D01*
X49027147Y-56296714D01*
X49090703Y-56325739D01*
G37*
%TD.AperFunction*%
%TA.AperFunction,Conductor*%
G36*
X51620511Y-41712303D02*
G01*
X51635466Y-41725056D01*
X56633181Y-46722771D01*
X56666666Y-46784094D01*
X56669500Y-46810452D01*
X56669500Y-57533246D01*
X56667775Y-57548863D01*
X56668061Y-57548890D01*
X56667326Y-57556656D01*
X56669500Y-57625805D01*
X56669500Y-57655334D01*
X56669501Y-57655351D01*
X56670368Y-57662222D01*
X56670826Y-57668041D01*
X56672290Y-57714615D01*
X56673022Y-57717135D01*
X56677880Y-57733858D01*
X56681824Y-57752902D01*
X56684336Y-57772783D01*
X56701490Y-57816110D01*
X56703382Y-57821638D01*
X56716381Y-57866379D01*
X56726580Y-57883625D01*
X56735138Y-57901094D01*
X56742514Y-57919723D01*
X56769898Y-57957414D01*
X56773106Y-57962298D01*
X56796827Y-58002407D01*
X56796833Y-58002415D01*
X56810990Y-58016571D01*
X56823627Y-58031366D01*
X56835406Y-58047578D01*
X56862634Y-58070103D01*
X56871309Y-58077279D01*
X56875620Y-58081201D01*
X57171158Y-58376739D01*
X57444934Y-58650515D01*
X57478419Y-58711838D01*
X57473435Y-58781530D01*
X57444937Y-58825874D01*
X57419954Y-58850858D01*
X57289432Y-59037265D01*
X57289431Y-59037267D01*
X57193261Y-59243502D01*
X57193258Y-59243511D01*
X57134366Y-59463302D01*
X57134364Y-59463313D01*
X57116165Y-59671332D01*
X57114532Y-59690000D01*
X57134364Y-59916686D01*
X57134365Y-59916691D01*
X57134366Y-59916697D01*
X57152680Y-59985048D01*
X57151017Y-60054897D01*
X57120586Y-60104821D01*
X52956208Y-64269199D01*
X52943951Y-64279020D01*
X52944134Y-64279241D01*
X52938123Y-64284213D01*
X52890772Y-64334636D01*
X52869889Y-64355519D01*
X52869877Y-64355532D01*
X52865621Y-64361017D01*
X52861837Y-64365447D01*
X52829937Y-64399418D01*
X52829936Y-64399420D01*
X52820284Y-64416976D01*
X52809610Y-64433226D01*
X52797329Y-64449061D01*
X52797323Y-64449071D01*
X52788300Y-64469921D01*
X52743609Y-64523628D01*
X52676976Y-64544647D01*
X52609557Y-64526305D01*
X52562757Y-64474425D01*
X52550500Y-64420672D01*
X52550500Y-60897737D01*
X52552224Y-60882123D01*
X52551938Y-60882096D01*
X52552672Y-60874333D01*
X52550500Y-60805203D01*
X52550500Y-60775651D01*
X52550500Y-60775650D01*
X52549629Y-60768759D01*
X52549172Y-60762945D01*
X52548959Y-60756179D01*
X52547709Y-60716373D01*
X52542122Y-60697144D01*
X52538174Y-60678084D01*
X52537001Y-60668796D01*
X52535664Y-60658208D01*
X52518507Y-60614875D01*
X52516619Y-60609359D01*
X52503619Y-60564612D01*
X52493418Y-60547363D01*
X52484860Y-60529894D01*
X52477486Y-60511268D01*
X52477483Y-60511264D01*
X52477483Y-60511263D01*
X52450098Y-60473571D01*
X52446890Y-60468687D01*
X52423172Y-60428582D01*
X52423163Y-60428571D01*
X52409005Y-60414413D01*
X52396370Y-60399620D01*
X52384593Y-60383412D01*
X52348693Y-60353713D01*
X52344381Y-60349790D01*
X52099412Y-60104821D01*
X52065928Y-60043499D01*
X52067319Y-59985048D01*
X52079418Y-59939893D01*
X52085635Y-59916692D01*
X52103593Y-59711435D01*
X52105468Y-59690001D01*
X52105468Y-59689998D01*
X52088975Y-59501488D01*
X52085635Y-59463308D01*
X52031049Y-59259588D01*
X52026741Y-59243511D01*
X52026738Y-59243502D01*
X52010838Y-59209405D01*
X51930568Y-59037266D01*
X51832839Y-58897693D01*
X51800045Y-58850858D01*
X51639141Y-58689954D01*
X51452734Y-58559432D01*
X51452728Y-58559429D01*
X51394725Y-58532382D01*
X51342285Y-58486210D01*
X51323133Y-58419017D01*
X51343348Y-58352135D01*
X51394725Y-58307618D01*
X51452734Y-58280568D01*
X51639139Y-58150047D01*
X51800047Y-57989139D01*
X51930568Y-57802734D01*
X52026739Y-57596496D01*
X52085635Y-57376692D01*
X52103735Y-57169804D01*
X52105468Y-57150001D01*
X52105468Y-57149998D01*
X52099801Y-57085230D01*
X52085635Y-56923308D01*
X52026739Y-56703504D01*
X51930568Y-56497266D01*
X51802859Y-56314877D01*
X51800045Y-56310858D01*
X51639143Y-56149956D01*
X51638003Y-56149158D01*
X51614535Y-56132725D01*
X51570912Y-56078149D01*
X51563719Y-56008650D01*
X51595241Y-55946296D01*
X51655471Y-55910882D01*
X51672404Y-55907861D01*
X51707483Y-55904091D01*
X51842331Y-55853796D01*
X51957546Y-55767546D01*
X52043796Y-55652331D01*
X52094091Y-55517483D01*
X52100500Y-55457873D01*
X52100499Y-53762128D01*
X52094091Y-53702517D01*
X52083160Y-53673210D01*
X52043797Y-53567671D01*
X52043793Y-53567664D01*
X51957548Y-53452457D01*
X51957546Y-53452454D01*
X51957544Y-53452452D01*
X51957542Y-53452450D01*
X51927188Y-53429727D01*
X51885317Y-53373792D01*
X51877500Y-53330461D01*
X51877500Y-45619738D01*
X51879224Y-45604124D01*
X51878938Y-45604097D01*
X51879672Y-45596334D01*
X51877500Y-45527203D01*
X51877500Y-45497651D01*
X51877500Y-45497650D01*
X51876629Y-45490759D01*
X51876172Y-45484945D01*
X51874709Y-45438372D01*
X51869122Y-45419144D01*
X51865174Y-45400084D01*
X51864589Y-45395452D01*
X51862664Y-45380208D01*
X51845507Y-45336875D01*
X51843619Y-45331359D01*
X51830619Y-45286612D01*
X51820418Y-45269363D01*
X51811860Y-45251894D01*
X51804486Y-45233268D01*
X51804483Y-45233264D01*
X51804483Y-45233263D01*
X51777098Y-45195571D01*
X51773890Y-45190687D01*
X51750172Y-45150582D01*
X51750163Y-45150571D01*
X51736005Y-45136413D01*
X51723370Y-45121620D01*
X51711593Y-45105412D01*
X51675693Y-45075713D01*
X51671381Y-45071790D01*
X51433386Y-44833795D01*
X51399901Y-44772472D01*
X51401293Y-44714018D01*
X51405432Y-44698574D01*
X51411442Y-44676142D01*
X51413069Y-44670072D01*
X51413069Y-44670070D01*
X51413070Y-44670068D01*
X51432323Y-44450000D01*
X51432206Y-44448666D01*
X51421306Y-44324074D01*
X51413070Y-44229932D01*
X51355894Y-44016550D01*
X51262534Y-43816339D01*
X51135826Y-43635380D01*
X50979620Y-43479174D01*
X50979616Y-43479171D01*
X50979615Y-43479170D01*
X50798666Y-43352468D01*
X50798658Y-43352464D01*
X50669219Y-43292106D01*
X50616779Y-43245934D01*
X50597627Y-43178741D01*
X50617843Y-43111859D01*
X50669219Y-43067342D01*
X50798408Y-43007100D01*
X50798420Y-43007093D01*
X50863186Y-42961742D01*
X50863187Y-42961740D01*
X50192448Y-42291000D01*
X50196569Y-42291000D01*
X50290421Y-42275339D01*
X50402251Y-42214820D01*
X50488371Y-42121269D01*
X50539448Y-42004823D01*
X50545105Y-41936552D01*
X51216741Y-42608187D01*
X51216742Y-42608186D01*
X51262093Y-42543420D01*
X51262100Y-42543408D01*
X51355419Y-42343284D01*
X51355424Y-42343270D01*
X51412573Y-42129986D01*
X51412575Y-42129976D01*
X51431821Y-41910000D01*
X51431821Y-41909999D01*
X51424257Y-41823545D01*
X51438023Y-41755045D01*
X51486639Y-41704862D01*
X51554667Y-41688928D01*
X51620511Y-41712303D01*
G37*
%TD.AperFunction*%
%TA.AperFunction,Conductor*%
G36*
X51050000Y-64454314D02*
G01*
X51038045Y-64442359D01*
X50925148Y-64384835D01*
X50831481Y-64370000D01*
X50768519Y-64370000D01*
X50674852Y-64384835D01*
X50561955Y-64442359D01*
X50550000Y-64454314D01*
X50550000Y-62545686D01*
X50561955Y-62557641D01*
X50674852Y-62615165D01*
X50768519Y-62630000D01*
X50831481Y-62630000D01*
X50925148Y-62615165D01*
X51038045Y-62557641D01*
X51050000Y-62545686D01*
X51050000Y-64454314D01*
G37*
%TD.AperFunction*%
%TA.AperFunction,Conductor*%
G36*
X58670000Y-64454314D02*
G01*
X58658045Y-64442359D01*
X58545148Y-64384835D01*
X58451481Y-64370000D01*
X58388519Y-64370000D01*
X58294852Y-64384835D01*
X58181955Y-64442359D01*
X58170000Y-64454314D01*
X58170000Y-62545686D01*
X58181955Y-62557641D01*
X58294852Y-62615165D01*
X58388519Y-62630000D01*
X58451481Y-62630000D01*
X58545148Y-62615165D01*
X58658045Y-62557641D01*
X58670000Y-62545686D01*
X58670000Y-64454314D01*
G37*
%TD.AperFunction*%
%TA.AperFunction,Conductor*%
G36*
X89150000Y-63819314D02*
G01*
X89138045Y-63807359D01*
X89025148Y-63749835D01*
X88931481Y-63735000D01*
X88868519Y-63735000D01*
X88774852Y-63749835D01*
X88661955Y-63807359D01*
X88650000Y-63819314D01*
X88650000Y-61910686D01*
X88661955Y-61922641D01*
X88774852Y-61980165D01*
X88868519Y-61995000D01*
X88931481Y-61995000D01*
X89025148Y-61980165D01*
X89138045Y-61922641D01*
X89150000Y-61910686D01*
X89150000Y-63819314D01*
G37*
%TD.AperFunction*%
%TA.AperFunction,Conductor*%
G36*
X96770000Y-63819314D02*
G01*
X96758045Y-63807359D01*
X96645148Y-63749835D01*
X96551481Y-63735000D01*
X96488519Y-63735000D01*
X96394852Y-63749835D01*
X96281955Y-63807359D01*
X96270000Y-63819314D01*
X96270000Y-61910686D01*
X96281955Y-61922641D01*
X96394852Y-61980165D01*
X96488519Y-61995000D01*
X96551481Y-61995000D01*
X96645148Y-61980165D01*
X96758045Y-61922641D01*
X96770000Y-61910686D01*
X96770000Y-63819314D01*
G37*
%TD.AperFunction*%
%TA.AperFunction,Conductor*%
G36*
X87164239Y-39380185D02*
G01*
X87198775Y-39413376D01*
X87294174Y-39549620D01*
X87294175Y-39549621D01*
X87450378Y-39705824D01*
X87450384Y-39705829D01*
X87631333Y-39832531D01*
X87631335Y-39832532D01*
X87631338Y-39832534D01*
X87750748Y-39888215D01*
X87760189Y-39892618D01*
X87812628Y-39938790D01*
X87831780Y-40005984D01*
X87811564Y-40072865D01*
X87760189Y-40117382D01*
X87631340Y-40177465D01*
X87631338Y-40177466D01*
X87450377Y-40304175D01*
X87294175Y-40460377D01*
X87198776Y-40596623D01*
X87144199Y-40640248D01*
X87097201Y-40649500D01*
X86625737Y-40649500D01*
X86610120Y-40647776D01*
X86610093Y-40648062D01*
X86602331Y-40647327D01*
X86533203Y-40649500D01*
X86503650Y-40649500D01*
X86502929Y-40649590D01*
X86496757Y-40650369D01*
X86490945Y-40650826D01*
X86444378Y-40652290D01*
X86444367Y-40652292D01*
X86425134Y-40657879D01*
X86406094Y-40661822D01*
X86386217Y-40664334D01*
X86386210Y-40664335D01*
X86386208Y-40664336D01*
X86386206Y-40664336D01*
X86386205Y-40664337D01*
X86342868Y-40681494D01*
X86337342Y-40683386D01*
X86292611Y-40696382D01*
X86292608Y-40696383D01*
X86275363Y-40706581D01*
X86257901Y-40715135D01*
X86239272Y-40722511D01*
X86239267Y-40722513D01*
X86201564Y-40749906D01*
X86196682Y-40753112D01*
X86156580Y-40776828D01*
X86142408Y-40791000D01*
X86127623Y-40803628D01*
X86114864Y-40812899D01*
X86111412Y-40815407D01*
X86081709Y-40851310D01*
X86077776Y-40855631D01*
X85456680Y-41476729D01*
X84867228Y-42066181D01*
X84805905Y-42099666D01*
X84779547Y-42102500D01*
X83719738Y-42102500D01*
X83704121Y-42100776D01*
X83704094Y-42101062D01*
X83696332Y-42100327D01*
X83627204Y-42102500D01*
X83597650Y-42102500D01*
X83596929Y-42102590D01*
X83590757Y-42103369D01*
X83584945Y-42103826D01*
X83538373Y-42105290D01*
X83538372Y-42105290D01*
X83519129Y-42110881D01*
X83500079Y-42114825D01*
X83480211Y-42117334D01*
X83480209Y-42117335D01*
X83436884Y-42134488D01*
X83431357Y-42136380D01*
X83386610Y-42149381D01*
X83386609Y-42149382D01*
X83369367Y-42159579D01*
X83351899Y-42168137D01*
X83333269Y-42175513D01*
X83333267Y-42175514D01*
X83295576Y-42202898D01*
X83290694Y-42206105D01*
X83250579Y-42229830D01*
X83236408Y-42244000D01*
X83221623Y-42256628D01*
X83205412Y-42268407D01*
X83175709Y-42304310D01*
X83171776Y-42308631D01*
X82872222Y-42608187D01*
X82602228Y-42878181D01*
X82540905Y-42911666D01*
X82514547Y-42914500D01*
X82455354Y-42914500D01*
X82422897Y-42921398D01*
X82270197Y-42953855D01*
X82270192Y-42953857D01*
X82097270Y-43030848D01*
X82097265Y-43030851D01*
X81944129Y-43142111D01*
X81817466Y-43282785D01*
X81722821Y-43446715D01*
X81722818Y-43446722D01*
X81671803Y-43603731D01*
X81664326Y-43626744D01*
X81644540Y-43815000D01*
X81664326Y-44003256D01*
X81664327Y-44003259D01*
X81722818Y-44183277D01*
X81722821Y-44183284D01*
X81817467Y-44347216D01*
X81910016Y-44450002D01*
X81944129Y-44487888D01*
X82097265Y-44599148D01*
X82097270Y-44599151D01*
X82270192Y-44676142D01*
X82270197Y-44676144D01*
X82455354Y-44715500D01*
X82455355Y-44715500D01*
X82644644Y-44715500D01*
X82644646Y-44715500D01*
X82829803Y-44676144D01*
X83002730Y-44599151D01*
X83155871Y-44487888D01*
X83282533Y-44347216D01*
X83377179Y-44183284D01*
X83435674Y-44003256D01*
X83453321Y-43835344D01*
X83479904Y-43770734D01*
X83488950Y-43760639D01*
X83859772Y-43389819D01*
X83921095Y-43356334D01*
X83947453Y-43353500D01*
X85007257Y-43353500D01*
X85022877Y-43355224D01*
X85022904Y-43354939D01*
X85030660Y-43355671D01*
X85030667Y-43355673D01*
X85099814Y-43353500D01*
X86920540Y-43353500D01*
X86987579Y-43373185D01*
X87033334Y-43425989D01*
X87043278Y-43495147D01*
X87040315Y-43509594D01*
X87017425Y-43595017D01*
X87017424Y-43595023D01*
X86998179Y-43814999D01*
X86998179Y-43815000D01*
X87017424Y-44034976D01*
X87017426Y-44034986D01*
X87074575Y-44248270D01*
X87074580Y-44248284D01*
X87167899Y-44448407D01*
X87167900Y-44448409D01*
X87213258Y-44513187D01*
X87880096Y-43846349D01*
X87880051Y-43846898D01*
X87911266Y-43970162D01*
X87980813Y-44076612D01*
X88081157Y-44154713D01*
X88201422Y-44196000D01*
X88237553Y-44196000D01*
X87566811Y-44866741D01*
X87631582Y-44912094D01*
X87631588Y-44912098D01*
X87760781Y-44972342D01*
X87813220Y-45018514D01*
X87832372Y-45085708D01*
X87812156Y-45152589D01*
X87760781Y-45197106D01*
X87631340Y-45257465D01*
X87631338Y-45257466D01*
X87450377Y-45384175D01*
X87294175Y-45540377D01*
X87198776Y-45676623D01*
X87144199Y-45720248D01*
X87097201Y-45729500D01*
X85807743Y-45729500D01*
X85792122Y-45727775D01*
X85792096Y-45728061D01*
X85784334Y-45727327D01*
X85784333Y-45727327D01*
X85715186Y-45729500D01*
X85685649Y-45729500D01*
X85678766Y-45730369D01*
X85672949Y-45730826D01*
X85626373Y-45732290D01*
X85607129Y-45737881D01*
X85588079Y-45741825D01*
X85568211Y-45744334D01*
X85524884Y-45761488D01*
X85519358Y-45763379D01*
X85474614Y-45776379D01*
X85474610Y-45776381D01*
X85457366Y-45786579D01*
X85439905Y-45795133D01*
X85421274Y-45802510D01*
X85421262Y-45802517D01*
X85383570Y-45829902D01*
X85378687Y-45833109D01*
X85338580Y-45856829D01*
X85324414Y-45870995D01*
X85309624Y-45883627D01*
X85293414Y-45895404D01*
X85293411Y-45895407D01*
X85263710Y-45931309D01*
X85259777Y-45935631D01*
X80261208Y-50934199D01*
X80248951Y-50944020D01*
X80249134Y-50944241D01*
X80243123Y-50949213D01*
X80195772Y-50999636D01*
X80174889Y-51020519D01*
X80174877Y-51020532D01*
X80170621Y-51026017D01*
X80166837Y-51030447D01*
X80134937Y-51064418D01*
X80134936Y-51064420D01*
X80125284Y-51081976D01*
X80114610Y-51098226D01*
X80102329Y-51114061D01*
X80102324Y-51114068D01*
X80083815Y-51156838D01*
X80081245Y-51162084D01*
X80058803Y-51202906D01*
X80053822Y-51222307D01*
X80047521Y-51240710D01*
X80039562Y-51259102D01*
X80039561Y-51259105D01*
X80032271Y-51305127D01*
X80031087Y-51310846D01*
X80019501Y-51355972D01*
X80019500Y-51355982D01*
X80019500Y-51376016D01*
X80017973Y-51395415D01*
X80014840Y-51415194D01*
X80014840Y-51415195D01*
X80019225Y-51461583D01*
X80019500Y-51467421D01*
X80019500Y-57702255D01*
X80017775Y-57717872D01*
X80018061Y-57717899D01*
X80017326Y-57725665D01*
X80019500Y-57794814D01*
X80019500Y-57824343D01*
X80019501Y-57824360D01*
X80020368Y-57831231D01*
X80020826Y-57837050D01*
X80022290Y-57883624D01*
X80022291Y-57883627D01*
X80027880Y-57902867D01*
X80031824Y-57921911D01*
X80034336Y-57941792D01*
X80041461Y-57959787D01*
X80051490Y-57985119D01*
X80053382Y-57990647D01*
X80063058Y-58023952D01*
X80066382Y-58035390D01*
X80066870Y-58036216D01*
X80076580Y-58052634D01*
X80085136Y-58070100D01*
X80090708Y-58084170D01*
X80092514Y-58088732D01*
X80119898Y-58126423D01*
X80123106Y-58131307D01*
X80146827Y-58171416D01*
X80146833Y-58171424D01*
X80160990Y-58185580D01*
X80173628Y-58200376D01*
X80184878Y-58215861D01*
X80185406Y-58216587D01*
X80214168Y-58240381D01*
X80221309Y-58246288D01*
X80225620Y-58250210D01*
X81729427Y-59754017D01*
X83186613Y-61211203D01*
X83220098Y-61272526D01*
X83218707Y-61330976D01*
X83206931Y-61374926D01*
X83206930Y-61374933D01*
X83187677Y-61594997D01*
X83187677Y-61595002D01*
X83195192Y-61680904D01*
X83181425Y-61749404D01*
X83132810Y-61799587D01*
X83064781Y-61815520D01*
X82998937Y-61792144D01*
X82983983Y-61779392D01*
X78766819Y-57562228D01*
X78733334Y-57500905D01*
X78730500Y-57474547D01*
X78730500Y-45395452D01*
X78750185Y-45328413D01*
X78766819Y-45307771D01*
X84677772Y-39396819D01*
X84739095Y-39363334D01*
X84765453Y-39360500D01*
X87097200Y-39360500D01*
X87164239Y-39380185D01*
G37*
%TD.AperFunction*%
%TA.AperFunction,Conductor*%
G36*
X63434975Y-45095185D02*
G01*
X63480730Y-45147989D01*
X63490674Y-45217147D01*
X63461649Y-45280703D01*
X63439060Y-45301073D01*
X63429496Y-45307771D01*
X63320377Y-45384175D01*
X63164175Y-45540377D01*
X63037466Y-45721338D01*
X63037465Y-45721340D01*
X62944107Y-45921548D01*
X62944104Y-45921554D01*
X62886930Y-46134929D01*
X62886929Y-46134937D01*
X62867677Y-46354997D01*
X62867677Y-46355002D01*
X62886929Y-46575062D01*
X62886930Y-46575070D01*
X62944104Y-46788445D01*
X62944105Y-46788447D01*
X62944106Y-46788450D01*
X62954366Y-46810452D01*
X63037466Y-46988662D01*
X63037468Y-46988666D01*
X63164170Y-47169615D01*
X63164175Y-47169621D01*
X63320378Y-47325824D01*
X63320384Y-47325829D01*
X63501333Y-47452531D01*
X63501335Y-47452532D01*
X63501338Y-47452534D01*
X63630189Y-47512618D01*
X63630781Y-47512894D01*
X63683220Y-47559066D01*
X63702372Y-47626260D01*
X63682156Y-47693141D01*
X63630781Y-47737658D01*
X63501586Y-47797903D01*
X63436812Y-47843257D01*
X63436811Y-47843258D01*
X64107554Y-48514000D01*
X64103431Y-48514000D01*
X64009579Y-48529661D01*
X63897749Y-48590180D01*
X63811629Y-48683731D01*
X63760552Y-48800177D01*
X63754894Y-48868447D01*
X63083258Y-48196811D01*
X63083257Y-48196812D01*
X63037903Y-48261586D01*
X62944576Y-48461725D01*
X62944575Y-48461728D01*
X62944525Y-48461917D01*
X62944480Y-48461990D01*
X62942728Y-48466805D01*
X62941759Y-48466452D01*
X62908150Y-48521571D01*
X62845298Y-48552090D01*
X62775924Y-48543783D01*
X62737075Y-48517484D01*
X61593386Y-47373795D01*
X61559901Y-47312472D01*
X61561293Y-47254018D01*
X61573069Y-47210072D01*
X61573069Y-47210071D01*
X61573070Y-47210068D01*
X61592323Y-46990000D01*
X61592206Y-46988666D01*
X61574690Y-46788450D01*
X61573070Y-46769932D01*
X61515894Y-46556550D01*
X61422534Y-46356339D01*
X61295826Y-46175380D01*
X61139620Y-46019174D01*
X61139616Y-46019171D01*
X61139615Y-46019170D01*
X60958666Y-45892468D01*
X60958658Y-45892464D01*
X60829811Y-45832382D01*
X60777371Y-45786210D01*
X60758219Y-45719017D01*
X60778435Y-45652135D01*
X60829811Y-45607618D01*
X60837362Y-45604097D01*
X60958662Y-45547534D01*
X61139620Y-45420826D01*
X61295826Y-45264620D01*
X61391225Y-45128376D01*
X61445802Y-45084752D01*
X61492800Y-45075500D01*
X63367936Y-45075500D01*
X63434975Y-45095185D01*
G37*
%TD.AperFunction*%
%TA.AperFunction,Conductor*%
G36*
X63434975Y-40015185D02*
G01*
X63480730Y-40067989D01*
X63490674Y-40137147D01*
X63461649Y-40200703D01*
X63439060Y-40221073D01*
X63409253Y-40241944D01*
X63320377Y-40304175D01*
X63164175Y-40460377D01*
X63037466Y-40641338D01*
X63037465Y-40641340D01*
X62944107Y-40841548D01*
X62944104Y-40841554D01*
X62886930Y-41054929D01*
X62886929Y-41054937D01*
X62867677Y-41274997D01*
X62867677Y-41275002D01*
X62886929Y-41495062D01*
X62886930Y-41495070D01*
X62944104Y-41708445D01*
X62944105Y-41708447D01*
X62944106Y-41708450D01*
X63023216Y-41878102D01*
X63037466Y-41908662D01*
X63037468Y-41908666D01*
X63164170Y-42089615D01*
X63164175Y-42089621D01*
X63320378Y-42245824D01*
X63320384Y-42245829D01*
X63501333Y-42372531D01*
X63501335Y-42372532D01*
X63501338Y-42372534D01*
X63620748Y-42428215D01*
X63630189Y-42432618D01*
X63682628Y-42478790D01*
X63701780Y-42545984D01*
X63681564Y-42612865D01*
X63630189Y-42657382D01*
X63501340Y-42717465D01*
X63501338Y-42717466D01*
X63320377Y-42844175D01*
X63164175Y-43000377D01*
X63037466Y-43181338D01*
X63037465Y-43181340D01*
X62944107Y-43381548D01*
X62944104Y-43381554D01*
X62886930Y-43594929D01*
X62886929Y-43594937D01*
X62876749Y-43711307D01*
X62851297Y-43776376D01*
X62794706Y-43817355D01*
X62753221Y-43824500D01*
X61492799Y-43824500D01*
X61425760Y-43804815D01*
X61391224Y-43771623D01*
X61295827Y-43635381D01*
X61225056Y-43564610D01*
X61139620Y-43479174D01*
X61139616Y-43479171D01*
X61139615Y-43479170D01*
X60958666Y-43352468D01*
X60958658Y-43352464D01*
X60829219Y-43292106D01*
X60776779Y-43245934D01*
X60757627Y-43178741D01*
X60777843Y-43111859D01*
X60829219Y-43067342D01*
X60958408Y-43007100D01*
X60958420Y-43007093D01*
X61023186Y-42961742D01*
X61023187Y-42961740D01*
X60352448Y-42291000D01*
X60356569Y-42291000D01*
X60450421Y-42275339D01*
X60562251Y-42214820D01*
X60648371Y-42121269D01*
X60699448Y-42004823D01*
X60705105Y-41936552D01*
X61376740Y-42608187D01*
X61376742Y-42608186D01*
X61422093Y-42543420D01*
X61422100Y-42543408D01*
X61515419Y-42343284D01*
X61515424Y-42343270D01*
X61572573Y-42129986D01*
X61572575Y-42129976D01*
X61591821Y-41910000D01*
X61591821Y-41909999D01*
X61572575Y-41690023D01*
X61572573Y-41690013D01*
X61515424Y-41476729D01*
X61515420Y-41476720D01*
X61422098Y-41276590D01*
X61376740Y-41211811D01*
X60709903Y-41878648D01*
X60709949Y-41878102D01*
X60678734Y-41754838D01*
X60609187Y-41648388D01*
X60508843Y-41570287D01*
X60388578Y-41529000D01*
X60352447Y-41529000D01*
X61023187Y-40858258D01*
X60958409Y-40812900D01*
X60958407Y-40812899D01*
X60829219Y-40752658D01*
X60776779Y-40706486D01*
X60757627Y-40639293D01*
X60777843Y-40572411D01*
X60829219Y-40527894D01*
X60958662Y-40467534D01*
X61139620Y-40340826D01*
X61295826Y-40184620D01*
X61391225Y-40048376D01*
X61445802Y-40004752D01*
X61492800Y-39995500D01*
X63367936Y-39995500D01*
X63434975Y-40015185D01*
G37*
%TD.AperFunction*%
%TA.AperFunction,Conductor*%
G36*
X108527539Y-32405185D02*
G01*
X108573294Y-32457989D01*
X108584500Y-32509500D01*
X108584500Y-105920500D01*
X108564815Y-105987539D01*
X108512011Y-106033294D01*
X108460500Y-106044500D01*
X40764500Y-106044500D01*
X40697461Y-106024815D01*
X40651706Y-105972011D01*
X40640500Y-105920500D01*
X40640500Y-101599999D01*
X41269496Y-101599999D01*
X41277399Y-101740737D01*
X41277497Y-101744214D01*
X41277497Y-101778163D01*
X41281297Y-101811904D01*
X41281589Y-101815367D01*
X41289494Y-101956105D01*
X41313104Y-102095068D01*
X41313590Y-102098509D01*
X41317394Y-102132261D01*
X41324947Y-102165351D01*
X41325626Y-102168761D01*
X41349238Y-102307728D01*
X41349240Y-102307739D01*
X41388264Y-102443194D01*
X41389133Y-102446562D01*
X41396682Y-102479639D01*
X41396683Y-102479642D01*
X41407891Y-102511675D01*
X41408946Y-102514987D01*
X41447973Y-102650450D01*
X41501918Y-102780684D01*
X41503158Y-102783932D01*
X41514372Y-102815979D01*
X41529101Y-102846565D01*
X41530522Y-102849740D01*
X41584464Y-102979967D01*
X41652647Y-103103335D01*
X41654242Y-103106424D01*
X41663800Y-103126269D01*
X41668976Y-103137017D01*
X41668978Y-103137020D01*
X41668980Y-103137024D01*
X41687035Y-103165759D01*
X41688802Y-103168755D01*
X41756990Y-103292130D01*
X41838559Y-103407091D01*
X41840491Y-103409983D01*
X41858552Y-103438726D01*
X41858554Y-103438729D01*
X41865749Y-103447752D01*
X41879727Y-103465280D01*
X41881818Y-103468059D01*
X41963382Y-103583012D01*
X42057315Y-103688123D01*
X42059559Y-103690781D01*
X42080715Y-103717310D01*
X42080717Y-103717313D01*
X42080720Y-103717316D01*
X42080721Y-103717317D01*
X42104730Y-103741326D01*
X42107103Y-103743837D01*
X42201042Y-103848954D01*
X42201045Y-103848957D01*
X42306161Y-103942894D01*
X42308670Y-103945266D01*
X42332683Y-103969279D01*
X42359217Y-103990439D01*
X42361868Y-103992677D01*
X42466988Y-104086618D01*
X42581966Y-104168199D01*
X42584708Y-104170263D01*
X42611271Y-104191446D01*
X42640041Y-104209523D01*
X42642883Y-104211422D01*
X42757870Y-104293010D01*
X42757872Y-104293011D01*
X42881247Y-104361198D01*
X42884215Y-104362948D01*
X42912983Y-104381024D01*
X42943558Y-104395748D01*
X42946649Y-104397345D01*
X43054047Y-104456701D01*
X43070027Y-104465533D01*
X43070033Y-104465536D01*
X43070037Y-104465538D01*
X43200258Y-104519477D01*
X43203434Y-104520898D01*
X43234016Y-104535626D01*
X43234020Y-104535628D01*
X43266070Y-104546843D01*
X43269305Y-104548077D01*
X43399546Y-104602025D01*
X43535021Y-104641054D01*
X43538295Y-104642098D01*
X43570355Y-104653316D01*
X43603466Y-104660873D01*
X43606792Y-104661731D01*
X43742271Y-104700762D01*
X43881313Y-104724386D01*
X43884591Y-104725038D01*
X43917749Y-104732607D01*
X43951515Y-104736411D01*
X43954914Y-104736891D01*
X44093897Y-104760506D01*
X44194715Y-104766167D01*
X44234641Y-104768410D01*
X44238080Y-104768699D01*
X44267526Y-104772017D01*
X44271835Y-104772503D01*
X44305785Y-104772503D01*
X44309262Y-104772601D01*
X44359309Y-104775411D01*
X44450000Y-104780504D01*
X44540690Y-104775411D01*
X44590738Y-104772601D01*
X44594215Y-104772503D01*
X44628165Y-104772503D01*
X44632473Y-104772017D01*
X44661919Y-104768699D01*
X44665359Y-104768410D01*
X44700281Y-104766448D01*
X44806103Y-104760506D01*
X44945095Y-104736890D01*
X44948479Y-104736412D01*
X44982251Y-104732607D01*
X45015388Y-104725043D01*
X45018700Y-104724383D01*
X45157729Y-104700762D01*
X45293237Y-104661722D01*
X45296496Y-104660881D01*
X45319214Y-104655696D01*
X45329639Y-104653318D01*
X45329656Y-104653312D01*
X45361726Y-104642090D01*
X45364944Y-104641064D01*
X45500454Y-104602025D01*
X45630740Y-104548058D01*
X45633867Y-104546864D01*
X45665977Y-104535629D01*
X45696611Y-104520876D01*
X45699712Y-104519489D01*
X45829969Y-104465535D01*
X45953363Y-104397337D01*
X45956404Y-104395766D01*
X45987017Y-104381024D01*
X46015837Y-104362914D01*
X46018692Y-104361231D01*
X46142130Y-104293010D01*
X46257125Y-104211416D01*
X46259950Y-104209528D01*
X46288729Y-104191446D01*
X46315291Y-104170263D01*
X46318021Y-104168207D01*
X46433012Y-104086618D01*
X46538153Y-103992658D01*
X46540749Y-103990466D01*
X46567317Y-103969279D01*
X46591344Y-103945251D01*
X46593816Y-103942914D01*
X46698956Y-103848956D01*
X46792914Y-103743816D01*
X46795251Y-103741344D01*
X46819279Y-103717317D01*
X46840466Y-103690749D01*
X46842658Y-103688153D01*
X46936618Y-103583012D01*
X47018207Y-103468022D01*
X47020272Y-103465280D01*
X47041446Y-103438729D01*
X47059528Y-103409950D01*
X47061416Y-103407125D01*
X47143010Y-103292130D01*
X47211231Y-103168692D01*
X47212914Y-103165837D01*
X47231024Y-103137017D01*
X47245766Y-103106404D01*
X47247337Y-103103363D01*
X47315535Y-102979969D01*
X47369489Y-102849712D01*
X47370876Y-102846611D01*
X47385629Y-102815977D01*
X47396864Y-102783867D01*
X47398058Y-102780740D01*
X47452025Y-102650454D01*
X47491064Y-102514944D01*
X47492090Y-102511726D01*
X47503316Y-102479645D01*
X47503317Y-102479642D01*
X47503318Y-102479639D01*
X47505696Y-102469214D01*
X47510881Y-102446496D01*
X47511722Y-102443237D01*
X47550762Y-102307729D01*
X47574383Y-102168700D01*
X47575043Y-102165388D01*
X47582607Y-102132251D01*
X47586412Y-102098479D01*
X47586890Y-102095095D01*
X47610506Y-101956103D01*
X47618149Y-101819999D01*
X47618410Y-101815360D01*
X47618701Y-101811904D01*
X47622503Y-101778164D01*
X47623168Y-101730622D01*
X47630504Y-101600000D01*
X47623168Y-101469378D01*
X47622503Y-101421836D01*
X47618700Y-101388083D01*
X47618410Y-101384640D01*
X47615458Y-101332081D01*
X47610506Y-101243897D01*
X47586891Y-101104914D01*
X47586411Y-101101515D01*
X47582607Y-101067749D01*
X47575038Y-101034591D01*
X47574386Y-101031313D01*
X47550762Y-100892271D01*
X47511731Y-100756792D01*
X47510873Y-100753466D01*
X47503316Y-100720355D01*
X47492098Y-100688295D01*
X47491051Y-100685010D01*
X47484076Y-100660798D01*
X47452025Y-100549546D01*
X47398077Y-100419305D01*
X47396843Y-100416070D01*
X47385628Y-100384020D01*
X47385626Y-100384016D01*
X47370898Y-100353434D01*
X47369477Y-100350258D01*
X47315538Y-100220037D01*
X47315536Y-100220033D01*
X47247345Y-100096649D01*
X47245748Y-100093558D01*
X47231026Y-100062988D01*
X47231023Y-100062982D01*
X47212948Y-100034215D01*
X47211198Y-100031247D01*
X47143008Y-99907867D01*
X47098628Y-99845320D01*
X47061422Y-99792883D01*
X47059523Y-99790041D01*
X47041446Y-99761271D01*
X47020263Y-99734708D01*
X47018199Y-99731966D01*
X46936618Y-99616988D01*
X46842677Y-99511868D01*
X46840439Y-99509217D01*
X46835020Y-99502422D01*
X46819279Y-99482683D01*
X46795264Y-99458668D01*
X46792894Y-99456161D01*
X46767127Y-99427328D01*
X46726271Y-99381610D01*
X46698957Y-99351045D01*
X46698954Y-99351042D01*
X46593837Y-99257103D01*
X46591327Y-99254731D01*
X46567317Y-99230721D01*
X46567316Y-99230720D01*
X46567313Y-99230717D01*
X46567310Y-99230715D01*
X46540781Y-99209559D01*
X46538123Y-99207315D01*
X46433012Y-99113382D01*
X46318059Y-99031818D01*
X46315280Y-99029727D01*
X46288726Y-99008552D01*
X46259983Y-98990491D01*
X46257091Y-98988559D01*
X46142130Y-98906990D01*
X46018755Y-98838802D01*
X46015759Y-98837035D01*
X45987024Y-98818980D01*
X45987021Y-98818978D01*
X45987017Y-98818976D01*
X45976269Y-98813800D01*
X45956424Y-98804242D01*
X45953335Y-98802647D01*
X45924801Y-98786877D01*
X45829969Y-98734465D01*
X45829967Y-98734464D01*
X45699740Y-98680522D01*
X45696565Y-98679101D01*
X45665979Y-98664372D01*
X45665977Y-98664371D01*
X45633932Y-98653158D01*
X45630684Y-98651918D01*
X45500450Y-98597973D01*
X45364987Y-98558946D01*
X45361675Y-98557891D01*
X45329642Y-98546683D01*
X45329639Y-98546682D01*
X45296562Y-98539133D01*
X45293194Y-98538264D01*
X45157739Y-98499240D01*
X45157730Y-98499238D01*
X45157729Y-98499238D01*
X45101880Y-98489748D01*
X45018761Y-98475626D01*
X45015351Y-98474947D01*
X44982260Y-98467394D01*
X44982261Y-98467394D01*
X44948509Y-98463590D01*
X44945068Y-98463104D01*
X44806105Y-98439494D01*
X44665367Y-98431589D01*
X44661904Y-98431297D01*
X44630405Y-98427749D01*
X44628164Y-98427497D01*
X44628163Y-98427497D01*
X44594215Y-98427497D01*
X44590738Y-98427399D01*
X44450000Y-98419496D01*
X44309262Y-98427399D01*
X44305785Y-98427497D01*
X44271837Y-98427497D01*
X44271836Y-98427497D01*
X44269734Y-98427733D01*
X44238095Y-98431297D01*
X44234632Y-98431589D01*
X44093895Y-98439494D01*
X43954932Y-98463104D01*
X43951491Y-98463590D01*
X43917749Y-98467393D01*
X43917736Y-98467395D01*
X43884651Y-98474947D01*
X43881243Y-98475625D01*
X43860311Y-98479182D01*
X43742274Y-98499237D01*
X43742265Y-98499239D01*
X43606812Y-98538262D01*
X43603445Y-98539131D01*
X43570353Y-98546684D01*
X43538331Y-98557889D01*
X43535018Y-98558945D01*
X43399541Y-98597976D01*
X43269326Y-98651913D01*
X43266079Y-98653153D01*
X43234020Y-98664372D01*
X43203443Y-98679096D01*
X43200272Y-98680515D01*
X43070026Y-98734467D01*
X42946663Y-98802647D01*
X42943575Y-98804242D01*
X42912984Y-98818975D01*
X42912973Y-98818981D01*
X42884239Y-98837035D01*
X42881246Y-98838801D01*
X42757872Y-98906988D01*
X42642909Y-98988558D01*
X42640019Y-98990489D01*
X42611271Y-99008553D01*
X42611268Y-99008555D01*
X42584720Y-99029725D01*
X42581943Y-99031815D01*
X42466983Y-99113384D01*
X42361879Y-99207311D01*
X42359224Y-99209554D01*
X42332680Y-99230723D01*
X42308668Y-99254734D01*
X42306143Y-99257120D01*
X42201044Y-99351044D01*
X42107120Y-99456143D01*
X42104734Y-99458668D01*
X42080723Y-99482680D01*
X42059554Y-99509224D01*
X42057311Y-99511879D01*
X41963384Y-99616983D01*
X41881815Y-99731943D01*
X41879725Y-99734720D01*
X41858555Y-99761268D01*
X41858553Y-99761271D01*
X41840489Y-99790019D01*
X41838558Y-99792909D01*
X41756988Y-99907872D01*
X41688801Y-100031246D01*
X41687035Y-100034239D01*
X41668981Y-100062973D01*
X41668975Y-100062984D01*
X41654242Y-100093575D01*
X41652647Y-100096663D01*
X41584467Y-100220026D01*
X41530515Y-100350272D01*
X41529096Y-100353443D01*
X41514372Y-100384020D01*
X41503153Y-100416079D01*
X41501913Y-100419326D01*
X41447976Y-100549541D01*
X41408945Y-100685018D01*
X41407889Y-100688331D01*
X41396684Y-100720353D01*
X41389131Y-100753445D01*
X41388262Y-100756812D01*
X41349239Y-100892265D01*
X41349237Y-100892274D01*
X41325626Y-101031241D01*
X41324947Y-101034651D01*
X41317395Y-101067736D01*
X41317393Y-101067749D01*
X41313590Y-101101491D01*
X41313104Y-101104932D01*
X41289494Y-101243895D01*
X41281589Y-101384632D01*
X41281297Y-101388095D01*
X41277497Y-101421836D01*
X41277497Y-101455784D01*
X41277399Y-101459261D01*
X41269496Y-101599999D01*
X40640500Y-101599999D01*
X40640500Y-74910196D01*
X47629840Y-74910196D01*
X47631255Y-74925160D01*
X47634225Y-74956583D01*
X47634500Y-74962421D01*
X47634500Y-91992255D01*
X47632775Y-92007872D01*
X47633061Y-92007899D01*
X47632326Y-92015665D01*
X47634500Y-92084814D01*
X47634500Y-92114343D01*
X47634501Y-92114360D01*
X47635368Y-92121231D01*
X47635826Y-92127050D01*
X47637290Y-92173624D01*
X47637291Y-92173627D01*
X47642880Y-92192867D01*
X47646824Y-92211911D01*
X47649336Y-92231792D01*
X47650674Y-92235171D01*
X47666490Y-92275119D01*
X47668382Y-92280647D01*
X47681381Y-92325388D01*
X47691580Y-92342634D01*
X47700138Y-92360103D01*
X47707514Y-92378732D01*
X47734898Y-92416423D01*
X47738106Y-92421307D01*
X47761827Y-92461416D01*
X47761833Y-92461424D01*
X47775990Y-92475580D01*
X47788628Y-92490376D01*
X47800405Y-92506586D01*
X47800406Y-92506587D01*
X47836309Y-92536288D01*
X47840620Y-92540210D01*
X50956190Y-95655780D01*
X54069194Y-98768784D01*
X54079019Y-98781048D01*
X54079240Y-98780866D01*
X54084210Y-98786873D01*
X54084213Y-98786876D01*
X54084214Y-98786877D01*
X54134651Y-98834241D01*
X54155530Y-98855120D01*
X54161004Y-98859366D01*
X54165442Y-98863156D01*
X54199418Y-98895062D01*
X54216973Y-98904713D01*
X54233231Y-98915392D01*
X54249064Y-98927674D01*
X54271015Y-98937172D01*
X54291837Y-98946183D01*
X54297081Y-98948752D01*
X54337908Y-98971197D01*
X54357312Y-98976179D01*
X54375710Y-98982478D01*
X54394105Y-98990438D01*
X54440129Y-98997726D01*
X54445832Y-98998907D01*
X54490981Y-99010500D01*
X54511016Y-99010500D01*
X54530413Y-99012026D01*
X54550196Y-99015160D01*
X54596584Y-99010775D01*
X54602422Y-99010500D01*
X61440501Y-99010500D01*
X61507540Y-99030185D01*
X61553295Y-99082989D01*
X61564501Y-99134500D01*
X61564501Y-99232876D01*
X61570908Y-99292483D01*
X61621202Y-99427328D01*
X61621206Y-99427335D01*
X61707452Y-99542544D01*
X61707455Y-99542547D01*
X61822664Y-99628793D01*
X61822671Y-99628797D01*
X61957517Y-99679091D01*
X61957516Y-99679091D01*
X61964444Y-99679835D01*
X62017127Y-99685500D01*
X63712872Y-99685499D01*
X63772483Y-99679091D01*
X63907331Y-99628796D01*
X64022546Y-99542546D01*
X64108796Y-99427331D01*
X64159091Y-99292483D01*
X64165500Y-99232873D01*
X64165500Y-99134500D01*
X64185185Y-99067461D01*
X64237989Y-99021706D01*
X64289500Y-99010500D01*
X70154548Y-99010500D01*
X70221587Y-99030185D01*
X70242229Y-99046819D01*
X71023181Y-99827771D01*
X71056666Y-99889094D01*
X71059500Y-99915452D01*
X71059500Y-101130001D01*
X71059501Y-101130018D01*
X71070000Y-101232796D01*
X71070001Y-101232799D01*
X71104031Y-101335494D01*
X71125186Y-101399334D01*
X71217288Y-101548656D01*
X71341344Y-101672712D01*
X71490666Y-101764814D01*
X71657203Y-101819999D01*
X71759991Y-101830500D01*
X73060008Y-101830499D01*
X73162797Y-101819999D01*
X73329334Y-101764814D01*
X73478656Y-101672712D01*
X73602712Y-101548656D01*
X73694814Y-101399334D01*
X73694814Y-101399333D01*
X73698448Y-101393442D01*
X73750396Y-101346717D01*
X73819358Y-101335494D01*
X73883441Y-101363337D01*
X73891668Y-101370856D01*
X74038921Y-101518108D01*
X74232421Y-101653600D01*
X74446507Y-101753429D01*
X74446516Y-101753433D01*
X74660000Y-101810634D01*
X74660000Y-100765501D01*
X74767685Y-100814680D01*
X74874237Y-100830000D01*
X74945763Y-100830000D01*
X75052315Y-100814680D01*
X75160000Y-100765501D01*
X75160000Y-101810633D01*
X75373483Y-101753433D01*
X75373492Y-101753429D01*
X75587577Y-101653600D01*
X75587579Y-101653599D01*
X75664128Y-101599999D01*
X101594496Y-101599999D01*
X101602399Y-101740737D01*
X101602497Y-101744214D01*
X101602497Y-101778163D01*
X101606297Y-101811904D01*
X101606589Y-101815367D01*
X101614494Y-101956105D01*
X101638104Y-102095068D01*
X101638590Y-102098509D01*
X101642394Y-102132261D01*
X101649947Y-102165351D01*
X101650626Y-102168761D01*
X101674238Y-102307728D01*
X101674240Y-102307739D01*
X101713264Y-102443194D01*
X101714133Y-102446562D01*
X101721682Y-102479639D01*
X101721683Y-102479642D01*
X101732891Y-102511675D01*
X101733946Y-102514987D01*
X101772973Y-102650450D01*
X101826918Y-102780684D01*
X101828158Y-102783932D01*
X101839372Y-102815979D01*
X101854101Y-102846565D01*
X101855522Y-102849740D01*
X101909464Y-102979967D01*
X101977647Y-103103335D01*
X101979242Y-103106424D01*
X101988800Y-103126269D01*
X101993976Y-103137017D01*
X101993978Y-103137020D01*
X101993980Y-103137024D01*
X102012035Y-103165759D01*
X102013802Y-103168755D01*
X102081990Y-103292130D01*
X102163559Y-103407091D01*
X102165491Y-103409983D01*
X102183552Y-103438726D01*
X102183554Y-103438729D01*
X102190749Y-103447752D01*
X102204727Y-103465280D01*
X102206818Y-103468059D01*
X102288382Y-103583012D01*
X102382315Y-103688123D01*
X102384559Y-103690781D01*
X102405715Y-103717310D01*
X102405717Y-103717313D01*
X102405720Y-103717316D01*
X102405721Y-103717317D01*
X102429730Y-103741326D01*
X102432103Y-103743837D01*
X102526042Y-103848954D01*
X102526045Y-103848957D01*
X102631161Y-103942894D01*
X102633670Y-103945266D01*
X102657683Y-103969279D01*
X102684217Y-103990439D01*
X102686868Y-103992677D01*
X102791988Y-104086618D01*
X102906966Y-104168199D01*
X102909708Y-104170263D01*
X102936271Y-104191446D01*
X102965041Y-104209523D01*
X102967883Y-104211422D01*
X103082870Y-104293010D01*
X103082872Y-104293011D01*
X103206247Y-104361198D01*
X103209215Y-104362948D01*
X103237983Y-104381024D01*
X103268558Y-104395748D01*
X103271649Y-104397345D01*
X103379047Y-104456701D01*
X103395027Y-104465533D01*
X103395033Y-104465536D01*
X103395037Y-104465538D01*
X103525258Y-104519477D01*
X103528434Y-104520898D01*
X103559016Y-104535626D01*
X103559020Y-104535628D01*
X103591070Y-104546843D01*
X103594305Y-104548077D01*
X103724546Y-104602025D01*
X103860021Y-104641054D01*
X103863295Y-104642098D01*
X103895355Y-104653316D01*
X103928466Y-104660873D01*
X103931792Y-104661731D01*
X104067271Y-104700762D01*
X104206313Y-104724386D01*
X104209591Y-104725038D01*
X104242749Y-104732607D01*
X104276515Y-104736411D01*
X104279914Y-104736891D01*
X104418897Y-104760506D01*
X104519715Y-104766167D01*
X104559641Y-104768410D01*
X104563080Y-104768699D01*
X104592526Y-104772017D01*
X104596835Y-104772503D01*
X104630785Y-104772503D01*
X104634262Y-104772601D01*
X104684309Y-104775411D01*
X104775000Y-104780504D01*
X104865690Y-104775411D01*
X104915738Y-104772601D01*
X104919215Y-104772503D01*
X104953165Y-104772503D01*
X104957473Y-104772017D01*
X104986919Y-104768699D01*
X104990359Y-104768410D01*
X105025281Y-104766448D01*
X105131103Y-104760506D01*
X105270095Y-104736890D01*
X105273479Y-104736412D01*
X105307251Y-104732607D01*
X105340388Y-104725043D01*
X105343700Y-104724383D01*
X105482729Y-104700762D01*
X105618237Y-104661722D01*
X105621496Y-104660881D01*
X105644214Y-104655696D01*
X105654639Y-104653318D01*
X105654656Y-104653312D01*
X105686726Y-104642090D01*
X105689944Y-104641064D01*
X105825454Y-104602025D01*
X105955740Y-104548058D01*
X105958867Y-104546864D01*
X105990977Y-104535629D01*
X106021611Y-104520876D01*
X106024712Y-104519489D01*
X106154969Y-104465535D01*
X106278363Y-104397337D01*
X106281404Y-104395766D01*
X106312017Y-104381024D01*
X106340837Y-104362914D01*
X106343692Y-104361231D01*
X106467130Y-104293010D01*
X106582125Y-104211416D01*
X106584950Y-104209528D01*
X106613729Y-104191446D01*
X106640291Y-104170263D01*
X106643021Y-104168207D01*
X106758012Y-104086618D01*
X106863153Y-103992658D01*
X106865749Y-103990466D01*
X106892317Y-103969279D01*
X106916344Y-103945251D01*
X106918816Y-103942914D01*
X107023956Y-103848956D01*
X107117914Y-103743816D01*
X107120251Y-103741344D01*
X107144279Y-103717317D01*
X107165466Y-103690749D01*
X107167658Y-103688153D01*
X107261618Y-103583012D01*
X107343207Y-103468022D01*
X107345272Y-103465280D01*
X107366446Y-103438729D01*
X107384528Y-103409950D01*
X107386416Y-103407125D01*
X107468010Y-103292130D01*
X107536231Y-103168692D01*
X107537914Y-103165837D01*
X107556024Y-103137017D01*
X107570766Y-103106404D01*
X107572337Y-103103363D01*
X107640535Y-102979969D01*
X107694489Y-102849712D01*
X107695876Y-102846611D01*
X107710629Y-102815977D01*
X107721864Y-102783867D01*
X107723058Y-102780740D01*
X107777025Y-102650454D01*
X107816064Y-102514944D01*
X107817090Y-102511726D01*
X107828316Y-102479645D01*
X107828317Y-102479642D01*
X107828318Y-102479639D01*
X107830696Y-102469214D01*
X107835881Y-102446496D01*
X107836722Y-102443237D01*
X107875762Y-102307729D01*
X107899383Y-102168700D01*
X107900043Y-102165388D01*
X107907607Y-102132251D01*
X107911412Y-102098479D01*
X107911890Y-102095095D01*
X107935506Y-101956103D01*
X107943149Y-101819999D01*
X107943410Y-101815360D01*
X107943701Y-101811904D01*
X107947503Y-101778164D01*
X107948168Y-101730622D01*
X107955504Y-101600000D01*
X107948168Y-101469378D01*
X107947503Y-101421836D01*
X107943700Y-101388083D01*
X107943410Y-101384640D01*
X107940458Y-101332081D01*
X107935506Y-101243897D01*
X107911891Y-101104914D01*
X107911411Y-101101515D01*
X107907607Y-101067749D01*
X107900038Y-101034591D01*
X107899386Y-101031313D01*
X107875762Y-100892271D01*
X107836731Y-100756792D01*
X107835873Y-100753466D01*
X107828316Y-100720355D01*
X107817098Y-100688295D01*
X107816051Y-100685010D01*
X107809076Y-100660798D01*
X107777025Y-100549546D01*
X107723077Y-100419305D01*
X107721843Y-100416070D01*
X107710628Y-100384020D01*
X107710626Y-100384016D01*
X107695898Y-100353434D01*
X107694477Y-100350258D01*
X107640538Y-100220037D01*
X107640536Y-100220033D01*
X107572345Y-100096649D01*
X107570748Y-100093558D01*
X107556026Y-100062988D01*
X107556023Y-100062982D01*
X107537948Y-100034215D01*
X107536198Y-100031247D01*
X107468008Y-99907867D01*
X107423628Y-99845320D01*
X107386422Y-99792883D01*
X107384523Y-99790041D01*
X107366446Y-99761271D01*
X107345263Y-99734708D01*
X107343199Y-99731966D01*
X107261618Y-99616988D01*
X107167677Y-99511868D01*
X107165439Y-99509217D01*
X107160020Y-99502422D01*
X107144279Y-99482683D01*
X107120264Y-99458668D01*
X107117894Y-99456161D01*
X107092127Y-99427328D01*
X107051271Y-99381610D01*
X107023957Y-99351045D01*
X107023954Y-99351042D01*
X106918837Y-99257103D01*
X106916327Y-99254731D01*
X106892317Y-99230721D01*
X106892316Y-99230720D01*
X106892313Y-99230717D01*
X106892310Y-99230715D01*
X106865781Y-99209559D01*
X106863123Y-99207315D01*
X106758012Y-99113382D01*
X106643059Y-99031818D01*
X106640280Y-99029727D01*
X106613726Y-99008552D01*
X106584983Y-98990491D01*
X106582091Y-98988559D01*
X106467130Y-98906990D01*
X106343755Y-98838802D01*
X106340759Y-98837035D01*
X106312024Y-98818980D01*
X106312021Y-98818978D01*
X106312017Y-98818976D01*
X106301269Y-98813800D01*
X106281424Y-98804242D01*
X106278335Y-98802647D01*
X106249801Y-98786877D01*
X106154969Y-98734465D01*
X106154967Y-98734464D01*
X106024740Y-98680522D01*
X106021565Y-98679101D01*
X105990979Y-98664372D01*
X105990977Y-98664371D01*
X105958932Y-98653158D01*
X105955684Y-98651918D01*
X105825450Y-98597973D01*
X105689987Y-98558946D01*
X105686675Y-98557891D01*
X105654642Y-98546683D01*
X105654639Y-98546682D01*
X105621562Y-98539133D01*
X105618194Y-98538264D01*
X105482739Y-98499240D01*
X105482730Y-98499238D01*
X105482729Y-98499238D01*
X105426880Y-98489748D01*
X105343761Y-98475626D01*
X105340351Y-98474947D01*
X105307260Y-98467394D01*
X105307261Y-98467394D01*
X105273509Y-98463590D01*
X105270068Y-98463104D01*
X105131105Y-98439494D01*
X104990367Y-98431589D01*
X104986904Y-98431297D01*
X104955405Y-98427749D01*
X104953164Y-98427497D01*
X104953163Y-98427497D01*
X104919215Y-98427497D01*
X104915738Y-98427399D01*
X104775000Y-98419496D01*
X104634262Y-98427399D01*
X104630785Y-98427497D01*
X104596837Y-98427497D01*
X104596836Y-98427497D01*
X104594734Y-98427733D01*
X104563095Y-98431297D01*
X104559632Y-98431589D01*
X104418895Y-98439494D01*
X104279932Y-98463104D01*
X104276491Y-98463590D01*
X104242749Y-98467393D01*
X104242736Y-98467395D01*
X104209651Y-98474947D01*
X104206243Y-98475625D01*
X104185311Y-98479182D01*
X104067274Y-98499237D01*
X104067265Y-98499239D01*
X103931812Y-98538262D01*
X103928445Y-98539131D01*
X103895353Y-98546684D01*
X103863331Y-98557889D01*
X103860018Y-98558945D01*
X103724541Y-98597976D01*
X103594326Y-98651913D01*
X103591079Y-98653153D01*
X103559020Y-98664372D01*
X103528443Y-98679096D01*
X103525272Y-98680515D01*
X103395026Y-98734467D01*
X103271663Y-98802647D01*
X103268575Y-98804242D01*
X103237984Y-98818975D01*
X103237973Y-98818981D01*
X103209239Y-98837035D01*
X103206246Y-98838801D01*
X103082872Y-98906988D01*
X102967909Y-98988558D01*
X102965019Y-98990489D01*
X102936271Y-99008553D01*
X102936268Y-99008555D01*
X102909720Y-99029725D01*
X102906943Y-99031815D01*
X102791983Y-99113384D01*
X102686879Y-99207311D01*
X102684224Y-99209554D01*
X102657680Y-99230723D01*
X102633668Y-99254734D01*
X102631143Y-99257120D01*
X102526044Y-99351044D01*
X102432120Y-99456143D01*
X102429734Y-99458668D01*
X102405723Y-99482680D01*
X102384554Y-99509224D01*
X102382311Y-99511879D01*
X102288384Y-99616983D01*
X102206815Y-99731943D01*
X102204725Y-99734720D01*
X102183555Y-99761268D01*
X102183553Y-99761271D01*
X102165489Y-99790019D01*
X102163558Y-99792909D01*
X102081988Y-99907872D01*
X102013801Y-100031246D01*
X102012035Y-100034239D01*
X101993981Y-100062973D01*
X101993975Y-100062984D01*
X101979242Y-100093575D01*
X101977647Y-100096663D01*
X101909467Y-100220026D01*
X101855515Y-100350272D01*
X101854096Y-100353443D01*
X101839372Y-100384020D01*
X101828153Y-100416079D01*
X101826913Y-100419326D01*
X101772976Y-100549541D01*
X101733945Y-100685018D01*
X101732889Y-100688331D01*
X101721684Y-100720353D01*
X101714131Y-100753445D01*
X101713262Y-100756812D01*
X101674239Y-100892265D01*
X101674237Y-100892274D01*
X101650626Y-101031241D01*
X101649947Y-101034651D01*
X101642395Y-101067736D01*
X101642393Y-101067749D01*
X101638590Y-101101491D01*
X101638104Y-101104932D01*
X101614494Y-101243895D01*
X101606589Y-101384632D01*
X101606297Y-101388095D01*
X101602497Y-101421836D01*
X101602497Y-101455784D01*
X101602399Y-101459261D01*
X101594496Y-101599999D01*
X75664128Y-101599999D01*
X75781073Y-101518113D01*
X75781079Y-101518108D01*
X75948108Y-101351079D01*
X75948113Y-101351073D01*
X76083599Y-101157579D01*
X76083600Y-101157577D01*
X76183429Y-100943492D01*
X76183433Y-100943483D01*
X76244567Y-100715326D01*
X76244569Y-100715315D01*
X76256407Y-100580000D01*
X75343686Y-100580000D01*
X75369493Y-100539844D01*
X75410000Y-100401889D01*
X75410000Y-100258111D01*
X75369493Y-100120156D01*
X75343686Y-100080000D01*
X76256407Y-100080000D01*
X76256407Y-100079999D01*
X76244569Y-99944684D01*
X76244567Y-99944673D01*
X76183433Y-99716516D01*
X76183429Y-99716507D01*
X76083600Y-99502422D01*
X76083599Y-99502420D01*
X75948113Y-99308926D01*
X75948108Y-99308920D01*
X75781082Y-99141894D01*
X75587578Y-99006399D01*
X75373492Y-98906570D01*
X75373486Y-98906567D01*
X75160000Y-98849364D01*
X75160000Y-99894498D01*
X75052315Y-99845320D01*
X74945763Y-99830000D01*
X74874237Y-99830000D01*
X74767685Y-99845320D01*
X74660000Y-99894498D01*
X74660000Y-98849364D01*
X74659999Y-98849364D01*
X74446513Y-98906567D01*
X74446507Y-98906570D01*
X74232422Y-99006399D01*
X74232420Y-99006400D01*
X74038926Y-99141886D01*
X73891668Y-99289144D01*
X73830345Y-99322628D01*
X73760653Y-99317644D01*
X73704720Y-99275772D01*
X73698448Y-99266558D01*
X73677670Y-99232872D01*
X73602712Y-99111344D01*
X73478656Y-98987288D01*
X73352400Y-98909413D01*
X73329336Y-98895187D01*
X73329331Y-98895185D01*
X73327862Y-98894698D01*
X73162797Y-98840001D01*
X73162795Y-98840000D01*
X73060016Y-98829500D01*
X73060009Y-98829500D01*
X71845453Y-98829500D01*
X71778414Y-98809815D01*
X71757772Y-98793181D01*
X71427271Y-98462680D01*
X71393786Y-98401357D01*
X71398770Y-98331665D01*
X71427271Y-98287318D01*
X72702578Y-97012011D01*
X74043786Y-95670802D01*
X74056048Y-95660980D01*
X74055865Y-95660759D01*
X74061867Y-95655792D01*
X74061877Y-95655786D01*
X74109241Y-95605348D01*
X74130120Y-95584470D01*
X74134373Y-95578986D01*
X74138150Y-95574563D01*
X74170062Y-95540582D01*
X74179714Y-95523023D01*
X74190389Y-95506772D01*
X74202674Y-95490936D01*
X74221186Y-95448152D01*
X74223742Y-95442935D01*
X74246197Y-95402092D01*
X74251180Y-95382680D01*
X74257477Y-95364291D01*
X74265438Y-95345895D01*
X74272729Y-95299853D01*
X74273908Y-95294162D01*
X74285500Y-95249019D01*
X74285500Y-95228983D01*
X74287027Y-95209582D01*
X74290160Y-95189804D01*
X74285775Y-95143415D01*
X74285500Y-95137577D01*
X74285500Y-92550008D01*
X74305185Y-92482969D01*
X74350483Y-92440953D01*
X74457437Y-92383073D01*
X74457436Y-92383073D01*
X74457439Y-92383072D01*
X74647463Y-92235171D01*
X74810551Y-92058010D01*
X74826190Y-92034071D01*
X74879336Y-91988714D01*
X74948567Y-91979290D01*
X75011904Y-92008791D01*
X75033808Y-92034070D01*
X75049449Y-92058010D01*
X75212537Y-92235171D01*
X75402561Y-92383072D01*
X75614336Y-92497679D01*
X75679530Y-92520060D01*
X75842083Y-92575865D01*
X75842085Y-92575865D01*
X75842087Y-92575866D01*
X76079601Y-92615500D01*
X76079602Y-92615500D01*
X76320398Y-92615500D01*
X76320399Y-92615500D01*
X76557913Y-92575866D01*
X76647260Y-92545192D01*
X76717057Y-92542043D01*
X76775203Y-92574793D01*
X80469194Y-96268784D01*
X80479019Y-96281048D01*
X80479240Y-96280866D01*
X80484210Y-96286873D01*
X80484213Y-96286876D01*
X80484214Y-96286877D01*
X80534651Y-96334241D01*
X80555530Y-96355120D01*
X80561004Y-96359366D01*
X80565442Y-96363156D01*
X80599418Y-96395062D01*
X80599422Y-96395064D01*
X80616973Y-96404713D01*
X80633231Y-96415392D01*
X80649064Y-96427674D01*
X80671015Y-96437172D01*
X80691837Y-96446183D01*
X80697081Y-96448752D01*
X80737908Y-96471197D01*
X80757312Y-96476179D01*
X80775710Y-96482478D01*
X80794105Y-96490438D01*
X80840129Y-96497726D01*
X80845832Y-96498907D01*
X80890981Y-96510500D01*
X80911016Y-96510500D01*
X80930413Y-96512026D01*
X80950196Y-96515160D01*
X80996584Y-96510775D01*
X81002422Y-96510500D01*
X81760501Y-96510500D01*
X81827540Y-96530185D01*
X81873295Y-96582989D01*
X81884501Y-96634500D01*
X81884501Y-96732876D01*
X81890908Y-96792483D01*
X81941202Y-96927328D01*
X81941206Y-96927335D01*
X82027452Y-97042544D01*
X82027455Y-97042547D01*
X82142664Y-97128793D01*
X82142671Y-97128797D01*
X82175942Y-97141206D01*
X82277517Y-97179091D01*
X82337127Y-97185500D01*
X82337153Y-97185499D01*
X82340453Y-97185678D01*
X82340372Y-97187183D01*
X82401672Y-97205112D01*
X82447483Y-97257867D01*
X82455016Y-97301463D01*
X83140600Y-97987046D01*
X83059852Y-97999835D01*
X82946955Y-98057359D01*
X82857359Y-98146955D01*
X82799835Y-98259852D01*
X82787046Y-98340599D01*
X82105973Y-97659526D01*
X82105972Y-97659527D01*
X82054868Y-97732513D01*
X81958734Y-97938673D01*
X81958730Y-97938682D01*
X81899860Y-98158389D01*
X81899858Y-98158400D01*
X81880034Y-98384997D01*
X81880034Y-98385002D01*
X81899858Y-98611599D01*
X81899860Y-98611610D01*
X81958730Y-98831317D01*
X81958734Y-98831326D01*
X82054865Y-99037481D01*
X82054866Y-99037483D01*
X82105973Y-99110471D01*
X82105974Y-99110472D01*
X82787046Y-98429399D01*
X82799835Y-98510148D01*
X82857359Y-98623045D01*
X82946955Y-98712641D01*
X83059852Y-98770165D01*
X83140599Y-98782953D01*
X82459526Y-99464025D01*
X82459526Y-99464026D01*
X82532512Y-99515131D01*
X82532516Y-99515133D01*
X82738673Y-99611265D01*
X82738682Y-99611269D01*
X82958389Y-99670139D01*
X82958400Y-99670141D01*
X83184998Y-99689966D01*
X83185002Y-99689966D01*
X83411599Y-99670141D01*
X83411610Y-99670139D01*
X83631317Y-99611269D01*
X83631331Y-99611264D01*
X83837478Y-99515136D01*
X83910472Y-99464025D01*
X83229401Y-98782953D01*
X83310148Y-98770165D01*
X83423045Y-98712641D01*
X83512641Y-98623045D01*
X83570165Y-98510148D01*
X83582953Y-98429400D01*
X84264025Y-99110472D01*
X84315136Y-99037478D01*
X84411264Y-98831331D01*
X84411269Y-98831317D01*
X84470139Y-98611610D01*
X84470141Y-98611599D01*
X84489966Y-98385002D01*
X84489966Y-98384997D01*
X84470141Y-98158400D01*
X84470139Y-98158389D01*
X84411269Y-97938682D01*
X84411265Y-97938673D01*
X84315133Y-97732516D01*
X84315131Y-97732512D01*
X84264026Y-97659526D01*
X84264025Y-97659526D01*
X83582953Y-98340598D01*
X83570165Y-98259852D01*
X83512641Y-98146955D01*
X83423045Y-98057359D01*
X83310148Y-97999835D01*
X83229400Y-97987046D01*
X83915646Y-97300799D01*
X83925492Y-97251807D01*
X83974107Y-97201624D01*
X84029633Y-97186981D01*
X84029576Y-97185900D01*
X84029571Y-97185854D01*
X84029573Y-97185853D01*
X84029564Y-97185676D01*
X84032857Y-97185499D01*
X84032872Y-97185499D01*
X84092483Y-97179091D01*
X84227331Y-97128796D01*
X84342546Y-97042546D01*
X84428796Y-96927331D01*
X84479091Y-96792483D01*
X84485500Y-96732873D01*
X84485499Y-95037128D01*
X84479091Y-94977517D01*
X84428796Y-94842669D01*
X84428795Y-94842668D01*
X84428793Y-94842664D01*
X84342547Y-94727455D01*
X84342544Y-94727452D01*
X84227335Y-94641206D01*
X84227328Y-94641202D01*
X84092482Y-94590908D01*
X84092483Y-94590908D01*
X84032883Y-94584501D01*
X84032881Y-94584500D01*
X84032873Y-94584500D01*
X84032864Y-94584500D01*
X82337129Y-94584500D01*
X82337123Y-94584501D01*
X82277516Y-94590908D01*
X82142671Y-94641202D01*
X82142664Y-94641206D01*
X82027455Y-94727452D01*
X82027452Y-94727455D01*
X81941206Y-94842664D01*
X81941202Y-94842671D01*
X81890908Y-94977517D01*
X81884501Y-95037116D01*
X81884501Y-95037123D01*
X81884500Y-95037135D01*
X81884500Y-95135500D01*
X81864815Y-95202539D01*
X81812011Y-95248294D01*
X81760500Y-95259500D01*
X81280452Y-95259500D01*
X81213413Y-95239815D01*
X81192771Y-95223181D01*
X77634161Y-91664570D01*
X77600676Y-91603247D01*
X77601636Y-91546449D01*
X77638094Y-91402479D01*
X77638096Y-91402468D01*
X77653000Y-91222598D01*
X77653000Y-91007402D01*
X77652556Y-91002047D01*
X77638095Y-90827524D01*
X77578983Y-90594095D01*
X77482255Y-90373578D01*
X77350551Y-90171990D01*
X77187463Y-89994829D01*
X77048253Y-89886478D01*
X76997441Y-89846929D01*
X76997432Y-89846923D01*
X76890482Y-89789044D01*
X76840891Y-89739825D01*
X76825500Y-89679990D01*
X76825500Y-86360000D01*
X88664341Y-86360000D01*
X88684936Y-86595403D01*
X88684938Y-86595413D01*
X88746094Y-86823655D01*
X88746096Y-86823659D01*
X88746097Y-86823663D01*
X88747419Y-86826497D01*
X88845964Y-87037828D01*
X88845965Y-87037830D01*
X88981505Y-87231402D01*
X89128704Y-87378601D01*
X89162189Y-87439924D01*
X89157205Y-87509616D01*
X89115333Y-87565549D01*
X89106120Y-87571820D01*
X88951347Y-87667285D01*
X88951343Y-87667288D01*
X88827289Y-87791342D01*
X88735187Y-87940663D01*
X88735185Y-87940668D01*
X88717166Y-87995047D01*
X88680001Y-88107203D01*
X88680001Y-88107204D01*
X88680000Y-88107204D01*
X88669500Y-88209983D01*
X88669500Y-89510001D01*
X88669501Y-89510018D01*
X88680000Y-89612796D01*
X88680001Y-89612799D01*
X88703448Y-89683556D01*
X88735186Y-89779334D01*
X88827288Y-89928656D01*
X88951344Y-90052712D01*
X89100666Y-90144814D01*
X89267203Y-90199999D01*
X89369991Y-90210500D01*
X90970008Y-90210499D01*
X91072797Y-90199999D01*
X91172218Y-90167053D01*
X91242043Y-90164652D01*
X91302086Y-90200383D01*
X91333279Y-90262903D01*
X91333587Y-90304820D01*
X91315740Y-90413683D01*
X91315739Y-90413683D01*
X91325755Y-90598406D01*
X91325755Y-90598411D01*
X91375244Y-90776656D01*
X91375247Y-90776662D01*
X91461898Y-90940102D01*
X91524540Y-91013850D01*
X91581663Y-91081100D01*
X91728936Y-91193054D01*
X91896833Y-91270732D01*
X91896834Y-91270732D01*
X91896836Y-91270733D01*
X91951648Y-91282797D01*
X92077503Y-91310500D01*
X92077506Y-91310500D01*
X92216107Y-91310500D01*
X92216113Y-91310500D01*
X92353910Y-91295514D01*
X92529221Y-91236444D01*
X92687736Y-91141070D01*
X92822041Y-91013849D01*
X92925858Y-90860730D01*
X92939089Y-90827524D01*
X92994330Y-90688877D01*
X92994329Y-90688877D01*
X92994331Y-90688875D01*
X93024260Y-90506317D01*
X93014245Y-90321593D01*
X92997950Y-90262903D01*
X92964755Y-90143343D01*
X92964752Y-90143337D01*
X92878101Y-89979897D01*
X92758337Y-89838900D01*
X92612733Y-89728214D01*
X92571276Y-89671975D01*
X92566807Y-89602248D01*
X92600743Y-89541174D01*
X92662312Y-89508142D01*
X92687775Y-89505500D01*
X97210812Y-89505500D01*
X97277851Y-89525185D01*
X97312387Y-89558377D01*
X97424954Y-89719141D01*
X97585858Y-89880045D01*
X97619546Y-89903633D01*
X97772266Y-90010568D01*
X97978504Y-90106739D01*
X98198308Y-90165635D01*
X98360230Y-90179801D01*
X98424998Y-90185468D01*
X98425000Y-90185468D01*
X98425002Y-90185468D01*
X98481673Y-90180509D01*
X98651692Y-90165635D01*
X98871496Y-90106739D01*
X99077734Y-90010568D01*
X99264139Y-89880047D01*
X99425047Y-89719139D01*
X99555568Y-89532734D01*
X99651739Y-89326496D01*
X99710635Y-89106692D01*
X99730468Y-88880000D01*
X99729549Y-88869500D01*
X99714009Y-88691874D01*
X99710635Y-88653308D01*
X99651739Y-88433504D01*
X99555568Y-88227266D01*
X99425047Y-88040861D01*
X99425045Y-88040858D01*
X99264141Y-87879954D01*
X99077734Y-87749432D01*
X99074232Y-87747799D01*
X99062614Y-87742381D01*
X99010176Y-87696211D01*
X98991023Y-87629018D01*
X99011238Y-87562136D01*
X99062614Y-87517618D01*
X99077734Y-87510568D01*
X99264139Y-87380047D01*
X99425047Y-87219139D01*
X99555568Y-87032734D01*
X99651739Y-86826496D01*
X99710635Y-86606692D01*
X99730468Y-86380000D01*
X99729549Y-86369500D01*
X99717590Y-86232807D01*
X99710635Y-86153308D01*
X99651739Y-85933504D01*
X99555568Y-85727266D01*
X99425047Y-85540861D01*
X99425045Y-85540858D01*
X99264141Y-85379954D01*
X99077734Y-85249432D01*
X99077732Y-85249431D01*
X98871497Y-85153261D01*
X98871488Y-85153258D01*
X98651697Y-85094366D01*
X98651693Y-85094365D01*
X98651692Y-85094365D01*
X98651691Y-85094364D01*
X98651686Y-85094364D01*
X98425002Y-85074532D01*
X98424998Y-85074532D01*
X98198313Y-85094364D01*
X98198302Y-85094366D01*
X97978511Y-85153258D01*
X97978502Y-85153261D01*
X97772267Y-85249431D01*
X97772265Y-85249432D01*
X97585858Y-85379954D01*
X97424954Y-85540858D01*
X97312387Y-85701623D01*
X97257811Y-85745248D01*
X97210812Y-85754500D01*
X91606759Y-85754500D01*
X91539720Y-85734815D01*
X91497469Y-85686441D01*
X91496743Y-85686861D01*
X91494612Y-85683171D01*
X91494374Y-85682898D01*
X91494035Y-85682171D01*
X91358495Y-85488599D01*
X91358494Y-85488597D01*
X91191402Y-85321505D01*
X90997830Y-85185965D01*
X90997828Y-85185964D01*
X90890746Y-85136031D01*
X90783663Y-85086097D01*
X90783659Y-85086096D01*
X90783655Y-85086094D01*
X90555413Y-85024938D01*
X90555403Y-85024936D01*
X90378966Y-85009500D01*
X89961034Y-85009500D01*
X89784596Y-85024936D01*
X89784586Y-85024938D01*
X89556344Y-85086094D01*
X89556335Y-85086098D01*
X89342171Y-85185964D01*
X89342169Y-85185965D01*
X89148597Y-85321505D01*
X88981506Y-85488597D01*
X88981501Y-85488604D01*
X88845967Y-85682165D01*
X88845965Y-85682169D01*
X88746098Y-85896335D01*
X88746094Y-85896344D01*
X88684938Y-86124586D01*
X88684938Y-86124588D01*
X88684937Y-86124592D01*
X88671023Y-86283626D01*
X88664341Y-86359999D01*
X88664341Y-86360000D01*
X76825500Y-86360000D01*
X76825500Y-85807742D01*
X76827224Y-85792122D01*
X76826939Y-85792096D01*
X76827671Y-85784340D01*
X76827673Y-85784333D01*
X76825500Y-85715185D01*
X76825500Y-85685650D01*
X76824631Y-85678772D01*
X76824172Y-85672943D01*
X76822709Y-85626372D01*
X76817122Y-85607144D01*
X76813174Y-85588084D01*
X76810663Y-85568204D01*
X76793512Y-85524887D01*
X76791619Y-85519358D01*
X76778618Y-85474609D01*
X76778616Y-85474606D01*
X76768423Y-85457371D01*
X76759861Y-85439894D01*
X76752487Y-85421270D01*
X76752486Y-85421268D01*
X76725079Y-85383545D01*
X76721888Y-85378686D01*
X76698172Y-85338583D01*
X76698165Y-85338574D01*
X76684006Y-85324415D01*
X76671368Y-85309619D01*
X76659594Y-85293413D01*
X76623688Y-85263709D01*
X76619376Y-85259786D01*
X66357803Y-74998212D01*
X66347980Y-74985950D01*
X66347759Y-74986134D01*
X66342786Y-74980123D01*
X66335601Y-74973376D01*
X66292364Y-74932773D01*
X66280090Y-74920499D01*
X66271475Y-74911883D01*
X66265986Y-74907625D01*
X66261561Y-74903847D01*
X66227582Y-74871938D01*
X66227580Y-74871936D01*
X66227577Y-74871935D01*
X66210029Y-74862288D01*
X66193763Y-74851604D01*
X66192960Y-74850981D01*
X66177936Y-74839327D01*
X66177935Y-74839326D01*
X66177933Y-74839325D01*
X66135168Y-74820818D01*
X66129922Y-74818248D01*
X66089093Y-74795803D01*
X66089092Y-74795802D01*
X66069693Y-74790822D01*
X66051281Y-74784518D01*
X66032898Y-74776562D01*
X66032892Y-74776560D01*
X65986874Y-74769272D01*
X65981152Y-74768087D01*
X65936021Y-74756500D01*
X65936019Y-74756500D01*
X65915984Y-74756500D01*
X65896586Y-74754973D01*
X65889162Y-74753797D01*
X65876805Y-74751840D01*
X65876804Y-74751840D01*
X65830416Y-74756225D01*
X65824578Y-74756500D01*
X65479978Y-74756500D01*
X65412939Y-74736815D01*
X65367184Y-74684011D01*
X65357240Y-74614853D01*
X65360201Y-74600414D01*
X65383070Y-74515068D01*
X65402323Y-74295000D01*
X65383070Y-74074932D01*
X65325894Y-73861550D01*
X65232534Y-73661339D01*
X65105826Y-73480380D01*
X64949620Y-73324174D01*
X64949616Y-73324171D01*
X64949615Y-73324170D01*
X64768666Y-73197468D01*
X64768658Y-73197464D01*
X64639811Y-73137382D01*
X64587371Y-73091210D01*
X64568219Y-73024017D01*
X64588435Y-72957135D01*
X64639811Y-72912618D01*
X64645802Y-72909824D01*
X64768662Y-72852534D01*
X64949620Y-72725826D01*
X65105826Y-72569620D01*
X65232534Y-72388662D01*
X65325894Y-72188450D01*
X65383070Y-71975068D01*
X65402323Y-71755000D01*
X65400771Y-71737265D01*
X65384698Y-71553546D01*
X65383070Y-71534932D01*
X65325894Y-71321550D01*
X65232534Y-71121339D01*
X65127052Y-70970694D01*
X65105827Y-70940381D01*
X65081304Y-70915858D01*
X64949620Y-70784174D01*
X64949616Y-70784171D01*
X64949615Y-70784170D01*
X64768666Y-70657468D01*
X64768658Y-70657464D01*
X64639811Y-70597382D01*
X64587371Y-70551210D01*
X64568219Y-70484017D01*
X64588435Y-70417135D01*
X64639811Y-70372618D01*
X64645802Y-70369824D01*
X64768662Y-70312534D01*
X64949620Y-70185826D01*
X65105826Y-70029620D01*
X65232534Y-69848662D01*
X65325894Y-69648450D01*
X65383070Y-69435068D01*
X65398860Y-69254582D01*
X65402323Y-69215002D01*
X65402323Y-69214997D01*
X65394847Y-69129548D01*
X65383070Y-68994932D01*
X65325894Y-68781550D01*
X65232534Y-68581339D01*
X65105826Y-68400380D01*
X64949620Y-68244174D01*
X64949616Y-68244171D01*
X64949615Y-68244170D01*
X64768666Y-68117468D01*
X64768658Y-68117464D01*
X64639811Y-68057382D01*
X64587371Y-68011210D01*
X64568219Y-67944017D01*
X64588435Y-67877135D01*
X64639811Y-67832618D01*
X64645802Y-67829824D01*
X64768662Y-67772534D01*
X64949620Y-67645826D01*
X65105826Y-67489620D01*
X65232534Y-67308662D01*
X65325894Y-67108450D01*
X65383070Y-66895068D01*
X65402323Y-66675000D01*
X65400771Y-66657265D01*
X65395103Y-66592474D01*
X65383070Y-66454932D01*
X65325894Y-66241550D01*
X65232534Y-66041339D01*
X65105826Y-65860380D01*
X64949620Y-65704174D01*
X64949616Y-65704171D01*
X64949615Y-65704170D01*
X64768666Y-65577468D01*
X64768658Y-65577464D01*
X64639811Y-65517382D01*
X64587371Y-65471210D01*
X64568219Y-65404017D01*
X64588435Y-65337135D01*
X64639811Y-65292618D01*
X64645802Y-65289824D01*
X64768662Y-65232534D01*
X64949620Y-65105826D01*
X65105826Y-64949620D01*
X65232534Y-64768662D01*
X65325894Y-64568450D01*
X65383070Y-64355068D01*
X65398881Y-64174343D01*
X65402323Y-64135002D01*
X65402323Y-64134997D01*
X65383070Y-63914937D01*
X65383070Y-63914933D01*
X65383070Y-63914932D01*
X65325894Y-63701550D01*
X65232534Y-63501339D01*
X65133662Y-63360134D01*
X65105827Y-63320381D01*
X65081625Y-63296179D01*
X64949620Y-63164174D01*
X64949616Y-63164171D01*
X64949615Y-63164170D01*
X64768666Y-63037468D01*
X64768658Y-63037464D01*
X64639811Y-62977382D01*
X64587371Y-62931210D01*
X64568219Y-62864017D01*
X64588435Y-62797135D01*
X64639811Y-62752618D01*
X64645802Y-62749824D01*
X64768662Y-62692534D01*
X64949620Y-62565826D01*
X65105826Y-62409620D01*
X65232534Y-62228662D01*
X65325894Y-62028450D01*
X65383070Y-61815068D01*
X65402323Y-61595000D01*
X65400793Y-61577517D01*
X65391300Y-61469000D01*
X65383070Y-61374932D01*
X65325894Y-61161550D01*
X65232534Y-60961339D01*
X65153099Y-60847893D01*
X65105827Y-60780381D01*
X65036862Y-60711416D01*
X64949620Y-60624174D01*
X64949616Y-60624171D01*
X64949615Y-60624170D01*
X64768666Y-60497468D01*
X64768658Y-60497464D01*
X64639811Y-60437382D01*
X64587371Y-60391210D01*
X64568219Y-60324017D01*
X64588435Y-60257135D01*
X64639811Y-60212618D01*
X64645802Y-60209824D01*
X64768662Y-60152534D01*
X64949620Y-60025826D01*
X65105826Y-59869620D01*
X65232534Y-59688662D01*
X65325894Y-59488450D01*
X65383070Y-59275068D01*
X65398880Y-59094350D01*
X65402323Y-59055002D01*
X65402323Y-59054997D01*
X65394828Y-58969333D01*
X65383070Y-58834932D01*
X65325894Y-58621550D01*
X65232534Y-58421339D01*
X65119629Y-58260093D01*
X65105827Y-58240381D01*
X65036862Y-58171416D01*
X64949620Y-58084174D01*
X64949616Y-58084171D01*
X64949615Y-58084170D01*
X64768666Y-57957468D01*
X64768658Y-57957464D01*
X64639811Y-57897382D01*
X64587371Y-57851210D01*
X64568219Y-57784017D01*
X64588435Y-57717135D01*
X64639811Y-57672618D01*
X64676840Y-57655351D01*
X64768662Y-57612534D01*
X64949620Y-57485826D01*
X65105826Y-57329620D01*
X65225523Y-57158673D01*
X65280098Y-57115050D01*
X65349597Y-57107856D01*
X65411952Y-57139379D01*
X65414778Y-57142117D01*
X68553181Y-60280520D01*
X68586666Y-60341843D01*
X68589500Y-60368201D01*
X68589500Y-65322255D01*
X68587775Y-65337872D01*
X68588061Y-65337899D01*
X68587326Y-65345665D01*
X68589500Y-65414814D01*
X68589500Y-65444343D01*
X68589501Y-65444360D01*
X68590368Y-65451231D01*
X68590826Y-65457050D01*
X68592290Y-65503624D01*
X68592291Y-65503627D01*
X68597880Y-65522867D01*
X68601824Y-65541911D01*
X68604336Y-65561792D01*
X68621490Y-65605119D01*
X68623382Y-65610647D01*
X68636381Y-65655388D01*
X68646580Y-65672634D01*
X68655138Y-65690103D01*
X68662514Y-65708732D01*
X68689898Y-65746423D01*
X68693106Y-65751307D01*
X68716827Y-65791416D01*
X68716833Y-65791424D01*
X68730990Y-65805580D01*
X68743628Y-65820376D01*
X68754878Y-65835861D01*
X68755406Y-65836587D01*
X68784168Y-65860381D01*
X68791309Y-65866288D01*
X68795620Y-65870210D01*
X77354608Y-74429199D01*
X80144197Y-77218788D01*
X80154022Y-77231051D01*
X80154243Y-77230869D01*
X80159214Y-77236878D01*
X80185217Y-77261295D01*
X80209635Y-77284226D01*
X80230529Y-77305120D01*
X80236011Y-77309373D01*
X80240443Y-77313157D01*
X80274418Y-77345062D01*
X80291976Y-77354714D01*
X80308233Y-77365393D01*
X80324064Y-77377673D01*
X80343737Y-77386186D01*
X80366833Y-77396182D01*
X80372077Y-77398750D01*
X80412908Y-77421197D01*
X80425523Y-77424435D01*
X80432305Y-77426177D01*
X80450719Y-77432481D01*
X80469104Y-77440438D01*
X80515157Y-77447732D01*
X80520826Y-77448906D01*
X80565981Y-77460500D01*
X80586016Y-77460500D01*
X80605413Y-77462026D01*
X80625196Y-77465160D01*
X80671584Y-77460775D01*
X80677422Y-77460500D01*
X83287200Y-77460500D01*
X83354239Y-77480185D01*
X83388775Y-77513376D01*
X83484174Y-77649620D01*
X83484175Y-77649621D01*
X83640378Y-77805824D01*
X83640384Y-77805829D01*
X83821333Y-77932531D01*
X83821335Y-77932532D01*
X83821338Y-77932534D01*
X83940748Y-77988215D01*
X83950189Y-77992618D01*
X84002628Y-78038790D01*
X84021780Y-78105984D01*
X84001564Y-78172865D01*
X83950189Y-78217382D01*
X83821340Y-78277465D01*
X83821338Y-78277466D01*
X83640377Y-78404175D01*
X83484175Y-78560377D01*
X83357466Y-78741338D01*
X83357465Y-78741340D01*
X83264107Y-78941548D01*
X83264104Y-78941554D01*
X83206930Y-79154929D01*
X83206929Y-79154937D01*
X83187677Y-79374997D01*
X83187677Y-79375002D01*
X83206929Y-79595062D01*
X83206930Y-79595070D01*
X83264104Y-79808445D01*
X83264105Y-79808447D01*
X83264106Y-79808450D01*
X83344259Y-79980340D01*
X83357466Y-80008662D01*
X83357468Y-80008666D01*
X83484170Y-80189615D01*
X83484175Y-80189621D01*
X83640378Y-80345824D01*
X83640384Y-80345829D01*
X83821333Y-80472531D01*
X83821335Y-80472532D01*
X83821338Y-80472534D01*
X84021550Y-80565894D01*
X84234932Y-80623070D01*
X84377011Y-80635500D01*
X84454998Y-80642323D01*
X84455000Y-80642323D01*
X84455002Y-80642323D01*
X84510017Y-80637509D01*
X84675068Y-80623070D01*
X84888450Y-80565894D01*
X85088662Y-80472534D01*
X85269620Y-80345826D01*
X85425826Y-80189620D01*
X85552534Y-80008662D01*
X85645894Y-79808450D01*
X85703070Y-79595068D01*
X85722323Y-79375000D01*
X85720771Y-79357265D01*
X85704708Y-79173656D01*
X85703070Y-79154932D01*
X85645894Y-78941550D01*
X85552534Y-78741339D01*
X85454205Y-78600910D01*
X85425827Y-78560381D01*
X85375491Y-78510045D01*
X85269620Y-78404174D01*
X85269616Y-78404171D01*
X85269615Y-78404170D01*
X85088666Y-78277468D01*
X85088658Y-78277464D01*
X84959811Y-78217382D01*
X84907371Y-78171210D01*
X84888219Y-78104017D01*
X84908435Y-78037135D01*
X84959811Y-77992618D01*
X84965802Y-77989824D01*
X85088662Y-77932534D01*
X85269620Y-77805826D01*
X85425826Y-77649620D01*
X85552534Y-77468662D01*
X85645894Y-77268450D01*
X85703070Y-77055068D01*
X85720487Y-76855986D01*
X85722323Y-76835002D01*
X85722323Y-76834997D01*
X85711341Y-76709474D01*
X85703070Y-76614932D01*
X85645894Y-76401550D01*
X85552534Y-76201339D01*
X85457634Y-76065807D01*
X85425827Y-76020381D01*
X85348628Y-75943182D01*
X85269620Y-75864174D01*
X85269616Y-75864171D01*
X85269615Y-75864170D01*
X85088666Y-75737468D01*
X85088658Y-75737464D01*
X84959811Y-75677382D01*
X84907371Y-75631210D01*
X84888219Y-75564017D01*
X84908435Y-75497135D01*
X84959811Y-75452618D01*
X84965802Y-75449824D01*
X85088662Y-75392534D01*
X85269620Y-75265826D01*
X85425826Y-75109620D01*
X85552534Y-74928662D01*
X85645894Y-74728450D01*
X85703070Y-74515068D01*
X85722323Y-74295000D01*
X85703070Y-74074932D01*
X85645894Y-73861550D01*
X85552534Y-73661339D01*
X85425826Y-73480380D01*
X85269620Y-73324174D01*
X85269616Y-73324171D01*
X85269615Y-73324170D01*
X85088666Y-73197468D01*
X85088658Y-73197464D01*
X84959811Y-73137382D01*
X84907371Y-73091210D01*
X84888219Y-73024017D01*
X84908435Y-72957135D01*
X84959811Y-72912618D01*
X84965802Y-72909824D01*
X85088662Y-72852534D01*
X85269620Y-72725826D01*
X85425826Y-72569620D01*
X85552534Y-72388662D01*
X85645894Y-72188450D01*
X85703070Y-71975068D01*
X85722323Y-71755000D01*
X85720771Y-71737265D01*
X85704698Y-71553546D01*
X85703070Y-71534932D01*
X85645894Y-71321550D01*
X85552534Y-71121339D01*
X85447052Y-70970694D01*
X85425827Y-70940381D01*
X85401304Y-70915858D01*
X85269620Y-70784174D01*
X85269616Y-70784171D01*
X85269615Y-70784170D01*
X85088666Y-70657468D01*
X85088658Y-70657464D01*
X84959811Y-70597382D01*
X84907371Y-70551210D01*
X84888219Y-70484017D01*
X84908435Y-70417135D01*
X84959811Y-70372618D01*
X84965802Y-70369824D01*
X85088662Y-70312534D01*
X85269620Y-70185826D01*
X85425826Y-70029620D01*
X85552534Y-69848662D01*
X85645894Y-69648450D01*
X85703070Y-69435068D01*
X85718860Y-69254582D01*
X85722323Y-69215002D01*
X85722323Y-69214997D01*
X85714847Y-69129548D01*
X85703070Y-68994932D01*
X85645894Y-68781550D01*
X85552534Y-68581339D01*
X85425826Y-68400380D01*
X85269620Y-68244174D01*
X85269616Y-68244171D01*
X85269615Y-68244170D01*
X85088666Y-68117468D01*
X85088658Y-68117464D01*
X84959811Y-68057382D01*
X84907371Y-68011210D01*
X84888219Y-67944017D01*
X84908435Y-67877135D01*
X84959811Y-67832618D01*
X84965802Y-67829824D01*
X85088662Y-67772534D01*
X85269620Y-67645826D01*
X85425826Y-67489620D01*
X85552534Y-67308662D01*
X85645894Y-67108450D01*
X85703070Y-66895068D01*
X85722323Y-66675000D01*
X85720771Y-66657265D01*
X85715103Y-66592474D01*
X85703070Y-66454932D01*
X85645894Y-66241550D01*
X85552534Y-66041339D01*
X85425826Y-65860380D01*
X85269620Y-65704174D01*
X85269616Y-65704171D01*
X85269615Y-65704170D01*
X85088666Y-65577468D01*
X85088658Y-65577464D01*
X84959811Y-65517382D01*
X84907371Y-65471210D01*
X84888219Y-65404017D01*
X84908435Y-65337135D01*
X84959811Y-65292618D01*
X84965802Y-65289824D01*
X85088662Y-65232534D01*
X85269620Y-65105826D01*
X85425826Y-64949620D01*
X85552534Y-64768662D01*
X85645894Y-64568450D01*
X85703070Y-64355068D01*
X85718881Y-64174343D01*
X85722323Y-64135002D01*
X85722323Y-64134997D01*
X85703070Y-63914937D01*
X85703070Y-63914933D01*
X85703070Y-63914932D01*
X85645894Y-63701550D01*
X85552534Y-63501339D01*
X85453662Y-63360134D01*
X85425827Y-63320381D01*
X85401625Y-63296179D01*
X85269620Y-63164174D01*
X85269616Y-63164171D01*
X85269615Y-63164170D01*
X85088666Y-63037468D01*
X85088658Y-63037464D01*
X84959811Y-62977382D01*
X84907371Y-62931210D01*
X84888219Y-62864017D01*
X84908435Y-62797135D01*
X84959811Y-62752618D01*
X84965802Y-62749824D01*
X85088662Y-62692534D01*
X85269620Y-62565826D01*
X85425826Y-62409620D01*
X85552534Y-62228662D01*
X85645894Y-62028450D01*
X85703070Y-61815068D01*
X85722323Y-61595000D01*
X85720793Y-61577517D01*
X85711300Y-61469000D01*
X85703070Y-61374932D01*
X85645894Y-61161550D01*
X85552534Y-60961339D01*
X85473099Y-60847893D01*
X85425827Y-60780381D01*
X85356862Y-60711416D01*
X85269620Y-60624174D01*
X85269616Y-60624171D01*
X85269615Y-60624170D01*
X85088666Y-60497468D01*
X85088658Y-60497464D01*
X84959811Y-60437382D01*
X84907371Y-60391210D01*
X84888219Y-60324017D01*
X84908435Y-60257135D01*
X84959811Y-60212618D01*
X84965802Y-60209824D01*
X85088662Y-60152534D01*
X85269620Y-60025826D01*
X85425826Y-59869620D01*
X85552534Y-59688662D01*
X85645894Y-59488450D01*
X85703070Y-59275068D01*
X85718880Y-59094350D01*
X85722323Y-59055002D01*
X85722323Y-59054997D01*
X85714828Y-58969333D01*
X85703070Y-58834932D01*
X85691292Y-58790976D01*
X85692955Y-58721128D01*
X85723384Y-58671205D01*
X86743788Y-57650801D01*
X86756042Y-57640986D01*
X86755859Y-57640764D01*
X86761866Y-57635792D01*
X86761877Y-57635786D01*
X86798772Y-57596497D01*
X86809227Y-57585364D01*
X86819671Y-57574918D01*
X86830120Y-57564471D01*
X86834379Y-57558978D01*
X86838152Y-57554561D01*
X86870062Y-57520582D01*
X86879715Y-57503020D01*
X86890389Y-57486770D01*
X86902673Y-57470936D01*
X86921180Y-57428167D01*
X86923749Y-57422924D01*
X86946196Y-57382093D01*
X86946197Y-57382092D01*
X86951177Y-57362691D01*
X86957478Y-57344288D01*
X86965438Y-57325896D01*
X86972730Y-57279849D01*
X86973911Y-57274152D01*
X86985500Y-57229019D01*
X86985500Y-57208983D01*
X86987027Y-57189582D01*
X86990160Y-57169804D01*
X86985775Y-57123415D01*
X86985500Y-57117577D01*
X86985500Y-53650452D01*
X87005185Y-53583413D01*
X87021819Y-53562771D01*
X87201329Y-53383261D01*
X87387821Y-53196768D01*
X87449142Y-53163285D01*
X87518833Y-53168269D01*
X87574767Y-53210140D01*
X87599184Y-53275605D01*
X87599500Y-53284451D01*
X87599500Y-54822870D01*
X87599501Y-54822876D01*
X87605908Y-54882483D01*
X87656202Y-55017328D01*
X87656206Y-55017335D01*
X87742452Y-55132544D01*
X87742455Y-55132547D01*
X87857664Y-55218793D01*
X87857671Y-55218797D01*
X87902618Y-55235561D01*
X87992517Y-55269091D01*
X88027596Y-55272862D01*
X88092144Y-55299599D01*
X88131993Y-55356991D01*
X88134488Y-55426816D01*
X88098836Y-55486905D01*
X88085464Y-55497725D01*
X88060858Y-55514954D01*
X87899954Y-55675858D01*
X87769432Y-55862265D01*
X87769431Y-55862267D01*
X87673261Y-56068502D01*
X87673258Y-56068511D01*
X87614366Y-56288302D01*
X87614364Y-56288313D01*
X87594532Y-56514998D01*
X87594532Y-56515001D01*
X87614364Y-56741686D01*
X87614366Y-56741697D01*
X87673258Y-56961488D01*
X87673261Y-56961497D01*
X87769431Y-57167732D01*
X87769432Y-57167734D01*
X87899954Y-57354141D01*
X88060858Y-57515045D01*
X88060861Y-57515047D01*
X88247266Y-57645568D01*
X88305275Y-57672618D01*
X88357714Y-57718791D01*
X88376866Y-57785984D01*
X88356650Y-57852865D01*
X88305275Y-57897382D01*
X88247267Y-57924431D01*
X88247265Y-57924432D01*
X88060858Y-58054954D01*
X87899954Y-58215858D01*
X87769432Y-58402265D01*
X87769431Y-58402267D01*
X87673261Y-58608502D01*
X87673258Y-58608511D01*
X87614366Y-58828302D01*
X87614364Y-58828313D01*
X87596083Y-59037267D01*
X87594532Y-59055000D01*
X87614364Y-59281686D01*
X87614365Y-59281691D01*
X87614366Y-59281697D01*
X87632680Y-59350048D01*
X87631017Y-59419897D01*
X87600586Y-59469821D01*
X86611208Y-60459199D01*
X86598951Y-60469020D01*
X86599134Y-60469241D01*
X86593123Y-60474213D01*
X86545772Y-60524636D01*
X86524889Y-60545519D01*
X86524877Y-60545532D01*
X86520621Y-60551017D01*
X86516837Y-60555447D01*
X86484937Y-60589418D01*
X86484936Y-60589420D01*
X86475284Y-60606976D01*
X86464610Y-60623226D01*
X86452329Y-60639061D01*
X86452324Y-60639068D01*
X86433815Y-60681838D01*
X86431245Y-60687084D01*
X86408803Y-60727906D01*
X86403822Y-60747307D01*
X86397521Y-60765710D01*
X86389562Y-60784102D01*
X86389561Y-60784105D01*
X86382271Y-60830127D01*
X86381087Y-60835846D01*
X86369501Y-60880972D01*
X86369500Y-60880982D01*
X86369500Y-60901016D01*
X86367973Y-60920415D01*
X86364840Y-60940194D01*
X86364840Y-60940195D01*
X86369225Y-60986583D01*
X86369500Y-60992421D01*
X86369500Y-76117255D01*
X86367775Y-76132872D01*
X86368061Y-76132899D01*
X86367326Y-76140665D01*
X86369500Y-76209814D01*
X86369500Y-76239343D01*
X86369501Y-76239360D01*
X86370368Y-76246231D01*
X86370826Y-76252050D01*
X86372290Y-76298624D01*
X86372291Y-76298627D01*
X86377880Y-76317867D01*
X86381824Y-76336911D01*
X86384336Y-76356792D01*
X86401490Y-76400119D01*
X86403382Y-76405647D01*
X86414530Y-76444018D01*
X86416382Y-76450390D01*
X86421287Y-76458685D01*
X86426580Y-76467634D01*
X86435138Y-76485103D01*
X86442514Y-76503732D01*
X86469898Y-76541423D01*
X86473106Y-76546307D01*
X86496827Y-76586416D01*
X86496833Y-76586424D01*
X86510990Y-76600580D01*
X86523627Y-76615375D01*
X86535406Y-76631587D01*
X86549412Y-76643174D01*
X86571309Y-76661288D01*
X86575620Y-76665210D01*
X87716234Y-77805824D01*
X88792032Y-78881622D01*
X88825517Y-78942945D01*
X88820533Y-79012637D01*
X88809891Y-79034397D01*
X88775187Y-79090663D01*
X88775186Y-79090665D01*
X88775186Y-79090666D01*
X88720001Y-79257203D01*
X88720001Y-79257204D01*
X88720000Y-79257204D01*
X88709500Y-79359983D01*
X88709500Y-80660001D01*
X88709501Y-80660018D01*
X88720000Y-80762796D01*
X88720001Y-80762799D01*
X88756200Y-80872039D01*
X88775186Y-80929334D01*
X88867288Y-81078656D01*
X88991344Y-81202712D01*
X89140666Y-81294814D01*
X89307203Y-81349999D01*
X89409991Y-81360500D01*
X91010008Y-81360499D01*
X91112797Y-81349999D01*
X91212218Y-81317053D01*
X91282043Y-81314652D01*
X91342086Y-81350383D01*
X91373279Y-81412903D01*
X91373587Y-81454820D01*
X91355740Y-81563683D01*
X91355739Y-81563683D01*
X91365755Y-81748406D01*
X91365755Y-81748411D01*
X91415244Y-81926656D01*
X91415247Y-81926662D01*
X91501898Y-82090102D01*
X91564540Y-82163850D01*
X91621663Y-82231100D01*
X91768936Y-82343054D01*
X91936833Y-82420732D01*
X91936834Y-82420732D01*
X91936836Y-82420733D01*
X91991648Y-82432797D01*
X92117503Y-82460500D01*
X92117506Y-82460500D01*
X92256107Y-82460500D01*
X92256113Y-82460500D01*
X92393910Y-82445514D01*
X92569221Y-82386444D01*
X92727736Y-82291070D01*
X92862041Y-82163849D01*
X92965858Y-82010730D01*
X93034331Y-81838875D01*
X93064260Y-81656317D01*
X93054245Y-81471593D01*
X93054244Y-81471588D01*
X93004755Y-81293343D01*
X93004752Y-81293337D01*
X92918101Y-81129897D01*
X92798337Y-80988900D01*
X92651064Y-80876946D01*
X92640456Y-80872038D01*
X92587880Y-80826025D01*
X92568526Y-80758889D01*
X92588540Y-80691947D01*
X92641569Y-80646453D01*
X92692524Y-80635500D01*
X97210812Y-80635500D01*
X97277851Y-80655185D01*
X97312387Y-80688377D01*
X97424954Y-80849141D01*
X97585858Y-81010045D01*
X97585861Y-81010047D01*
X97772266Y-81140568D01*
X97978504Y-81236739D01*
X98198308Y-81295635D01*
X98360230Y-81309801D01*
X98424998Y-81315468D01*
X98425000Y-81315468D01*
X98425002Y-81315468D01*
X98481673Y-81310509D01*
X98651692Y-81295635D01*
X98871496Y-81236739D01*
X99077734Y-81140568D01*
X99264139Y-81010047D01*
X99425047Y-80849139D01*
X99555568Y-80662734D01*
X99651739Y-80456496D01*
X99710635Y-80236692D01*
X99730468Y-80010000D01*
X99729549Y-79999500D01*
X99714009Y-79821874D01*
X99710635Y-79783308D01*
X99651739Y-79563504D01*
X99555568Y-79357266D01*
X99425047Y-79170861D01*
X99425045Y-79170858D01*
X99264141Y-79009954D01*
X99077734Y-78879432D01*
X99062614Y-78872381D01*
X99010176Y-78826211D01*
X98991023Y-78759018D01*
X99011238Y-78692136D01*
X99062614Y-78647618D01*
X99077734Y-78640568D01*
X99264139Y-78510047D01*
X99425047Y-78349139D01*
X99555568Y-78162734D01*
X99651739Y-77956496D01*
X99710635Y-77736692D01*
X99730468Y-77510000D01*
X99729549Y-77499500D01*
X99720735Y-77398752D01*
X99710635Y-77283308D01*
X99651739Y-77063504D01*
X99555568Y-76857266D01*
X99435603Y-76685936D01*
X99425045Y-76670858D01*
X99264141Y-76509954D01*
X99077734Y-76379432D01*
X99077732Y-76379431D01*
X98871497Y-76283261D01*
X98871488Y-76283258D01*
X98651697Y-76224366D01*
X98651693Y-76224365D01*
X98651692Y-76224365D01*
X98651691Y-76224364D01*
X98651686Y-76224364D01*
X98425002Y-76204532D01*
X98424998Y-76204532D01*
X98198313Y-76224364D01*
X98198302Y-76224366D01*
X97978511Y-76283258D01*
X97978502Y-76283261D01*
X97772267Y-76379431D01*
X97772265Y-76379432D01*
X97585858Y-76509954D01*
X97424954Y-76670858D01*
X97312387Y-76831623D01*
X97257811Y-76875248D01*
X97210812Y-76884500D01*
X91635227Y-76884500D01*
X91568188Y-76864815D01*
X91533652Y-76831623D01*
X91397426Y-76637072D01*
X91375099Y-76570866D01*
X91392109Y-76503099D01*
X91411313Y-76478276D01*
X91823786Y-76065802D01*
X91836048Y-76055980D01*
X91835865Y-76055759D01*
X91841867Y-76050792D01*
X91841877Y-76050786D01*
X91889241Y-76000348D01*
X91910120Y-75979470D01*
X91914373Y-75973986D01*
X91918150Y-75969563D01*
X91950062Y-75935582D01*
X91959714Y-75918023D01*
X91970389Y-75901772D01*
X91982674Y-75885936D01*
X92001186Y-75843152D01*
X92003742Y-75837935D01*
X92026197Y-75797092D01*
X92031180Y-75777680D01*
X92037477Y-75759291D01*
X92045438Y-75740895D01*
X92052729Y-75694853D01*
X92053908Y-75689162D01*
X92065500Y-75644019D01*
X92065500Y-75623983D01*
X92067027Y-75604582D01*
X92070160Y-75584804D01*
X92065775Y-75538415D01*
X92065500Y-75532577D01*
X92065500Y-69297737D01*
X92067224Y-69282123D01*
X92066938Y-69282096D01*
X92067672Y-69274333D01*
X92065500Y-69205202D01*
X92065500Y-69175651D01*
X92065500Y-69175650D01*
X92064629Y-69168759D01*
X92064172Y-69162945D01*
X92062709Y-69116374D01*
X92062709Y-69116372D01*
X92057120Y-69097137D01*
X92053174Y-69078084D01*
X92053167Y-69078030D01*
X92050664Y-69058208D01*
X92033501Y-69014859D01*
X92031614Y-69009346D01*
X92029819Y-69003169D01*
X92018617Y-68964610D01*
X92008421Y-68947369D01*
X91999860Y-68929893D01*
X91992486Y-68911269D01*
X91992486Y-68911267D01*
X91978869Y-68892526D01*
X91965083Y-68873550D01*
X91961900Y-68868705D01*
X91938170Y-68828579D01*
X91938165Y-68828573D01*
X91924005Y-68814413D01*
X91911370Y-68799620D01*
X91899593Y-68783412D01*
X91863693Y-68753713D01*
X91859381Y-68749790D01*
X90199413Y-67089822D01*
X90165928Y-67028499D01*
X90167319Y-66970048D01*
X90185635Y-66901692D01*
X90205468Y-66675000D01*
X90203916Y-66657266D01*
X90187608Y-66470861D01*
X90185635Y-66448308D01*
X90126739Y-66228504D01*
X90030568Y-66022266D01*
X89900047Y-65835861D01*
X89900045Y-65835858D01*
X89739141Y-65674954D01*
X89552734Y-65544432D01*
X89552732Y-65544431D01*
X89526573Y-65532233D01*
X89494132Y-65517105D01*
X89441694Y-65470934D01*
X89422542Y-65403740D01*
X89442758Y-65336859D01*
X89494134Y-65292341D01*
X89552484Y-65265132D01*
X89738820Y-65134657D01*
X89899657Y-64973820D01*
X90030134Y-64787482D01*
X90126265Y-64581326D01*
X90126269Y-64581317D01*
X90178872Y-64385000D01*
X89215686Y-64385000D01*
X89227641Y-64373045D01*
X89285165Y-64260148D01*
X89304986Y-64135000D01*
X89285165Y-64009852D01*
X89227641Y-63896955D01*
X89215686Y-63885000D01*
X90178872Y-63885000D01*
X90178872Y-63884999D01*
X90126269Y-63688682D01*
X90126265Y-63688673D01*
X90030134Y-63482517D01*
X89899657Y-63296179D01*
X89738820Y-63135342D01*
X89552481Y-63004865D01*
X89552479Y-63004864D01*
X89493543Y-62977382D01*
X89441103Y-62931210D01*
X89421951Y-62864017D01*
X89442166Y-62797136D01*
X89493543Y-62752618D01*
X89552479Y-62725135D01*
X89552481Y-62725134D01*
X89738820Y-62594657D01*
X89899657Y-62433820D01*
X90030134Y-62247482D01*
X90126265Y-62041326D01*
X90126269Y-62041317D01*
X90178872Y-61845000D01*
X89215686Y-61845000D01*
X89227641Y-61833045D01*
X89285165Y-61720148D01*
X89304986Y-61595000D01*
X89285165Y-61469852D01*
X89227641Y-61356955D01*
X89215686Y-61345000D01*
X90178872Y-61345000D01*
X90178872Y-61344999D01*
X90126269Y-61148682D01*
X90126265Y-61148673D01*
X90030134Y-60942517D01*
X89899657Y-60756179D01*
X89738820Y-60595342D01*
X89552482Y-60464865D01*
X89494133Y-60437657D01*
X89441694Y-60391484D01*
X89422542Y-60324291D01*
X89442758Y-60257410D01*
X89494129Y-60212895D01*
X89552734Y-60185568D01*
X89739139Y-60055047D01*
X89900047Y-59894139D01*
X90030568Y-59707734D01*
X90126739Y-59501496D01*
X90185635Y-59281692D01*
X90205468Y-59055000D01*
X90203916Y-59037266D01*
X90188484Y-58860876D01*
X90185635Y-58828308D01*
X90126739Y-58608504D01*
X90030568Y-58402266D01*
X89900047Y-58215861D01*
X89900045Y-58215858D01*
X89739141Y-58054954D01*
X89552734Y-57924432D01*
X89552728Y-57924429D01*
X89525038Y-57911517D01*
X89494724Y-57897381D01*
X89442285Y-57851210D01*
X89423133Y-57784017D01*
X89443348Y-57717135D01*
X89494725Y-57672618D01*
X89552734Y-57645568D01*
X89739139Y-57515047D01*
X89900047Y-57354139D01*
X90030568Y-57167734D01*
X90126739Y-56961496D01*
X90185635Y-56741692D01*
X90205468Y-56515000D01*
X90203916Y-56497266D01*
X90193489Y-56378084D01*
X90185635Y-56288308D01*
X90136254Y-56104016D01*
X90126741Y-56068511D01*
X90126738Y-56068502D01*
X90119842Y-56053713D01*
X90030568Y-55862266D01*
X89917213Y-55700377D01*
X89900045Y-55675858D01*
X89739143Y-55514956D01*
X89714536Y-55497726D01*
X89670912Y-55443149D01*
X89663719Y-55373650D01*
X89695241Y-55311296D01*
X89755471Y-55275882D01*
X89772404Y-55272861D01*
X89807483Y-55269091D01*
X89942331Y-55218796D01*
X90057546Y-55132546D01*
X90143796Y-55017331D01*
X90194091Y-54882483D01*
X90200500Y-54822873D01*
X90200500Y-54724500D01*
X90220185Y-54657461D01*
X90272989Y-54611706D01*
X90324500Y-54600500D01*
X95305812Y-54600500D01*
X95372851Y-54620185D01*
X95407387Y-54653377D01*
X95519954Y-54814141D01*
X95680858Y-54975045D01*
X95680861Y-54975047D01*
X95867266Y-55105568D01*
X95925275Y-55132618D01*
X95977714Y-55178791D01*
X95996866Y-55245984D01*
X95976650Y-55312865D01*
X95925275Y-55357382D01*
X95867267Y-55384431D01*
X95867265Y-55384432D01*
X95680858Y-55514954D01*
X95519954Y-55675858D01*
X95389432Y-55862265D01*
X95389431Y-55862267D01*
X95293261Y-56068502D01*
X95293258Y-56068511D01*
X95234366Y-56288302D01*
X95234364Y-56288313D01*
X95214532Y-56514998D01*
X95214532Y-56515001D01*
X95234364Y-56741686D01*
X95234366Y-56741697D01*
X95293258Y-56961488D01*
X95293261Y-56961497D01*
X95389431Y-57167732D01*
X95389432Y-57167734D01*
X95519954Y-57354141D01*
X95680858Y-57515045D01*
X95680861Y-57515047D01*
X95867266Y-57645568D01*
X95925275Y-57672618D01*
X95977714Y-57718791D01*
X95996866Y-57785984D01*
X95976650Y-57852865D01*
X95925275Y-57897382D01*
X95867267Y-57924431D01*
X95867265Y-57924432D01*
X95680858Y-58054954D01*
X95519954Y-58215858D01*
X95389432Y-58402265D01*
X95389431Y-58402267D01*
X95293261Y-58608502D01*
X95293258Y-58608511D01*
X95234366Y-58828302D01*
X95234364Y-58828313D01*
X95216083Y-59037267D01*
X95214532Y-59055000D01*
X95234364Y-59281686D01*
X95234365Y-59281691D01*
X95234366Y-59281697D01*
X95252680Y-59350048D01*
X95251017Y-59419897D01*
X95220586Y-59469821D01*
X92871708Y-61818699D01*
X92859451Y-61828520D01*
X92859634Y-61828741D01*
X92853623Y-61833713D01*
X92806272Y-61884136D01*
X92785389Y-61905019D01*
X92785377Y-61905032D01*
X92781121Y-61910517D01*
X92777337Y-61914947D01*
X92745437Y-61948918D01*
X92745436Y-61948920D01*
X92735784Y-61966476D01*
X92725110Y-61982726D01*
X92712829Y-61998561D01*
X92712824Y-61998568D01*
X92694315Y-62041338D01*
X92691745Y-62046584D01*
X92669303Y-62087406D01*
X92664322Y-62106807D01*
X92658021Y-62125210D01*
X92650062Y-62143602D01*
X92650061Y-62143605D01*
X92646576Y-62165608D01*
X92616644Y-62228742D01*
X92616254Y-62229178D01*
X92522967Y-62332784D01*
X92522965Y-62332785D01*
X92522964Y-62332788D01*
X92428321Y-62496715D01*
X92428318Y-62496722D01*
X92369962Y-62676326D01*
X92369826Y-62676744D01*
X92350040Y-62865000D01*
X92369826Y-63053256D01*
X92369827Y-63053259D01*
X92428318Y-63233277D01*
X92428321Y-63233284D01*
X92522967Y-63397216D01*
X92616719Y-63501338D01*
X92649629Y-63537888D01*
X92802765Y-63649148D01*
X92802770Y-63649151D01*
X92975692Y-63726142D01*
X92975697Y-63726144D01*
X93160854Y-63765500D01*
X93160855Y-63765500D01*
X93350144Y-63765500D01*
X93350146Y-63765500D01*
X93535303Y-63726144D01*
X93708230Y-63649151D01*
X93861371Y-63537888D01*
X93988033Y-63397216D01*
X94082679Y-63233284D01*
X94141174Y-63053256D01*
X94160960Y-62865000D01*
X94141174Y-62676744D01*
X94082679Y-62496716D01*
X94082677Y-62496712D01*
X94080435Y-62491676D01*
X94071148Y-62422426D01*
X94100775Y-62359149D01*
X94106015Y-62353573D01*
X95086209Y-61373380D01*
X95147529Y-61339897D01*
X95217221Y-61344881D01*
X95217382Y-61345000D01*
X96204314Y-61345000D01*
X96192359Y-61356955D01*
X96134835Y-61469852D01*
X96115014Y-61595000D01*
X96134835Y-61720148D01*
X96192359Y-61833045D01*
X96204314Y-61845000D01*
X95241128Y-61845000D01*
X95293730Y-62041317D01*
X95293734Y-62041326D01*
X95389865Y-62247482D01*
X95520342Y-62433820D01*
X95681179Y-62594657D01*
X95867517Y-62725134D01*
X95926457Y-62752618D01*
X95978896Y-62798790D01*
X95998048Y-62865984D01*
X95977832Y-62932865D01*
X95926457Y-62977382D01*
X95867517Y-63004865D01*
X95681179Y-63135342D01*
X95520342Y-63296179D01*
X95389865Y-63482517D01*
X95293734Y-63688673D01*
X95293730Y-63688682D01*
X95241127Y-63884999D01*
X95241128Y-63885000D01*
X96204314Y-63885000D01*
X96192359Y-63896955D01*
X96134835Y-64009852D01*
X96115014Y-64135000D01*
X96134835Y-64260148D01*
X96192359Y-64373045D01*
X96204314Y-64385000D01*
X95241128Y-64385000D01*
X95293730Y-64581317D01*
X95293734Y-64581326D01*
X95389865Y-64787482D01*
X95520342Y-64973820D01*
X95681179Y-65134657D01*
X95867518Y-65265134D01*
X95867520Y-65265135D01*
X95925865Y-65292342D01*
X95978305Y-65338514D01*
X95997457Y-65405707D01*
X95977242Y-65472589D01*
X95925867Y-65517105D01*
X95893427Y-65532233D01*
X95867264Y-65544433D01*
X95680858Y-65674954D01*
X95519954Y-65835858D01*
X95389432Y-66022265D01*
X95389431Y-66022267D01*
X95293261Y-66228502D01*
X95293258Y-66228511D01*
X95234366Y-66448302D01*
X95234364Y-66448313D01*
X95214532Y-66674998D01*
X95214532Y-66675001D01*
X95234364Y-66901686D01*
X95234366Y-66901697D01*
X95293258Y-67121488D01*
X95293261Y-67121497D01*
X95389431Y-67327732D01*
X95389432Y-67327734D01*
X95519954Y-67514141D01*
X95680858Y-67675045D01*
X95680861Y-67675047D01*
X95867266Y-67805568D01*
X95925275Y-67832618D01*
X95977714Y-67878791D01*
X95996866Y-67945984D01*
X95976650Y-68012865D01*
X95925275Y-68057382D01*
X95867267Y-68084431D01*
X95867265Y-68084432D01*
X95680858Y-68214954D01*
X95519954Y-68375858D01*
X95389432Y-68562265D01*
X95389431Y-68562267D01*
X95293261Y-68768502D01*
X95293258Y-68768511D01*
X95234366Y-68988302D01*
X95234364Y-68988313D01*
X95214532Y-69214998D01*
X95214532Y-69215001D01*
X95234364Y-69441686D01*
X95234366Y-69441697D01*
X95293258Y-69661488D01*
X95293261Y-69661497D01*
X95389431Y-69867732D01*
X95389432Y-69867734D01*
X95519954Y-70054141D01*
X95680858Y-70215045D01*
X95680861Y-70215047D01*
X95867266Y-70345568D01*
X95925275Y-70372618D01*
X95977714Y-70418791D01*
X95996866Y-70485984D01*
X95976650Y-70552865D01*
X95925275Y-70597382D01*
X95867267Y-70624431D01*
X95867265Y-70624432D01*
X95680858Y-70754954D01*
X95519954Y-70915858D01*
X95389432Y-71102265D01*
X95389431Y-71102267D01*
X95293261Y-71308502D01*
X95293258Y-71308511D01*
X95234366Y-71528302D01*
X95234364Y-71528313D01*
X95214532Y-71754998D01*
X95214532Y-71755001D01*
X95234364Y-71981686D01*
X95234366Y-71981697D01*
X95293258Y-72201488D01*
X95293261Y-72201497D01*
X95389431Y-72407732D01*
X95389432Y-72407734D01*
X95519954Y-72594141D01*
X95680858Y-72755045D01*
X95680861Y-72755047D01*
X95867266Y-72885568D01*
X96073504Y-72981739D01*
X96293308Y-73040635D01*
X96455230Y-73054801D01*
X96519998Y-73060468D01*
X96520000Y-73060468D01*
X96520002Y-73060468D01*
X96576673Y-73055509D01*
X96746692Y-73040635D01*
X96966496Y-72981739D01*
X97172734Y-72885568D01*
X97359139Y-72755047D01*
X97520047Y-72594139D01*
X97650568Y-72407734D01*
X97746739Y-72201496D01*
X97805635Y-71981692D01*
X97825468Y-71755000D01*
X97823916Y-71737266D01*
X97819801Y-71690230D01*
X97805635Y-71528308D01*
X97787318Y-71459948D01*
X97788981Y-71390103D01*
X97819410Y-71340179D01*
X99443788Y-69715801D01*
X99456042Y-69705986D01*
X99455859Y-69705764D01*
X99461866Y-69700792D01*
X99461877Y-69700786D01*
X99498772Y-69661497D01*
X99509227Y-69650364D01*
X99519671Y-69639918D01*
X99530120Y-69629471D01*
X99534379Y-69623978D01*
X99538152Y-69619561D01*
X99570062Y-69585582D01*
X99579713Y-69568024D01*
X99590396Y-69551761D01*
X99602673Y-69535936D01*
X99621185Y-69493153D01*
X99623738Y-69487941D01*
X99646197Y-69447092D01*
X99651180Y-69427680D01*
X99657481Y-69409280D01*
X99665437Y-69390896D01*
X99672729Y-69344852D01*
X99673906Y-69339171D01*
X99685500Y-69294019D01*
X99685500Y-69273983D01*
X99687027Y-69254582D01*
X99690160Y-69234804D01*
X99685775Y-69188415D01*
X99685500Y-69182577D01*
X99685500Y-56597737D01*
X99687224Y-56582123D01*
X99686938Y-56582096D01*
X99687672Y-56574333D01*
X99685500Y-56505202D01*
X99685500Y-56475651D01*
X99685500Y-56475650D01*
X99684629Y-56468759D01*
X99684172Y-56462945D01*
X99682709Y-56416374D01*
X99682709Y-56416372D01*
X99677120Y-56397137D01*
X99673174Y-56378084D01*
X99673167Y-56378030D01*
X99670664Y-56358208D01*
X99653501Y-56314859D01*
X99651614Y-56309346D01*
X99649819Y-56303169D01*
X99638617Y-56264610D01*
X99628421Y-56247369D01*
X99619860Y-56229893D01*
X99612486Y-56211269D01*
X99612486Y-56211267D01*
X99602474Y-56197488D01*
X99585083Y-56173550D01*
X99581900Y-56168705D01*
X99558170Y-56128579D01*
X99558165Y-56128573D01*
X99544005Y-56114413D01*
X99531370Y-56099620D01*
X99519593Y-56083412D01*
X99483693Y-56053713D01*
X99479381Y-56049790D01*
X97819413Y-54389822D01*
X97785928Y-54328499D01*
X97787319Y-54270048D01*
X97805635Y-54201692D01*
X97825468Y-53975000D01*
X97805635Y-53748308D01*
X97750236Y-53541554D01*
X97746741Y-53528511D01*
X97746738Y-53528502D01*
X97728119Y-53488573D01*
X97650568Y-53322266D01*
X97542739Y-53168269D01*
X97520045Y-53135858D01*
X97359141Y-52974954D01*
X97172734Y-52844432D01*
X97172732Y-52844431D01*
X96966497Y-52748261D01*
X96966488Y-52748258D01*
X96746697Y-52689366D01*
X96746693Y-52689365D01*
X96746692Y-52689365D01*
X96746691Y-52689364D01*
X96746686Y-52689364D01*
X96520002Y-52669532D01*
X96519998Y-52669532D01*
X96293313Y-52689364D01*
X96293302Y-52689366D01*
X96073511Y-52748258D01*
X96073502Y-52748261D01*
X95867267Y-52844431D01*
X95867265Y-52844432D01*
X95680858Y-52974954D01*
X95519954Y-53135858D01*
X95407387Y-53296623D01*
X95352811Y-53340248D01*
X95305812Y-53349500D01*
X90324499Y-53349500D01*
X90257460Y-53329815D01*
X90211705Y-53277011D01*
X90200499Y-53225500D01*
X90200499Y-53127129D01*
X90200498Y-53127123D01*
X90198432Y-53107906D01*
X90194091Y-53067517D01*
X90176019Y-53019064D01*
X90143797Y-52932671D01*
X90143793Y-52932664D01*
X90057547Y-52817455D01*
X90057544Y-52817452D01*
X89942335Y-52731206D01*
X89942328Y-52731202D01*
X89807482Y-52680908D01*
X89807483Y-52680908D01*
X89747883Y-52674501D01*
X89747881Y-52674500D01*
X89747873Y-52674500D01*
X89747865Y-52674500D01*
X88209450Y-52674500D01*
X88142411Y-52654815D01*
X88096656Y-52602011D01*
X88086712Y-52532853D01*
X88115737Y-52469297D01*
X88121750Y-52462838D01*
X88648787Y-51935802D01*
X88661042Y-51925986D01*
X88660859Y-51925764D01*
X88666866Y-51920792D01*
X88666877Y-51920786D01*
X88697775Y-51887882D01*
X88714227Y-51870364D01*
X88724671Y-51859918D01*
X88735120Y-51849471D01*
X88739379Y-51843978D01*
X88743152Y-51839561D01*
X88775062Y-51805582D01*
X88784715Y-51788020D01*
X88795389Y-51771770D01*
X88807673Y-51755936D01*
X88826180Y-51713167D01*
X88828749Y-51707924D01*
X88851196Y-51667093D01*
X88851197Y-51667092D01*
X88856177Y-51647691D01*
X88862478Y-51629288D01*
X88870438Y-51610896D01*
X88877730Y-51564849D01*
X88878911Y-51559152D01*
X88890500Y-51514019D01*
X88890500Y-51493983D01*
X88892027Y-51474582D01*
X88895160Y-51454804D01*
X88890775Y-51408415D01*
X88890500Y-51402577D01*
X88890500Y-50062799D01*
X88910185Y-49995760D01*
X88943377Y-49961224D01*
X89079620Y-49865826D01*
X89235826Y-49709620D01*
X89362534Y-49528662D01*
X89455894Y-49328450D01*
X89513070Y-49115068D01*
X89532323Y-48895000D01*
X89530590Y-48875196D01*
X89518748Y-48739838D01*
X89513070Y-48674932D01*
X89455894Y-48461550D01*
X89362534Y-48261339D01*
X89235826Y-48080380D01*
X89079620Y-47924174D01*
X89079616Y-47924171D01*
X89079615Y-47924170D01*
X88898666Y-47797468D01*
X88898658Y-47797464D01*
X88769811Y-47737382D01*
X88717371Y-47691210D01*
X88698219Y-47624017D01*
X88718435Y-47557135D01*
X88769811Y-47512618D01*
X88775802Y-47509824D01*
X88898662Y-47452534D01*
X89079620Y-47325826D01*
X89235826Y-47169620D01*
X89362534Y-46988662D01*
X89455894Y-46788450D01*
X89513070Y-46575068D01*
X89532323Y-46355000D01*
X89531291Y-46343209D01*
X89523102Y-46249606D01*
X89513070Y-46134932D01*
X89455894Y-45921550D01*
X89362534Y-45721339D01*
X89275005Y-45596334D01*
X89235827Y-45540381D01*
X89180391Y-45484945D01*
X89079620Y-45384174D01*
X89079616Y-45384171D01*
X89079615Y-45384170D01*
X88898666Y-45257468D01*
X88898658Y-45257464D01*
X88769219Y-45197106D01*
X88716779Y-45150934D01*
X88697627Y-45083741D01*
X88717843Y-45016859D01*
X88769219Y-44972342D01*
X88898408Y-44912100D01*
X88898420Y-44912093D01*
X88963186Y-44866742D01*
X88963187Y-44866740D01*
X88292448Y-44196000D01*
X88296569Y-44196000D01*
X88390421Y-44180339D01*
X88502251Y-44119820D01*
X88588371Y-44026269D01*
X88639448Y-43909823D01*
X88645105Y-43841551D01*
X89316741Y-44513187D01*
X89316742Y-44513186D01*
X89362093Y-44448420D01*
X89362100Y-44448408D01*
X89455419Y-44248284D01*
X89455424Y-44248270D01*
X89512573Y-44034986D01*
X89512575Y-44034976D01*
X89531821Y-43815000D01*
X89531821Y-43814999D01*
X89512575Y-43595023D01*
X89512574Y-43595017D01*
X89489685Y-43509594D01*
X89491348Y-43439744D01*
X89530510Y-43381881D01*
X89594739Y-43354377D01*
X89609460Y-43353500D01*
X97027548Y-43353500D01*
X97094587Y-43373185D01*
X97115229Y-43389819D01*
X97157022Y-43431612D01*
X97190507Y-43492935D01*
X97189116Y-43551385D01*
X97177427Y-43595010D01*
X97177424Y-43595023D01*
X97158179Y-43814999D01*
X97158179Y-43815000D01*
X97177424Y-44034976D01*
X97177426Y-44034986D01*
X97234575Y-44248270D01*
X97234580Y-44248284D01*
X97327899Y-44448407D01*
X97327900Y-44448409D01*
X97373258Y-44513187D01*
X97718245Y-44168199D01*
X97779568Y-44134714D01*
X97849259Y-44139698D01*
X97893607Y-44168199D01*
X98010528Y-44285120D01*
X98056920Y-44321104D01*
X98064992Y-44327366D01*
X98067161Y-44329048D01*
X98108069Y-44385690D01*
X98111859Y-44455457D01*
X98078843Y-44514709D01*
X97726811Y-44866740D01*
X97726811Y-44866741D01*
X97791582Y-44912094D01*
X97791588Y-44912098D01*
X97920781Y-44972342D01*
X97973220Y-45018514D01*
X97992372Y-45085708D01*
X97972156Y-45152589D01*
X97920781Y-45197106D01*
X97791340Y-45257465D01*
X97791338Y-45257466D01*
X97610377Y-45384175D01*
X97454175Y-45540377D01*
X97358776Y-45676623D01*
X97304199Y-45720248D01*
X97257201Y-45729500D01*
X97237738Y-45729500D01*
X97222121Y-45727776D01*
X97222094Y-45728062D01*
X97214332Y-45727327D01*
X97145204Y-45729500D01*
X97115650Y-45729500D01*
X97114929Y-45729590D01*
X97108757Y-45730369D01*
X97102945Y-45730826D01*
X97056373Y-45732290D01*
X97056372Y-45732290D01*
X97037129Y-45737881D01*
X97018079Y-45741825D01*
X96998211Y-45744334D01*
X96954884Y-45761488D01*
X96949358Y-45763379D01*
X96904614Y-45776379D01*
X96904610Y-45776381D01*
X96887366Y-45786579D01*
X96869905Y-45795133D01*
X96851274Y-45802510D01*
X96851262Y-45802517D01*
X96813570Y-45829902D01*
X96808687Y-45833109D01*
X96768580Y-45856829D01*
X96754414Y-45870995D01*
X96739624Y-45883627D01*
X96723414Y-45895404D01*
X96723411Y-45895407D01*
X96693710Y-45931309D01*
X96689777Y-45935631D01*
X93596208Y-49029199D01*
X93583951Y-49039020D01*
X93584134Y-49039241D01*
X93578123Y-49044213D01*
X93530772Y-49094636D01*
X93509889Y-49115519D01*
X93509877Y-49115532D01*
X93505621Y-49121017D01*
X93501837Y-49125447D01*
X93469937Y-49159418D01*
X93469936Y-49159420D01*
X93460284Y-49176976D01*
X93449610Y-49193226D01*
X93437329Y-49209061D01*
X93437324Y-49209068D01*
X93418815Y-49251838D01*
X93416245Y-49257084D01*
X93393803Y-49297906D01*
X93388822Y-49317307D01*
X93382521Y-49335710D01*
X93374562Y-49354102D01*
X93374561Y-49354105D01*
X93367271Y-49400127D01*
X93366087Y-49405846D01*
X93354501Y-49450972D01*
X93354500Y-49450982D01*
X93354500Y-49471016D01*
X93352973Y-49490415D01*
X93349840Y-49510194D01*
X93349840Y-49510195D01*
X93354225Y-49556583D01*
X93354500Y-49562421D01*
X93354500Y-50736312D01*
X93334815Y-50803351D01*
X93322650Y-50819284D01*
X93247466Y-50902784D01*
X93152821Y-51066715D01*
X93152818Y-51066722D01*
X93094327Y-51246740D01*
X93094326Y-51246744D01*
X93074540Y-51435000D01*
X93094326Y-51623256D01*
X93094327Y-51623259D01*
X93152818Y-51803277D01*
X93152821Y-51803284D01*
X93247467Y-51967216D01*
X93374129Y-52107888D01*
X93527265Y-52219148D01*
X93527270Y-52219151D01*
X93700192Y-52296142D01*
X93700197Y-52296144D01*
X93885354Y-52335500D01*
X93885355Y-52335500D01*
X94074644Y-52335500D01*
X94074646Y-52335500D01*
X94259803Y-52296144D01*
X94432730Y-52219151D01*
X94585871Y-52107888D01*
X94712533Y-51967216D01*
X94807179Y-51803284D01*
X94865674Y-51623256D01*
X94885460Y-51435000D01*
X94865674Y-51246744D01*
X94807179Y-51066716D01*
X94712533Y-50902784D01*
X94637350Y-50819284D01*
X94607120Y-50756292D01*
X94605500Y-50736312D01*
X94605500Y-49840452D01*
X94625185Y-49773413D01*
X94641819Y-49752771D01*
X95934955Y-48459635D01*
X97255286Y-47139303D01*
X97316607Y-47105820D01*
X97386299Y-47110804D01*
X97442232Y-47152676D01*
X97444537Y-47155858D01*
X97452914Y-47167820D01*
X97454174Y-47169620D01*
X97454175Y-47169621D01*
X97454177Y-47169623D01*
X97610378Y-47325824D01*
X97610384Y-47325829D01*
X97791333Y-47452531D01*
X97791335Y-47452532D01*
X97791338Y-47452534D01*
X97910748Y-47508215D01*
X97920189Y-47512618D01*
X97972628Y-47558790D01*
X97991780Y-47625984D01*
X97971564Y-47692865D01*
X97920189Y-47737382D01*
X97791340Y-47797465D01*
X97791338Y-47797466D01*
X97610377Y-47924175D01*
X97454175Y-48080377D01*
X97327466Y-48261338D01*
X97327465Y-48261340D01*
X97234107Y-48461548D01*
X97234104Y-48461554D01*
X97176930Y-48674929D01*
X97176929Y-48674937D01*
X97157677Y-48894997D01*
X97157677Y-48895002D01*
X97176929Y-49115062D01*
X97176930Y-49115070D01*
X97234104Y-49328445D01*
X97234105Y-49328447D01*
X97234106Y-49328450D01*
X97300585Y-49471016D01*
X97327466Y-49528662D01*
X97327468Y-49528666D01*
X97454170Y-49709615D01*
X97454175Y-49709621D01*
X97610378Y-49865824D01*
X97610384Y-49865829D01*
X97791333Y-49992531D01*
X97791335Y-49992532D01*
X97791338Y-49992534D01*
X97991550Y-50085894D01*
X98204932Y-50143070D01*
X98362123Y-50156822D01*
X98424998Y-50162323D01*
X98425000Y-50162323D01*
X98425002Y-50162323D01*
X98480017Y-50157509D01*
X98645068Y-50143070D01*
X98858450Y-50085894D01*
X99058662Y-49992534D01*
X99239620Y-49865826D01*
X99395826Y-49709620D01*
X99522534Y-49528662D01*
X99615894Y-49328450D01*
X99673070Y-49115068D01*
X99692323Y-48895000D01*
X99690590Y-48875196D01*
X99678748Y-48739838D01*
X99673070Y-48674932D01*
X99615894Y-48461550D01*
X99522534Y-48261339D01*
X99395826Y-48080380D01*
X99239620Y-47924174D01*
X99239616Y-47924171D01*
X99239615Y-47924170D01*
X99058666Y-47797468D01*
X99058658Y-47797464D01*
X98929811Y-47737382D01*
X98877371Y-47691210D01*
X98858219Y-47624017D01*
X98878435Y-47557135D01*
X98929811Y-47512618D01*
X98935802Y-47509824D01*
X99058662Y-47452534D01*
X99239620Y-47325826D01*
X99395826Y-47169620D01*
X99522534Y-46988662D01*
X99615894Y-46788450D01*
X99673070Y-46575068D01*
X99692323Y-46355000D01*
X99691291Y-46343209D01*
X99683102Y-46249606D01*
X99673070Y-46134932D01*
X99615894Y-45921550D01*
X99522534Y-45721339D01*
X99435005Y-45596334D01*
X99395827Y-45540381D01*
X99340391Y-45484945D01*
X99239620Y-45384174D01*
X99239616Y-45384171D01*
X99239615Y-45384170D01*
X99058666Y-45257468D01*
X99058658Y-45257464D01*
X98929219Y-45197106D01*
X98876779Y-45150934D01*
X98857627Y-45083741D01*
X98877843Y-45016859D01*
X98929219Y-44972342D01*
X99058408Y-44912100D01*
X99058420Y-44912093D01*
X99123186Y-44866742D01*
X99123187Y-44866741D01*
X98770760Y-44514314D01*
X98737275Y-44452991D01*
X98742259Y-44383299D01*
X98784131Y-44327366D01*
X98788731Y-44324083D01*
X98841938Y-44287924D01*
X98946450Y-44169378D01*
X98946452Y-44169372D01*
X98946499Y-44169320D01*
X99005598Y-44132050D01*
X99075466Y-44132648D01*
X99127195Y-44163641D01*
X99476741Y-44513187D01*
X99476742Y-44513186D01*
X99522093Y-44448420D01*
X99522100Y-44448408D01*
X99615419Y-44248284D01*
X99615424Y-44248270D01*
X99672573Y-44034986D01*
X99672575Y-44034976D01*
X99691821Y-43815000D01*
X99691821Y-43814999D01*
X99672575Y-43595023D01*
X99672573Y-43595013D01*
X99615424Y-43381729D01*
X99615420Y-43381720D01*
X99522098Y-43181590D01*
X99476740Y-43116811D01*
X99126067Y-43467485D01*
X99064744Y-43500970D01*
X98995052Y-43495986D01*
X98939119Y-43454114D01*
X98931653Y-43442923D01*
X98923172Y-43428582D01*
X98923171Y-43428580D01*
X98923170Y-43428579D01*
X98923168Y-43428577D01*
X98923165Y-43428573D01*
X98778199Y-43283607D01*
X98744714Y-43222284D01*
X98749698Y-43152592D01*
X98778199Y-43108245D01*
X99123187Y-42763258D01*
X99058409Y-42717900D01*
X99058407Y-42717899D01*
X98929219Y-42657658D01*
X98876779Y-42611486D01*
X98857627Y-42544293D01*
X98877843Y-42477411D01*
X98929219Y-42432894D01*
X98929811Y-42432618D01*
X99058662Y-42372534D01*
X99239620Y-42245826D01*
X99395826Y-42089620D01*
X99522534Y-41908662D01*
X99615894Y-41708450D01*
X99673070Y-41495068D01*
X99692323Y-41275000D01*
X99673070Y-41054932D01*
X99615894Y-40841550D01*
X99522534Y-40641339D01*
X99459180Y-40550859D01*
X99395827Y-40460381D01*
X99395823Y-40460377D01*
X99239620Y-40304174D01*
X99239616Y-40304171D01*
X99239615Y-40304170D01*
X99058666Y-40177468D01*
X99058658Y-40177464D01*
X98929811Y-40117382D01*
X98877371Y-40071210D01*
X98858219Y-40004017D01*
X98878435Y-39937135D01*
X98929811Y-39892618D01*
X98935802Y-39889824D01*
X99058662Y-39832534D01*
X99239620Y-39705826D01*
X99395826Y-39549620D01*
X99522534Y-39368662D01*
X99615894Y-39168450D01*
X99673070Y-38955068D01*
X99688489Y-38778822D01*
X99692323Y-38735002D01*
X99692323Y-38734997D01*
X99677387Y-38564279D01*
X99673070Y-38514932D01*
X99615894Y-38301550D01*
X99522534Y-38101339D01*
X99400836Y-37927535D01*
X99395827Y-37920381D01*
X99359382Y-37883936D01*
X99239620Y-37764174D01*
X99239616Y-37764171D01*
X99239615Y-37764170D01*
X99058666Y-37637468D01*
X99058658Y-37637464D01*
X98929811Y-37577382D01*
X98877371Y-37531210D01*
X98858219Y-37464017D01*
X98878435Y-37397135D01*
X98929811Y-37352618D01*
X98935802Y-37349824D01*
X99058662Y-37292534D01*
X99239620Y-37165826D01*
X99395826Y-37009620D01*
X99522534Y-36828662D01*
X99615894Y-36628450D01*
X99673070Y-36415068D01*
X99688489Y-36238822D01*
X99692323Y-36195002D01*
X99692323Y-36194999D01*
X101594496Y-36194999D01*
X101602399Y-36335737D01*
X101602497Y-36339214D01*
X101602497Y-36373163D01*
X101606297Y-36406904D01*
X101606589Y-36410367D01*
X101614494Y-36551105D01*
X101638104Y-36690068D01*
X101638590Y-36693509D01*
X101642394Y-36727261D01*
X101649947Y-36760351D01*
X101650626Y-36763761D01*
X101674238Y-36902728D01*
X101674240Y-36902739D01*
X101713264Y-37038194D01*
X101714133Y-37041562D01*
X101721682Y-37074639D01*
X101721683Y-37074642D01*
X101732891Y-37106675D01*
X101733946Y-37109987D01*
X101772973Y-37245450D01*
X101826918Y-37375684D01*
X101828158Y-37378932D01*
X101839372Y-37410979D01*
X101854101Y-37441565D01*
X101855522Y-37444740D01*
X101909464Y-37574967D01*
X101977647Y-37698335D01*
X101979242Y-37701424D01*
X101988800Y-37721269D01*
X101993976Y-37732017D01*
X101993978Y-37732020D01*
X101993980Y-37732024D01*
X102012035Y-37760759D01*
X102013802Y-37763755D01*
X102081990Y-37887130D01*
X102163559Y-38002091D01*
X102165491Y-38004983D01*
X102182552Y-38032135D01*
X102183554Y-38033729D01*
X102183603Y-38033790D01*
X102204727Y-38060280D01*
X102206818Y-38063059D01*
X102250295Y-38124334D01*
X102288382Y-38178012D01*
X102375419Y-38275407D01*
X102382315Y-38283123D01*
X102384559Y-38285781D01*
X102405715Y-38312310D01*
X102405717Y-38312313D01*
X102405720Y-38312316D01*
X102405721Y-38312317D01*
X102429730Y-38336326D01*
X102432103Y-38338837D01*
X102526042Y-38443954D01*
X102526045Y-38443957D01*
X102631161Y-38537894D01*
X102633670Y-38540266D01*
X102657683Y-38564279D01*
X102684217Y-38585439D01*
X102686868Y-38587677D01*
X102791988Y-38681618D01*
X102906966Y-38763199D01*
X102909708Y-38765263D01*
X102936271Y-38786446D01*
X102965041Y-38804523D01*
X102967883Y-38806422D01*
X103082870Y-38888010D01*
X103170693Y-38936548D01*
X103206247Y-38956198D01*
X103209215Y-38957948D01*
X103237983Y-38976024D01*
X103259139Y-38986212D01*
X103268558Y-38990748D01*
X103271649Y-38992345D01*
X103379047Y-39051701D01*
X103395027Y-39060533D01*
X103395033Y-39060536D01*
X103395037Y-39060538D01*
X103525258Y-39114477D01*
X103528434Y-39115898D01*
X103559016Y-39130626D01*
X103559020Y-39130628D01*
X103591070Y-39141843D01*
X103594305Y-39143077D01*
X103724546Y-39197025D01*
X103860021Y-39236054D01*
X103863295Y-39237098D01*
X103895355Y-39248316D01*
X103928466Y-39255873D01*
X103931792Y-39256731D01*
X104067271Y-39295762D01*
X104206313Y-39319386D01*
X104209591Y-39320038D01*
X104242749Y-39327607D01*
X104276515Y-39331411D01*
X104279914Y-39331891D01*
X104418897Y-39355506D01*
X104507825Y-39360500D01*
X104559641Y-39363410D01*
X104563080Y-39363699D01*
X104592526Y-39367017D01*
X104596835Y-39367503D01*
X104630785Y-39367503D01*
X104634262Y-39367601D01*
X104684309Y-39370411D01*
X104775000Y-39375504D01*
X104865690Y-39370411D01*
X104915738Y-39367601D01*
X104919215Y-39367503D01*
X104953165Y-39367503D01*
X104957473Y-39367017D01*
X104986919Y-39363699D01*
X104990359Y-39363410D01*
X105025281Y-39361448D01*
X105131103Y-39355506D01*
X105270095Y-39331890D01*
X105273479Y-39331412D01*
X105307251Y-39327607D01*
X105340388Y-39320043D01*
X105343700Y-39319383D01*
X105482729Y-39295762D01*
X105618237Y-39256722D01*
X105621496Y-39255881D01*
X105644214Y-39250696D01*
X105654639Y-39248318D01*
X105654656Y-39248312D01*
X105686726Y-39237090D01*
X105689944Y-39236064D01*
X105825454Y-39197025D01*
X105955740Y-39143058D01*
X105958867Y-39141864D01*
X105990977Y-39130629D01*
X106021611Y-39115876D01*
X106024712Y-39114489D01*
X106154969Y-39060535D01*
X106278363Y-38992337D01*
X106281404Y-38990766D01*
X106312017Y-38976024D01*
X106340837Y-38957914D01*
X106343692Y-38956231D01*
X106467130Y-38888010D01*
X106582125Y-38806416D01*
X106584950Y-38804528D01*
X106613729Y-38786446D01*
X106617045Y-38783802D01*
X106631194Y-38772518D01*
X106640291Y-38765263D01*
X106643021Y-38763207D01*
X106758012Y-38681618D01*
X106863153Y-38587658D01*
X106865749Y-38585466D01*
X106892317Y-38564279D01*
X106916344Y-38540251D01*
X106918816Y-38537914D01*
X107023956Y-38443956D01*
X107117914Y-38338816D01*
X107120251Y-38336344D01*
X107144279Y-38312317D01*
X107165466Y-38285749D01*
X107167658Y-38283153D01*
X107261618Y-38178012D01*
X107343207Y-38063022D01*
X107345272Y-38060280D01*
X107359742Y-38042135D01*
X107366440Y-38033737D01*
X107366441Y-38033735D01*
X107366446Y-38033729D01*
X107384528Y-38004950D01*
X107386416Y-38002125D01*
X107468010Y-37887130D01*
X107536231Y-37763692D01*
X107537914Y-37760837D01*
X107556024Y-37732017D01*
X107570766Y-37701404D01*
X107572337Y-37698363D01*
X107640535Y-37574969D01*
X107694489Y-37444712D01*
X107695876Y-37441611D01*
X107710629Y-37410977D01*
X107721864Y-37378867D01*
X107723058Y-37375740D01*
X107777025Y-37245454D01*
X107816064Y-37109944D01*
X107817090Y-37106726D01*
X107828316Y-37074645D01*
X107828317Y-37074642D01*
X107828318Y-37074639D01*
X107830696Y-37064214D01*
X107835881Y-37041496D01*
X107836722Y-37038237D01*
X107875762Y-36902729D01*
X107899383Y-36763700D01*
X107900043Y-36760388D01*
X107907607Y-36727251D01*
X107911412Y-36693479D01*
X107911890Y-36690095D01*
X107935506Y-36551103D01*
X107943145Y-36415070D01*
X107943410Y-36410360D01*
X107943701Y-36406904D01*
X107947503Y-36373164D01*
X107948168Y-36325622D01*
X107955504Y-36195000D01*
X107948168Y-36064378D01*
X107947503Y-36016836D01*
X107943700Y-35983083D01*
X107943410Y-35979640D01*
X107936645Y-35859175D01*
X107935506Y-35838897D01*
X107911891Y-35699914D01*
X107911411Y-35696515D01*
X107907607Y-35662749D01*
X107900038Y-35629591D01*
X107899386Y-35626313D01*
X107875762Y-35487271D01*
X107836731Y-35351792D01*
X107835873Y-35348466D01*
X107828316Y-35315355D01*
X107817098Y-35283295D01*
X107816051Y-35280010D01*
X107777025Y-35144546D01*
X107723077Y-35014305D01*
X107721843Y-35011070D01*
X107710628Y-34979020D01*
X107710626Y-34979016D01*
X107695898Y-34948434D01*
X107694477Y-34945258D01*
X107640538Y-34815037D01*
X107640536Y-34815033D01*
X107572345Y-34691649D01*
X107570748Y-34688558D01*
X107556026Y-34657988D01*
X107556023Y-34657982D01*
X107537948Y-34629215D01*
X107536198Y-34626247D01*
X107468008Y-34502867D01*
X107459834Y-34491347D01*
X107386422Y-34387883D01*
X107384523Y-34385041D01*
X107366446Y-34356271D01*
X107345263Y-34329708D01*
X107343199Y-34326966D01*
X107261618Y-34211988D01*
X107167677Y-34106868D01*
X107165439Y-34104217D01*
X107144279Y-34077683D01*
X107120264Y-34053668D01*
X107117894Y-34051161D01*
X107023957Y-33946045D01*
X107023954Y-33946042D01*
X106918837Y-33852103D01*
X106916327Y-33849731D01*
X106892317Y-33825721D01*
X106892316Y-33825720D01*
X106892313Y-33825717D01*
X106892310Y-33825715D01*
X106865781Y-33804559D01*
X106863123Y-33802315D01*
X106758012Y-33708382D01*
X106643059Y-33626818D01*
X106640280Y-33624727D01*
X106613726Y-33603552D01*
X106584983Y-33585491D01*
X106582091Y-33583559D01*
X106467130Y-33501990D01*
X106343755Y-33433802D01*
X106340759Y-33432035D01*
X106312024Y-33413980D01*
X106312021Y-33413978D01*
X106312017Y-33413976D01*
X106301269Y-33408800D01*
X106281424Y-33399242D01*
X106278335Y-33397647D01*
X106154972Y-33329467D01*
X106154969Y-33329465D01*
X106154967Y-33329464D01*
X106024740Y-33275522D01*
X106021565Y-33274101D01*
X105990979Y-33259372D01*
X105990977Y-33259371D01*
X105958932Y-33248158D01*
X105955684Y-33246918D01*
X105825450Y-33192973D01*
X105689987Y-33153946D01*
X105686675Y-33152891D01*
X105654642Y-33141683D01*
X105654639Y-33141682D01*
X105621562Y-33134133D01*
X105618194Y-33133264D01*
X105482739Y-33094240D01*
X105482730Y-33094238D01*
X105482729Y-33094238D01*
X105426880Y-33084748D01*
X105343761Y-33070626D01*
X105340351Y-33069947D01*
X105307260Y-33062394D01*
X105307261Y-33062394D01*
X105273509Y-33058590D01*
X105270068Y-33058104D01*
X105131105Y-33034494D01*
X104990367Y-33026589D01*
X104986904Y-33026297D01*
X104955405Y-33022749D01*
X104953164Y-33022497D01*
X104953163Y-33022497D01*
X104919215Y-33022497D01*
X104915738Y-33022399D01*
X104775000Y-33014496D01*
X104634262Y-33022399D01*
X104630785Y-33022497D01*
X104596837Y-33022497D01*
X104596836Y-33022497D01*
X104594734Y-33022733D01*
X104563095Y-33026297D01*
X104559632Y-33026589D01*
X104418895Y-33034494D01*
X104279932Y-33058104D01*
X104276491Y-33058590D01*
X104242749Y-33062393D01*
X104242736Y-33062395D01*
X104209651Y-33069947D01*
X104206243Y-33070625D01*
X104185311Y-33074182D01*
X104067274Y-33094237D01*
X104067265Y-33094239D01*
X103931812Y-33133262D01*
X103928445Y-33134131D01*
X103895353Y-33141684D01*
X103863331Y-33152889D01*
X103860018Y-33153945D01*
X103724541Y-33192976D01*
X103594326Y-33246913D01*
X103591079Y-33248153D01*
X103559020Y-33259372D01*
X103528443Y-33274096D01*
X103525272Y-33275515D01*
X103395026Y-33329467D01*
X103271663Y-33397647D01*
X103268575Y-33399242D01*
X103237984Y-33413975D01*
X103237973Y-33413981D01*
X103209239Y-33432035D01*
X103206246Y-33433801D01*
X103082872Y-33501988D01*
X102967909Y-33583558D01*
X102965019Y-33585489D01*
X102936271Y-33603553D01*
X102936268Y-33603555D01*
X102909720Y-33624725D01*
X102906943Y-33626815D01*
X102791983Y-33708384D01*
X102686879Y-33802311D01*
X102684224Y-33804554D01*
X102657680Y-33825723D01*
X102633668Y-33849734D01*
X102631143Y-33852120D01*
X102526044Y-33946044D01*
X102432120Y-34051143D01*
X102429734Y-34053668D01*
X102405723Y-34077680D01*
X102384554Y-34104224D01*
X102382311Y-34106879D01*
X102288384Y-34211983D01*
X102206815Y-34326943D01*
X102204725Y-34329720D01*
X102183555Y-34356268D01*
X102183553Y-34356271D01*
X102165489Y-34385019D01*
X102163558Y-34387909D01*
X102081988Y-34502872D01*
X102013801Y-34626246D01*
X102012035Y-34629239D01*
X101993981Y-34657973D01*
X101993975Y-34657984D01*
X101979242Y-34688575D01*
X101977647Y-34691663D01*
X101909467Y-34815026D01*
X101855515Y-34945272D01*
X101854096Y-34948443D01*
X101839372Y-34979020D01*
X101828153Y-35011079D01*
X101826913Y-35014326D01*
X101772976Y-35144541D01*
X101733945Y-35280018D01*
X101732889Y-35283331D01*
X101721684Y-35315353D01*
X101714131Y-35348445D01*
X101713262Y-35351812D01*
X101674239Y-35487265D01*
X101674237Y-35487274D01*
X101650626Y-35626241D01*
X101649947Y-35629651D01*
X101642395Y-35662736D01*
X101642393Y-35662749D01*
X101638590Y-35696491D01*
X101638104Y-35699932D01*
X101614494Y-35838895D01*
X101606589Y-35979632D01*
X101606297Y-35983095D01*
X101602497Y-36016836D01*
X101602497Y-36050784D01*
X101602399Y-36054261D01*
X101594496Y-36194999D01*
X99692323Y-36194999D01*
X99692323Y-36194997D01*
X99676736Y-36016836D01*
X99673070Y-35974932D01*
X99615894Y-35761550D01*
X99522534Y-35561339D01*
X99395826Y-35380380D01*
X99239620Y-35224174D01*
X99239616Y-35224171D01*
X99239615Y-35224170D01*
X99058666Y-35097468D01*
X99058662Y-35097466D01*
X99058660Y-35097465D01*
X98858450Y-35004106D01*
X98858447Y-35004105D01*
X98858445Y-35004104D01*
X98645070Y-34946930D01*
X98645062Y-34946929D01*
X98425002Y-34927677D01*
X98424998Y-34927677D01*
X98204937Y-34946929D01*
X98204929Y-34946930D01*
X97991554Y-35004104D01*
X97991548Y-35004107D01*
X97791340Y-35097465D01*
X97791338Y-35097466D01*
X97610377Y-35224175D01*
X97454175Y-35380377D01*
X97327466Y-35561338D01*
X97327465Y-35561340D01*
X97234107Y-35761548D01*
X97234104Y-35761554D01*
X97176930Y-35974929D01*
X97176929Y-35974937D01*
X97157677Y-36194997D01*
X97157677Y-36195002D01*
X97176929Y-36415062D01*
X97176930Y-36415070D01*
X97234104Y-36628445D01*
X97234105Y-36628447D01*
X97234106Y-36628450D01*
X97297202Y-36763761D01*
X97327466Y-36828662D01*
X97327468Y-36828666D01*
X97454170Y-37009615D01*
X97454175Y-37009621D01*
X97610378Y-37165824D01*
X97610384Y-37165829D01*
X97791333Y-37292531D01*
X97791335Y-37292532D01*
X97791338Y-37292534D01*
X97910748Y-37348215D01*
X97920189Y-37352618D01*
X97972628Y-37398790D01*
X97991780Y-37465984D01*
X97971564Y-37532865D01*
X97920189Y-37577382D01*
X97791340Y-37637465D01*
X97791338Y-37637466D01*
X97610377Y-37764175D01*
X97454175Y-37920377D01*
X97327466Y-38101338D01*
X97327465Y-38101340D01*
X97234107Y-38301548D01*
X97234104Y-38301554D01*
X97176930Y-38514929D01*
X97176929Y-38514937D01*
X97157677Y-38734997D01*
X97157677Y-38735002D01*
X97176929Y-38955062D01*
X97176930Y-38955070D01*
X97234104Y-39168445D01*
X97234105Y-39168447D01*
X97234106Y-39168450D01*
X97318549Y-39349539D01*
X97327466Y-39368662D01*
X97327468Y-39368666D01*
X97454170Y-39549615D01*
X97454175Y-39549621D01*
X97610378Y-39705824D01*
X97610384Y-39705829D01*
X97791333Y-39832531D01*
X97791335Y-39832532D01*
X97791338Y-39832534D01*
X97910748Y-39888215D01*
X97920189Y-39892618D01*
X97972628Y-39938790D01*
X97991780Y-40005984D01*
X97971564Y-40072865D01*
X97920189Y-40117382D01*
X97791340Y-40177465D01*
X97791338Y-40177466D01*
X97610377Y-40304175D01*
X97454175Y-40460377D01*
X97327466Y-40641338D01*
X97327465Y-40641340D01*
X97234107Y-40841548D01*
X97234104Y-40841554D01*
X97176930Y-41054929D01*
X97176929Y-41054937D01*
X97157677Y-41274997D01*
X97157677Y-41275002D01*
X97176929Y-41495062D01*
X97176930Y-41495070D01*
X97234104Y-41708445D01*
X97234105Y-41708447D01*
X97234106Y-41708450D01*
X97313216Y-41878102D01*
X97327466Y-41908662D01*
X97330175Y-41913354D01*
X97328840Y-41914124D01*
X97348893Y-41973581D01*
X97331884Y-42041349D01*
X97280936Y-42089162D01*
X97224991Y-42102500D01*
X89465009Y-42102500D01*
X89397970Y-42082815D01*
X89352215Y-42030011D01*
X89342271Y-41960853D01*
X89360837Y-41913938D01*
X89359825Y-41913354D01*
X89362531Y-41908666D01*
X89362534Y-41908662D01*
X89455894Y-41708450D01*
X89513070Y-41495068D01*
X89532323Y-41275000D01*
X89513070Y-41054932D01*
X89455894Y-40841550D01*
X89362534Y-40641339D01*
X89299180Y-40550859D01*
X89235827Y-40460381D01*
X89235823Y-40460377D01*
X89079620Y-40304174D01*
X89079616Y-40304171D01*
X89079615Y-40304170D01*
X88898666Y-40177468D01*
X88898658Y-40177464D01*
X88769811Y-40117382D01*
X88717371Y-40071210D01*
X88698219Y-40004017D01*
X88718435Y-39937135D01*
X88769811Y-39892618D01*
X88775802Y-39889824D01*
X88898662Y-39832534D01*
X89079620Y-39705826D01*
X89235826Y-39549620D01*
X89362534Y-39368662D01*
X89455894Y-39168450D01*
X89513070Y-38955068D01*
X89528489Y-38778822D01*
X89532323Y-38735002D01*
X89532323Y-38734997D01*
X89517387Y-38564279D01*
X89513070Y-38514932D01*
X89455894Y-38301550D01*
X89362534Y-38101339D01*
X89240836Y-37927535D01*
X89235827Y-37920381D01*
X89199382Y-37883936D01*
X89079620Y-37764174D01*
X89079616Y-37764171D01*
X89079615Y-37764170D01*
X88898666Y-37637468D01*
X88898658Y-37637464D01*
X88769811Y-37577382D01*
X88717371Y-37531210D01*
X88698219Y-37464017D01*
X88718435Y-37397135D01*
X88769811Y-37352618D01*
X88775802Y-37349824D01*
X88898662Y-37292534D01*
X89079620Y-37165826D01*
X89235826Y-37009620D01*
X89362534Y-36828662D01*
X89455894Y-36628450D01*
X89513070Y-36415068D01*
X89528489Y-36238822D01*
X89532323Y-36195002D01*
X89532323Y-36194997D01*
X89516736Y-36016836D01*
X89513070Y-35974932D01*
X89455894Y-35761550D01*
X89362534Y-35561339D01*
X89235826Y-35380380D01*
X89079620Y-35224174D01*
X89079616Y-35224171D01*
X89079615Y-35224170D01*
X88898666Y-35097468D01*
X88898662Y-35097466D01*
X88898660Y-35097465D01*
X88698450Y-35004106D01*
X88698447Y-35004105D01*
X88698445Y-35004104D01*
X88485070Y-34946930D01*
X88485062Y-34946929D01*
X88265002Y-34927677D01*
X88264998Y-34927677D01*
X88044937Y-34946929D01*
X88044929Y-34946930D01*
X87831554Y-35004104D01*
X87831548Y-35004107D01*
X87631340Y-35097465D01*
X87631338Y-35097466D01*
X87450377Y-35224175D01*
X87294175Y-35380377D01*
X87198776Y-35516623D01*
X87144199Y-35560248D01*
X87097201Y-35569500D01*
X83902743Y-35569500D01*
X83887122Y-35567775D01*
X83887095Y-35568061D01*
X83879333Y-35567326D01*
X83810172Y-35569500D01*
X83780649Y-35569500D01*
X83773778Y-35570367D01*
X83767959Y-35570825D01*
X83721374Y-35572289D01*
X83721368Y-35572290D01*
X83702126Y-35577880D01*
X83683087Y-35581823D01*
X83663217Y-35584334D01*
X83663203Y-35584337D01*
X83619883Y-35601488D01*
X83614358Y-35603380D01*
X83569613Y-35616380D01*
X83569610Y-35616381D01*
X83552366Y-35626579D01*
X83534905Y-35635133D01*
X83516274Y-35642510D01*
X83516262Y-35642517D01*
X83478570Y-35669902D01*
X83473687Y-35673109D01*
X83433580Y-35696829D01*
X83419414Y-35710995D01*
X83404624Y-35723627D01*
X83388414Y-35735404D01*
X83388411Y-35735407D01*
X83358710Y-35771309D01*
X83354777Y-35775631D01*
X76451208Y-42679199D01*
X76438951Y-42689020D01*
X76439134Y-42689241D01*
X76433123Y-42694213D01*
X76385772Y-42744636D01*
X76364889Y-42765519D01*
X76364877Y-42765532D01*
X76360621Y-42771017D01*
X76356837Y-42775447D01*
X76324937Y-42809418D01*
X76324936Y-42809420D01*
X76315284Y-42826976D01*
X76304610Y-42843226D01*
X76292329Y-42859061D01*
X76292324Y-42859068D01*
X76273815Y-42901838D01*
X76271245Y-42907084D01*
X76248803Y-42947906D01*
X76243822Y-42967307D01*
X76237521Y-42985710D01*
X76229562Y-43004102D01*
X76229561Y-43004105D01*
X76222271Y-43050127D01*
X76221087Y-43055846D01*
X76209501Y-43100972D01*
X76209500Y-43100982D01*
X76209500Y-43121016D01*
X76207973Y-43140415D01*
X76204840Y-43160194D01*
X76204840Y-43160195D01*
X76209225Y-43206583D01*
X76209500Y-43212421D01*
X76209500Y-43272867D01*
X76189815Y-43339906D01*
X76137011Y-43385661D01*
X76067853Y-43395605D01*
X76006460Y-43368411D01*
X75988689Y-43353710D01*
X75984376Y-43349786D01*
X69080803Y-36446212D01*
X69070980Y-36433950D01*
X69070759Y-36434134D01*
X69065786Y-36428123D01*
X69051884Y-36415068D01*
X69015364Y-36380773D01*
X69004919Y-36370328D01*
X68994475Y-36359883D01*
X68988986Y-36355625D01*
X68984561Y-36351847D01*
X68950582Y-36319938D01*
X68950580Y-36319936D01*
X68950577Y-36319935D01*
X68933029Y-36310288D01*
X68916763Y-36299604D01*
X68900933Y-36287325D01*
X68858168Y-36268818D01*
X68852922Y-36266248D01*
X68812093Y-36243803D01*
X68812092Y-36243802D01*
X68792693Y-36238822D01*
X68774281Y-36232518D01*
X68755898Y-36224562D01*
X68755892Y-36224560D01*
X68709874Y-36217272D01*
X68704152Y-36216087D01*
X68659021Y-36204500D01*
X68659019Y-36204500D01*
X68638984Y-36204500D01*
X68619586Y-36202973D01*
X68612162Y-36201797D01*
X68599805Y-36199840D01*
X68599804Y-36199840D01*
X68553416Y-36204225D01*
X68547578Y-36204500D01*
X61492799Y-36204500D01*
X61425760Y-36184815D01*
X61391224Y-36151623D01*
X61295827Y-36015381D01*
X61255375Y-35974929D01*
X61139620Y-35859174D01*
X61139616Y-35859171D01*
X61139615Y-35859170D01*
X60958666Y-35732468D01*
X60958662Y-35732466D01*
X60882240Y-35696830D01*
X60758450Y-35639106D01*
X60758447Y-35639105D01*
X60758445Y-35639104D01*
X60545070Y-35581930D01*
X60545062Y-35581929D01*
X60325002Y-35562677D01*
X60324998Y-35562677D01*
X60104937Y-35581929D01*
X60104929Y-35581930D01*
X59891554Y-35639104D01*
X59891548Y-35639107D01*
X59691340Y-35732465D01*
X59691338Y-35732466D01*
X59510377Y-35859175D01*
X59354175Y-36015377D01*
X59227466Y-36196338D01*
X59227465Y-36196340D01*
X59134107Y-36396548D01*
X59134104Y-36396554D01*
X59076930Y-36609929D01*
X59076929Y-36609937D01*
X59057677Y-36829997D01*
X59057677Y-36830002D01*
X59076929Y-37050062D01*
X59076930Y-37050070D01*
X59134104Y-37263445D01*
X59134105Y-37263447D01*
X59134106Y-37263450D01*
X59217864Y-37443070D01*
X59227466Y-37463662D01*
X59227468Y-37463666D01*
X59354170Y-37644615D01*
X59354175Y-37644621D01*
X59510378Y-37800824D01*
X59510384Y-37800829D01*
X59691333Y-37927531D01*
X59691335Y-37927532D01*
X59691338Y-37927534D01*
X59810748Y-37983215D01*
X59820189Y-37987618D01*
X59872628Y-38033790D01*
X59891780Y-38100984D01*
X59871564Y-38167865D01*
X59820189Y-38212382D01*
X59691340Y-38272465D01*
X59691338Y-38272466D01*
X59510377Y-38399175D01*
X59354175Y-38555377D01*
X59227466Y-38736338D01*
X59227465Y-38736340D01*
X59134107Y-38936548D01*
X59134104Y-38936554D01*
X59076930Y-39149929D01*
X59076929Y-39149937D01*
X59057677Y-39369997D01*
X59057677Y-39370002D01*
X59076929Y-39590062D01*
X59076930Y-39590070D01*
X59134104Y-39803445D01*
X59134105Y-39803447D01*
X59134106Y-39803450D01*
X59196444Y-39937135D01*
X59227466Y-40003662D01*
X59227468Y-40003666D01*
X59354170Y-40184615D01*
X59354175Y-40184621D01*
X59510378Y-40340824D01*
X59510384Y-40340829D01*
X59691333Y-40467531D01*
X59691335Y-40467532D01*
X59691338Y-40467534D01*
X59820781Y-40527894D01*
X59873220Y-40574066D01*
X59892372Y-40641260D01*
X59872156Y-40708141D01*
X59820781Y-40752658D01*
X59691586Y-40812903D01*
X59626812Y-40858257D01*
X59626811Y-40858258D01*
X60297554Y-41529000D01*
X60293431Y-41529000D01*
X60199579Y-41544661D01*
X60087749Y-41605180D01*
X60001629Y-41698731D01*
X59950552Y-41815177D01*
X59944894Y-41883447D01*
X59273258Y-41211811D01*
X59273257Y-41211812D01*
X59227903Y-41276586D01*
X59134579Y-41476720D01*
X59134575Y-41476729D01*
X59077426Y-41690013D01*
X59077424Y-41690023D01*
X59058179Y-41909999D01*
X59058179Y-41910000D01*
X59077424Y-42129976D01*
X59077426Y-42129986D01*
X59134575Y-42343270D01*
X59134580Y-42343284D01*
X59227899Y-42543407D01*
X59227900Y-42543409D01*
X59273258Y-42608187D01*
X59940096Y-41941349D01*
X59940051Y-41941898D01*
X59971266Y-42065162D01*
X60040813Y-42171612D01*
X60141157Y-42249713D01*
X60261422Y-42291000D01*
X60297553Y-42291000D01*
X59626811Y-42961741D01*
X59691582Y-43007094D01*
X59691588Y-43007098D01*
X59820781Y-43067342D01*
X59873220Y-43113514D01*
X59892372Y-43180708D01*
X59872156Y-43247589D01*
X59820781Y-43292106D01*
X59691340Y-43352465D01*
X59691338Y-43352466D01*
X59510377Y-43479175D01*
X59354175Y-43635377D01*
X59227466Y-43816338D01*
X59227465Y-43816340D01*
X59134107Y-44016548D01*
X59134104Y-44016554D01*
X59076930Y-44229929D01*
X59076929Y-44229937D01*
X59057677Y-44449997D01*
X59057677Y-44450002D01*
X59065192Y-44535905D01*
X59051425Y-44604405D01*
X59002809Y-44654588D01*
X58934781Y-44670521D01*
X58868937Y-44647145D01*
X58853983Y-44634393D01*
X51433386Y-37213795D01*
X51399901Y-37152472D01*
X51401293Y-37094018D01*
X51413069Y-37050072D01*
X51413069Y-37050070D01*
X51413070Y-37050068D01*
X51432323Y-36830000D01*
X51432206Y-36828666D01*
X51414690Y-36628450D01*
X51413070Y-36609932D01*
X51355894Y-36396550D01*
X51262534Y-36196339D01*
X51160616Y-36050784D01*
X51135827Y-36015381D01*
X51095375Y-35974929D01*
X50979620Y-35859174D01*
X50979616Y-35859171D01*
X50979615Y-35859170D01*
X50798666Y-35732468D01*
X50798662Y-35732466D01*
X50722240Y-35696830D01*
X50598450Y-35639106D01*
X50598447Y-35639105D01*
X50598445Y-35639104D01*
X50385070Y-35581930D01*
X50385062Y-35581929D01*
X50165002Y-35562677D01*
X50164998Y-35562677D01*
X49944937Y-35581929D01*
X49944929Y-35581930D01*
X49731554Y-35639104D01*
X49731548Y-35639107D01*
X49531340Y-35732465D01*
X49531338Y-35732466D01*
X49350377Y-35859175D01*
X49194175Y-36015377D01*
X49067466Y-36196338D01*
X49067465Y-36196340D01*
X48974107Y-36396548D01*
X48974104Y-36396554D01*
X48916930Y-36609929D01*
X48916929Y-36609937D01*
X48897677Y-36829997D01*
X48897677Y-36830002D01*
X48916929Y-37050062D01*
X48916930Y-37050070D01*
X48974104Y-37263445D01*
X48974105Y-37263447D01*
X48974106Y-37263450D01*
X49057864Y-37443070D01*
X49067466Y-37463662D01*
X49067468Y-37463666D01*
X49194170Y-37644615D01*
X49194175Y-37644621D01*
X49350378Y-37800824D01*
X49350384Y-37800829D01*
X49531333Y-37927531D01*
X49531335Y-37927532D01*
X49531338Y-37927534D01*
X49650748Y-37983215D01*
X49660189Y-37987618D01*
X49712628Y-38033790D01*
X49731780Y-38100984D01*
X49711564Y-38167865D01*
X49660189Y-38212382D01*
X49531340Y-38272465D01*
X49531338Y-38272466D01*
X49350377Y-38399175D01*
X49194175Y-38555377D01*
X49067466Y-38736338D01*
X49067465Y-38736340D01*
X48974107Y-38936548D01*
X48974104Y-38936554D01*
X48916930Y-39149929D01*
X48916929Y-39149937D01*
X48897677Y-39369997D01*
X48897677Y-39370002D01*
X48916929Y-39590062D01*
X48916930Y-39590070D01*
X48974104Y-39803445D01*
X48974105Y-39803447D01*
X48974106Y-39803450D01*
X49036444Y-39937135D01*
X49067466Y-40003662D01*
X49067468Y-40003666D01*
X49194170Y-40184615D01*
X49194175Y-40184621D01*
X49350378Y-40340824D01*
X49350384Y-40340829D01*
X49531333Y-40467531D01*
X49531335Y-40467532D01*
X49531338Y-40467534D01*
X49660781Y-40527894D01*
X49713220Y-40574066D01*
X49732372Y-40641260D01*
X49712156Y-40708141D01*
X49660781Y-40752658D01*
X49531586Y-40812903D01*
X49466812Y-40858257D01*
X49466811Y-40858258D01*
X50137553Y-41529000D01*
X50133431Y-41529000D01*
X50039579Y-41544661D01*
X49927749Y-41605180D01*
X49841629Y-41698731D01*
X49790552Y-41815177D01*
X49784894Y-41883447D01*
X49113258Y-41211811D01*
X49113257Y-41211812D01*
X49067903Y-41276586D01*
X48974579Y-41476720D01*
X48974575Y-41476729D01*
X48917426Y-41690013D01*
X48917424Y-41690023D01*
X48898179Y-41909999D01*
X48898179Y-41910000D01*
X48917424Y-42129976D01*
X48917426Y-42129986D01*
X48974575Y-42343270D01*
X48974580Y-42343284D01*
X49067899Y-42543407D01*
X49067900Y-42543409D01*
X49113258Y-42608187D01*
X49780096Y-41941349D01*
X49780051Y-41941898D01*
X49811266Y-42065162D01*
X49880813Y-42171612D01*
X49981157Y-42249713D01*
X50101422Y-42291000D01*
X50137553Y-42291000D01*
X49466811Y-42961741D01*
X49531582Y-43007094D01*
X49531588Y-43007098D01*
X49660781Y-43067342D01*
X49713220Y-43113514D01*
X49732372Y-43180708D01*
X49712156Y-43247589D01*
X49660781Y-43292106D01*
X49531340Y-43352465D01*
X49531338Y-43352466D01*
X49350377Y-43479175D01*
X49194175Y-43635377D01*
X49067466Y-43816338D01*
X49067465Y-43816340D01*
X48974107Y-44016548D01*
X48974104Y-44016554D01*
X48916930Y-44229929D01*
X48916929Y-44229937D01*
X48897677Y-44449997D01*
X48897677Y-44450002D01*
X48916929Y-44670062D01*
X48916930Y-44670070D01*
X48974104Y-44883445D01*
X48974105Y-44883447D01*
X48974106Y-44883450D01*
X49036444Y-45017135D01*
X49067466Y-45083662D01*
X49067468Y-45083666D01*
X49194170Y-45264615D01*
X49194175Y-45264621D01*
X49350378Y-45420824D01*
X49350384Y-45420829D01*
X49531333Y-45547531D01*
X49531335Y-45547532D01*
X49531338Y-45547534D01*
X49642282Y-45599268D01*
X49660189Y-45607618D01*
X49712628Y-45653790D01*
X49731780Y-45720984D01*
X49711564Y-45787865D01*
X49660189Y-45832382D01*
X49531340Y-45892465D01*
X49531338Y-45892466D01*
X49350377Y-46019175D01*
X49194175Y-46175377D01*
X49067466Y-46356338D01*
X49067465Y-46356340D01*
X48974107Y-46556548D01*
X48974104Y-46556554D01*
X48916930Y-46769929D01*
X48916929Y-46769937D01*
X48897677Y-46989997D01*
X48897677Y-46990000D01*
X48916930Y-47210068D01*
X48928706Y-47254018D01*
X48928707Y-47254019D01*
X48927044Y-47323869D01*
X48896613Y-47373794D01*
X47876208Y-48394199D01*
X47863951Y-48404020D01*
X47864134Y-48404241D01*
X47858123Y-48409213D01*
X47810772Y-48459636D01*
X47789889Y-48480519D01*
X47789877Y-48480532D01*
X47785621Y-48486017D01*
X47781837Y-48490447D01*
X47749937Y-48524418D01*
X47749936Y-48524420D01*
X47740284Y-48541976D01*
X47729610Y-48558226D01*
X47717329Y-48574061D01*
X47717324Y-48574068D01*
X47698815Y-48616838D01*
X47696245Y-48622084D01*
X47673803Y-48662906D01*
X47668822Y-48682307D01*
X47662521Y-48700710D01*
X47654562Y-48719102D01*
X47654561Y-48719105D01*
X47647271Y-48765127D01*
X47646087Y-48770846D01*
X47634501Y-48815972D01*
X47634500Y-48815982D01*
X47634500Y-48836016D01*
X47632973Y-48855415D01*
X47629840Y-48875194D01*
X47629840Y-48875195D01*
X47634225Y-48921583D01*
X47634500Y-48927421D01*
X47634500Y-67227255D01*
X47632775Y-67242872D01*
X47633061Y-67242899D01*
X47632326Y-67250665D01*
X47634500Y-67319814D01*
X47634500Y-67349343D01*
X47634501Y-67349360D01*
X47635368Y-67356231D01*
X47635826Y-67362050D01*
X47637290Y-67408624D01*
X47637291Y-67408627D01*
X47642880Y-67427867D01*
X47646824Y-67446911D01*
X47649336Y-67466792D01*
X47665776Y-67508315D01*
X47666490Y-67510119D01*
X47668382Y-67515647D01*
X47681381Y-67560388D01*
X47691580Y-67577634D01*
X47700136Y-67595100D01*
X47707514Y-67613732D01*
X47730831Y-67645826D01*
X47734898Y-67651423D01*
X47738106Y-67656307D01*
X47761827Y-67696416D01*
X47761833Y-67696424D01*
X47775990Y-67710580D01*
X47788627Y-67725375D01*
X47800406Y-67741587D01*
X47818418Y-67756488D01*
X47836309Y-67771288D01*
X47840620Y-67775210D01*
X49101690Y-69036281D01*
X49500586Y-69435177D01*
X49534071Y-69496500D01*
X49532680Y-69554949D01*
X49514367Y-69623296D01*
X49514364Y-69623313D01*
X49494532Y-69849999D01*
X49494532Y-69850001D01*
X49514364Y-70076686D01*
X49514366Y-70076697D01*
X49573258Y-70296488D01*
X49573261Y-70296497D01*
X49669431Y-70502732D01*
X49669432Y-70502734D01*
X49799954Y-70689141D01*
X49960858Y-70850045D01*
X49960861Y-70850047D01*
X50147266Y-70980568D01*
X50199562Y-71004954D01*
X50205275Y-71007618D01*
X50257714Y-71053791D01*
X50276866Y-71120984D01*
X50256650Y-71187865D01*
X50205275Y-71232382D01*
X50147267Y-71259431D01*
X50147265Y-71259432D01*
X49960858Y-71389954D01*
X49799954Y-71550858D01*
X49669432Y-71737265D01*
X49669431Y-71737267D01*
X49573261Y-71943502D01*
X49573258Y-71943511D01*
X49514366Y-72163302D01*
X49514364Y-72163313D01*
X49494955Y-72385160D01*
X49494532Y-72390000D01*
X49514364Y-72616686D01*
X49514365Y-72616691D01*
X49514366Y-72616697D01*
X49532680Y-72685048D01*
X49531017Y-72754897D01*
X49500586Y-72804821D01*
X47876208Y-74429199D01*
X47863951Y-74439020D01*
X47864134Y-74439241D01*
X47858123Y-74444213D01*
X47810772Y-74494636D01*
X47789889Y-74515519D01*
X47789877Y-74515532D01*
X47785621Y-74521017D01*
X47781837Y-74525447D01*
X47749937Y-74559418D01*
X47749936Y-74559420D01*
X47740284Y-74576976D01*
X47729610Y-74593226D01*
X47717329Y-74609061D01*
X47717324Y-74609068D01*
X47698815Y-74651838D01*
X47696245Y-74657084D01*
X47673803Y-74697906D01*
X47668822Y-74717307D01*
X47662521Y-74735710D01*
X47654562Y-74754102D01*
X47654561Y-74754105D01*
X47647271Y-74800127D01*
X47646087Y-74805846D01*
X47634501Y-74850972D01*
X47634500Y-74850982D01*
X47634500Y-74871016D01*
X47632973Y-74890415D01*
X47630044Y-74908911D01*
X47629840Y-74910196D01*
X40640500Y-74910196D01*
X40640500Y-36194999D01*
X41269496Y-36194999D01*
X41277399Y-36335737D01*
X41277497Y-36339214D01*
X41277497Y-36373163D01*
X41281297Y-36406904D01*
X41281589Y-36410367D01*
X41289494Y-36551105D01*
X41313104Y-36690068D01*
X41313590Y-36693509D01*
X41317394Y-36727261D01*
X41324947Y-36760351D01*
X41325626Y-36763761D01*
X41349238Y-36902728D01*
X41349240Y-36902739D01*
X41388264Y-37038194D01*
X41389133Y-37041562D01*
X41396682Y-37074639D01*
X41396683Y-37074642D01*
X41407891Y-37106675D01*
X41408946Y-37109987D01*
X41447973Y-37245450D01*
X41501918Y-37375684D01*
X41503158Y-37378932D01*
X41514372Y-37410979D01*
X41529101Y-37441565D01*
X41530522Y-37444740D01*
X41584464Y-37574967D01*
X41652647Y-37698335D01*
X41654242Y-37701424D01*
X41663800Y-37721269D01*
X41668976Y-37732017D01*
X41668978Y-37732020D01*
X41668980Y-37732024D01*
X41687035Y-37760759D01*
X41688802Y-37763755D01*
X41756990Y-37887130D01*
X41838559Y-38002091D01*
X41840491Y-38004983D01*
X41857552Y-38032135D01*
X41858554Y-38033729D01*
X41858603Y-38033790D01*
X41879727Y-38060280D01*
X41881818Y-38063059D01*
X41925295Y-38124334D01*
X41963382Y-38178012D01*
X42050419Y-38275407D01*
X42057315Y-38283123D01*
X42059559Y-38285781D01*
X42080715Y-38312310D01*
X42080717Y-38312313D01*
X42080720Y-38312316D01*
X42080721Y-38312317D01*
X42104730Y-38336326D01*
X42107103Y-38338837D01*
X42201042Y-38443954D01*
X42201045Y-38443957D01*
X42306161Y-38537894D01*
X42308670Y-38540266D01*
X42332683Y-38564279D01*
X42359217Y-38585439D01*
X42361868Y-38587677D01*
X42466988Y-38681618D01*
X42581966Y-38763199D01*
X42584708Y-38765263D01*
X42611271Y-38786446D01*
X42640041Y-38804523D01*
X42642883Y-38806422D01*
X42757870Y-38888010D01*
X42845693Y-38936548D01*
X42881247Y-38956198D01*
X42884215Y-38957948D01*
X42912983Y-38976024D01*
X42934139Y-38986212D01*
X42943558Y-38990748D01*
X42946649Y-38992345D01*
X43054047Y-39051701D01*
X43070027Y-39060533D01*
X43070033Y-39060536D01*
X43070037Y-39060538D01*
X43200258Y-39114477D01*
X43203434Y-39115898D01*
X43234016Y-39130626D01*
X43234020Y-39130628D01*
X43266070Y-39141843D01*
X43269305Y-39143077D01*
X43399546Y-39197025D01*
X43535021Y-39236054D01*
X43538295Y-39237098D01*
X43570355Y-39248316D01*
X43603466Y-39255873D01*
X43606792Y-39256731D01*
X43742271Y-39295762D01*
X43881313Y-39319386D01*
X43884591Y-39320038D01*
X43917749Y-39327607D01*
X43951515Y-39331411D01*
X43954914Y-39331891D01*
X44093897Y-39355506D01*
X44182825Y-39360500D01*
X44234641Y-39363410D01*
X44238080Y-39363699D01*
X44267526Y-39367017D01*
X44271835Y-39367503D01*
X44305785Y-39367503D01*
X44309262Y-39367601D01*
X44359309Y-39370411D01*
X44450000Y-39375504D01*
X44540690Y-39370411D01*
X44590738Y-39367601D01*
X44594215Y-39367503D01*
X44628165Y-39367503D01*
X44632473Y-39367017D01*
X44661919Y-39363699D01*
X44665359Y-39363410D01*
X44700281Y-39361448D01*
X44806103Y-39355506D01*
X44945095Y-39331890D01*
X44948479Y-39331412D01*
X44982251Y-39327607D01*
X45015388Y-39320043D01*
X45018700Y-39319383D01*
X45157729Y-39295762D01*
X45293237Y-39256722D01*
X45296496Y-39255881D01*
X45319214Y-39250696D01*
X45329639Y-39248318D01*
X45329656Y-39248312D01*
X45361726Y-39237090D01*
X45364944Y-39236064D01*
X45500454Y-39197025D01*
X45630740Y-39143058D01*
X45633867Y-39141864D01*
X45665977Y-39130629D01*
X45696611Y-39115876D01*
X45699712Y-39114489D01*
X45829969Y-39060535D01*
X45953363Y-38992337D01*
X45956404Y-38990766D01*
X45987017Y-38976024D01*
X46015837Y-38957914D01*
X46018692Y-38956231D01*
X46142130Y-38888010D01*
X46257125Y-38806416D01*
X46259950Y-38804528D01*
X46288729Y-38786446D01*
X46292045Y-38783802D01*
X46306194Y-38772518D01*
X46315291Y-38765263D01*
X46318021Y-38763207D01*
X46433012Y-38681618D01*
X46538153Y-38587658D01*
X46540749Y-38585466D01*
X46567317Y-38564279D01*
X46591344Y-38540251D01*
X46593816Y-38537914D01*
X46698956Y-38443956D01*
X46792914Y-38338816D01*
X46795251Y-38336344D01*
X46819279Y-38312317D01*
X46840466Y-38285749D01*
X46842658Y-38283153D01*
X46936618Y-38178012D01*
X47018207Y-38063022D01*
X47020272Y-38060280D01*
X47034742Y-38042135D01*
X47041440Y-38033737D01*
X47041441Y-38033735D01*
X47041446Y-38033729D01*
X47059528Y-38004950D01*
X47061416Y-38002125D01*
X47143010Y-37887130D01*
X47211231Y-37763692D01*
X47212914Y-37760837D01*
X47231024Y-37732017D01*
X47245766Y-37701404D01*
X47247337Y-37698363D01*
X47315535Y-37574969D01*
X47369489Y-37444712D01*
X47370876Y-37441611D01*
X47385629Y-37410977D01*
X47396864Y-37378867D01*
X47398058Y-37375740D01*
X47452025Y-37245454D01*
X47491064Y-37109944D01*
X47492090Y-37106726D01*
X47503316Y-37074645D01*
X47503317Y-37074642D01*
X47503318Y-37074639D01*
X47505696Y-37064214D01*
X47510881Y-37041496D01*
X47511722Y-37038237D01*
X47550762Y-36902729D01*
X47574383Y-36763700D01*
X47575043Y-36760388D01*
X47582607Y-36727251D01*
X47586412Y-36693479D01*
X47586890Y-36690095D01*
X47610506Y-36551103D01*
X47618145Y-36415070D01*
X47618410Y-36410360D01*
X47618701Y-36406904D01*
X47622503Y-36373164D01*
X47623168Y-36325622D01*
X47630504Y-36195000D01*
X47623168Y-36064378D01*
X47622503Y-36016836D01*
X47618700Y-35983083D01*
X47618410Y-35979640D01*
X47611645Y-35859175D01*
X47610506Y-35838897D01*
X47586891Y-35699914D01*
X47586411Y-35696515D01*
X47582607Y-35662749D01*
X47575038Y-35629591D01*
X47574386Y-35626313D01*
X47550762Y-35487271D01*
X47511731Y-35351792D01*
X47510873Y-35348466D01*
X47503316Y-35315355D01*
X47492098Y-35283295D01*
X47491051Y-35280010D01*
X47452025Y-35144546D01*
X47398077Y-35014305D01*
X47396843Y-35011070D01*
X47385628Y-34979020D01*
X47385626Y-34979016D01*
X47370898Y-34948434D01*
X47369477Y-34945258D01*
X47315538Y-34815037D01*
X47315536Y-34815033D01*
X47247345Y-34691649D01*
X47245748Y-34688558D01*
X47231026Y-34657988D01*
X47231023Y-34657982D01*
X47212948Y-34629215D01*
X47211198Y-34626247D01*
X47143008Y-34502867D01*
X47134834Y-34491347D01*
X47061422Y-34387883D01*
X47059523Y-34385041D01*
X47041446Y-34356271D01*
X47020263Y-34329708D01*
X47018199Y-34326966D01*
X46936618Y-34211988D01*
X46842677Y-34106868D01*
X46840439Y-34104217D01*
X46819279Y-34077683D01*
X46795264Y-34053668D01*
X46792894Y-34051161D01*
X46698957Y-33946045D01*
X46698954Y-33946042D01*
X46593837Y-33852103D01*
X46591327Y-33849731D01*
X46567317Y-33825721D01*
X46567316Y-33825720D01*
X46567313Y-33825717D01*
X46567310Y-33825715D01*
X46540781Y-33804559D01*
X46538123Y-33802315D01*
X46433012Y-33708382D01*
X46318059Y-33626818D01*
X46315280Y-33624727D01*
X46288726Y-33603552D01*
X46259983Y-33585491D01*
X46257091Y-33583559D01*
X46142130Y-33501990D01*
X46018755Y-33433802D01*
X46015759Y-33432035D01*
X45987024Y-33413980D01*
X45987021Y-33413978D01*
X45987017Y-33413976D01*
X45976269Y-33408800D01*
X45956424Y-33399242D01*
X45953335Y-33397647D01*
X45829972Y-33329467D01*
X45829969Y-33329465D01*
X45829967Y-33329464D01*
X45699740Y-33275522D01*
X45696565Y-33274101D01*
X45665979Y-33259372D01*
X45665977Y-33259371D01*
X45633932Y-33248158D01*
X45630684Y-33246918D01*
X45500450Y-33192973D01*
X45364987Y-33153946D01*
X45361675Y-33152891D01*
X45329642Y-33141683D01*
X45329639Y-33141682D01*
X45296562Y-33134133D01*
X45293194Y-33133264D01*
X45157739Y-33094240D01*
X45157730Y-33094238D01*
X45157729Y-33094238D01*
X45101880Y-33084748D01*
X45018761Y-33070626D01*
X45015351Y-33069947D01*
X44982260Y-33062394D01*
X44982261Y-33062394D01*
X44948509Y-33058590D01*
X44945068Y-33058104D01*
X44806105Y-33034494D01*
X44665367Y-33026589D01*
X44661904Y-33026297D01*
X44630405Y-33022749D01*
X44628164Y-33022497D01*
X44628163Y-33022497D01*
X44594215Y-33022497D01*
X44590738Y-33022399D01*
X44450000Y-33014496D01*
X44309262Y-33022399D01*
X44305785Y-33022497D01*
X44271837Y-33022497D01*
X44271836Y-33022497D01*
X44269734Y-33022733D01*
X44238095Y-33026297D01*
X44234632Y-33026589D01*
X44093895Y-33034494D01*
X43954932Y-33058104D01*
X43951491Y-33058590D01*
X43917749Y-33062393D01*
X43917736Y-33062395D01*
X43884651Y-33069947D01*
X43881243Y-33070625D01*
X43860311Y-33074182D01*
X43742274Y-33094237D01*
X43742265Y-33094239D01*
X43606812Y-33133262D01*
X43603445Y-33134131D01*
X43570353Y-33141684D01*
X43538331Y-33152889D01*
X43535018Y-33153945D01*
X43399541Y-33192976D01*
X43269326Y-33246913D01*
X43266079Y-33248153D01*
X43234020Y-33259372D01*
X43203443Y-33274096D01*
X43200272Y-33275515D01*
X43070026Y-33329467D01*
X42946663Y-33397647D01*
X42943575Y-33399242D01*
X42912984Y-33413975D01*
X42912973Y-33413981D01*
X42884239Y-33432035D01*
X42881246Y-33433801D01*
X42757872Y-33501988D01*
X42642909Y-33583558D01*
X42640019Y-33585489D01*
X42611271Y-33603553D01*
X42611268Y-33603555D01*
X42584720Y-33624725D01*
X42581943Y-33626815D01*
X42466983Y-33708384D01*
X42361879Y-33802311D01*
X42359224Y-33804554D01*
X42332680Y-33825723D01*
X42308668Y-33849734D01*
X42306143Y-33852120D01*
X42201044Y-33946044D01*
X42107120Y-34051143D01*
X42104734Y-34053668D01*
X42080723Y-34077680D01*
X42059554Y-34104224D01*
X42057311Y-34106879D01*
X41963384Y-34211983D01*
X41881815Y-34326943D01*
X41879725Y-34329720D01*
X41858555Y-34356268D01*
X41858553Y-34356271D01*
X41840489Y-34385019D01*
X41838558Y-34387909D01*
X41756988Y-34502872D01*
X41688801Y-34626246D01*
X41687035Y-34629239D01*
X41668981Y-34657973D01*
X41668975Y-34657984D01*
X41654242Y-34688575D01*
X41652647Y-34691663D01*
X41584467Y-34815026D01*
X41530515Y-34945272D01*
X41529096Y-34948443D01*
X41514372Y-34979020D01*
X41503153Y-35011079D01*
X41501913Y-35014326D01*
X41447976Y-35144541D01*
X41408945Y-35280018D01*
X41407889Y-35283331D01*
X41396684Y-35315353D01*
X41389131Y-35348445D01*
X41388262Y-35351812D01*
X41349239Y-35487265D01*
X41349237Y-35487274D01*
X41325626Y-35626241D01*
X41324947Y-35629651D01*
X41317395Y-35662736D01*
X41317393Y-35662749D01*
X41313590Y-35696491D01*
X41313104Y-35699932D01*
X41289494Y-35838895D01*
X41281589Y-35979632D01*
X41281297Y-35983095D01*
X41277497Y-36016836D01*
X41277497Y-36050784D01*
X41277399Y-36054261D01*
X41269496Y-36194999D01*
X40640500Y-36194999D01*
X40640500Y-32509500D01*
X40660185Y-32442461D01*
X40712989Y-32396706D01*
X40764500Y-32385500D01*
X108460500Y-32385500D01*
X108527539Y-32405185D01*
G37*
%TD.AperFunction*%
%TD*%
M02*
