M48
; DRILL file {KiCad 7.0.9} date Wed Nov 13 11:23:12 2024
; FORMAT={-:-/ absolute / inch / decimal}
; #@! TF.CreationDate,2024-11-13T11:23:12-07:00
; #@! TF.GenerationSoftware,Kicad,Pcbnew,7.0.9
; #@! TF.FileFunction,Plated,1,2,PTH
FMAT,2
INCH
; #@! TA.AperFunction,Plated,PTH,ViaDrill
T1C0.0157
; #@! TA.AperFunction,Plated,PTH,ComponentDrill
T2C0.0300
; #@! TA.AperFunction,Plated,PTH,ComponentDrill
T3C0.0315
; #@! TA.AperFunction,Plated,PTH,ComponentDrill
T4C0.0394
; #@! TA.AperFunction,Plated,PTH,ComponentDrill
T5C0.0433
%
G90
G05
T1
X2.1Y-2.8
X3.25Y-1.725
X3.6715Y-2.475
X3.7Y-2.025
T2
X1.975Y-1.45
X1.975Y-1.55
X1.975Y-1.65
X1.975Y-1.75
X1.975Y-1.85
X1.975Y-1.95
X2.375Y-1.45
X2.375Y-1.55
X2.375Y-1.65
X2.375Y-1.75
X2.375Y-1.85
X2.375Y-1.95
X2.525Y-1.625
X2.525Y-1.725
X2.525Y-1.825
X2.525Y-1.925
X2.525Y-2.025
X2.525Y-2.125
X2.525Y-2.225
X2.525Y-2.325
X2.525Y-2.425
X2.525Y-2.525
X2.525Y-2.625
X2.525Y-2.725
X2.525Y-2.825
X2.525Y-2.925
X2.525Y-3.025
X2.525Y-3.125
X3.325Y-2.025
X3.325Y-2.125
X3.325Y-2.225
X3.325Y-2.325
X3.325Y-2.425
X3.325Y-2.525
X3.325Y-2.625
X3.325Y-2.725
X3.325Y-2.825
X3.325Y-2.925
X3.325Y-3.025
X3.325Y-3.125
X3.475Y-1.425
X3.475Y-1.525
X3.475Y-1.625
X3.475Y-1.725
X3.475Y-1.825
X3.475Y-1.925
X3.875Y-1.425
X3.875Y-1.525
X3.875Y-1.625
X3.875Y-1.725
X3.875Y-1.825
X3.875Y-1.925
T3
X1.975Y-3.0758
X1.975Y-3.1742
X1.975Y-3.425
X1.975Y-3.5234
X2.0Y-2.15
X2.0Y-2.25
X2.0Y-2.35
X2.0Y-2.45
X2.0Y-2.55
X2.0Y-2.65
X2.0Y-2.75
X2.0Y-2.85
X2.3Y-2.15
X2.3Y-2.25
X2.3Y-2.35
X2.3Y-2.45
X2.3Y-2.55
X2.3Y-2.65
X2.3Y-2.75
X2.3Y-2.85
X2.475Y-3.775
X2.475Y-3.8734
X3.275Y-3.775
X3.275Y-3.8734
X3.5Y-2.125
X3.5Y-2.225
X3.5Y-2.325
X3.5Y-2.425
X3.5Y-2.525
X3.5Y-2.625
X3.5Y-2.725
X3.5Y-2.825
X3.8Y-2.125
X3.8Y-2.225
X3.8Y-2.325
X3.8Y-2.425
X3.8Y-2.525
X3.8Y-2.625
X3.8Y-2.725
X3.8Y-2.825
X3.875Y-3.0516
X3.875Y-3.15
X3.875Y-3.4008
X3.875Y-3.4992
T4
X2.225Y-3.075
X2.225Y-3.1734
X2.225Y-3.425
X2.225Y-3.5234
X2.8508Y-3.95
X2.9492Y-3.95
X3.55Y-3.4
X3.55Y-3.4984
X3.5516Y-3.0516
X3.5516Y-3.15
T5
X2.8Y-3.5872
X2.9Y-3.5872
X3.0Y-3.5872
T0
M30
