%TF.GenerationSoftware,KiCad,Pcbnew,7.0.9*%
%TF.CreationDate,2024-11-13T11:23:37-07:00*%
%TF.ProjectId,fullOptBattleCartV1,66756c6c-4f70-4744-9261-74746c654361,rev?*%
%TF.SameCoordinates,Original*%
%TF.FileFunction,Soldermask,Top*%
%TF.FilePolarity,Negative*%
%FSLAX46Y46*%
G04 Gerber Fmt 4.6, Leading zero omitted, Abs format (unit mm)*
G04 Created by KiCad (PCBNEW 7.0.9) date 2024-11-13 11:23:37*
%MOMM*%
%LPD*%
G01*
G04 APERTURE LIST*
G04 Aperture macros list*
%AMRoundRect*
0 Rectangle with rounded corners*
0 $1 Rounding radius*
0 $2 $3 $4 $5 $6 $7 $8 $9 X,Y pos of 4 corners*
0 Add a 4 corners polygon primitive as box body*
4,1,4,$2,$3,$4,$5,$6,$7,$8,$9,$2,$3,0*
0 Add four circle primitives for the rounded corners*
1,1,$1+$1,$2,$3*
1,1,$1+$1,$4,$5*
1,1,$1+$1,$6,$7*
1,1,$1+$1,$8,$9*
0 Add four rect primitives between the rounded corners*
20,1,$1+$1,$2,$3,$4,$5,0*
20,1,$1+$1,$4,$5,$6,$7,0*
20,1,$1+$1,$6,$7,$8,$9,0*
20,1,$1+$1,$8,$9,$2,$3,0*%
G04 Aperture macros list end*
%ADD10C,1.600000*%
%ADD11C,1.200000*%
%ADD12RoundRect,0.250000X-0.750000X0.600000X-0.750000X-0.600000X0.750000X-0.600000X0.750000X0.600000X0*%
%ADD13O,2.000000X1.700000*%
%ADD14R,1.600000X1.600000*%
%ADD15C,1.524000*%
%ADD16RoundRect,0.250000X0.750000X-0.600000X0.750000X0.600000X-0.750000X0.600000X-0.750000X-0.600000X0*%
%ADD17O,1.600000X1.600000*%
%ADD18R,1.905000X2.000000*%
%ADD19O,1.905000X2.000000*%
%ADD20RoundRect,0.250000X-0.600000X-0.750000X0.600000X-0.750000X0.600000X0.750000X-0.600000X0.750000X0*%
%ADD21O,1.700000X2.000000*%
G04 APERTURE END LIST*
D10*
%TO.C,C1*%
X50165000Y-78125000D03*
X50165000Y-80625000D03*
%TD*%
D11*
%TO.C,M1*%
X54515000Y-76505000D03*
D12*
X56515000Y-78105000D03*
D13*
X56515000Y-80605000D03*
%TD*%
D10*
%TO.C,C2*%
X50165000Y-86995000D03*
X50165000Y-89495000D03*
%TD*%
D14*
%TO.C,C5*%
X62865000Y-98385000D03*
D10*
X62865000Y-95885000D03*
%TD*%
D15*
%TO.C,U1*%
X64135000Y-41275000D03*
X64135000Y-43815000D03*
X64135000Y-46355000D03*
X64135000Y-48895000D03*
X64135000Y-51435000D03*
X64135000Y-53975000D03*
X64135000Y-56515000D03*
X64135000Y-59055000D03*
X64135000Y-61595000D03*
X64135000Y-64135000D03*
X64135000Y-66675000D03*
X64135000Y-69215000D03*
X64135000Y-71755000D03*
X64135000Y-74295000D03*
X64135000Y-76835000D03*
X64135000Y-79375000D03*
X84455000Y-79375000D03*
X84455000Y-76835000D03*
X84455000Y-74295000D03*
X84455000Y-71755000D03*
X84455000Y-69215000D03*
X84455000Y-66675000D03*
X84455000Y-64135000D03*
X84455000Y-61595000D03*
X84455000Y-59055000D03*
X84455000Y-56515000D03*
X84455000Y-53975000D03*
X84455000Y-51435000D03*
%TD*%
D11*
%TO.C,M4*%
X92170000Y-90460000D03*
D16*
X90170000Y-88860000D03*
D13*
X90170000Y-86360000D03*
%TD*%
D10*
%TO.C,C3*%
X98425000Y-80010000D03*
X98425000Y-77510000D03*
%TD*%
%TO.C,C4*%
X98425000Y-88880000D03*
X98425000Y-86380000D03*
%TD*%
D14*
%TO.C,U4*%
X50800000Y-54610000D03*
D17*
X50800000Y-57150000D03*
X50800000Y-59690000D03*
X50800000Y-62230000D03*
X50800000Y-64770000D03*
X50800000Y-67310000D03*
X50800000Y-69850000D03*
X50800000Y-72390000D03*
X58420000Y-72390000D03*
X58420000Y-69850000D03*
X58420000Y-67310000D03*
X58420000Y-64770000D03*
X58420000Y-62230000D03*
X58420000Y-59690000D03*
X58420000Y-57150000D03*
X58420000Y-54610000D03*
%TD*%
D18*
%TO.C,U6*%
X71120000Y-91115000D03*
D19*
X73660000Y-91115000D03*
X76200000Y-91115000D03*
%TD*%
D15*
%TO.C,U3*%
X88265000Y-36195000D03*
X88265000Y-38735000D03*
X88265000Y-41275000D03*
X88265000Y-43815000D03*
X88265000Y-46355000D03*
X88265000Y-48895000D03*
X98425000Y-48895000D03*
X98425000Y-46355000D03*
X98425000Y-43815000D03*
X98425000Y-41275000D03*
X98425000Y-38735000D03*
X98425000Y-36195000D03*
%TD*%
%TO.C,U2*%
X60325000Y-49530000D03*
X60325000Y-46990000D03*
X60325000Y-44450000D03*
X60325000Y-41910000D03*
X60325000Y-39370000D03*
X60325000Y-36830000D03*
X50165000Y-36830000D03*
X50165000Y-39370000D03*
X50165000Y-41910000D03*
X50165000Y-44450000D03*
X50165000Y-46990000D03*
X50165000Y-49530000D03*
%TD*%
D11*
%TO.C,M3*%
X92210000Y-81610000D03*
D16*
X90210000Y-80010000D03*
D13*
X90210000Y-77510000D03*
%TD*%
D14*
%TO.C,C6*%
X83185000Y-95885000D03*
D10*
X83185000Y-98385000D03*
%TD*%
D20*
%TO.C,BT1*%
X72410000Y-100330000D03*
D21*
X74910000Y-100330000D03*
%TD*%
D11*
%TO.C,M2*%
X54515000Y-85395000D03*
D12*
X56515000Y-86995000D03*
D13*
X56515000Y-89495000D03*
%TD*%
D14*
%TO.C,U5*%
X88900000Y-53975000D03*
D17*
X88900000Y-56515000D03*
X88900000Y-59055000D03*
X88900000Y-61595000D03*
X88900000Y-64135000D03*
X88900000Y-66675000D03*
X88900000Y-69215000D03*
X88900000Y-71755000D03*
X96520000Y-71755000D03*
X96520000Y-69215000D03*
X96520000Y-66675000D03*
X96520000Y-64135000D03*
X96520000Y-61595000D03*
X96520000Y-59055000D03*
X96520000Y-56515000D03*
X96520000Y-53975000D03*
%TD*%
M02*
